<svg width="33" height="33" viewBox="0 0 33 33" fill="none" xmlns="http://www.w3.org/2000/svg">
<path d="M32.4694 16.1982L32.4407 16.1223L32.3596 15.9052L32.2393 15.5705L32.0745 15.1311L31.8862 14.6263L31.677 14.0666L31.4546 13.4833L31.2323 12.8792L31.01 12.2881L30.8008 11.731L30.6125 11.2262L30.4529 10.7946L30.3274 10.4599L30.2463 10.2428L30.2175 10.1669L30.1417 9.9394L30.0946 9.72493L30.0737 9.56277V9.5H24.0765L23.9954 9.53139L23.7626 9.62293L23.3912 9.76939L22.8969 9.96293L22.2901 10.1983L21.5892 10.4756L20.8045 10.7816L19.9467 11.1137L19.0365 11.4694L18.0845 11.8434L17.1063 12.2253L16.1124 12.615L15.1212 13.0021L14.1404 13.3866L13.1884 13.7579L12.2782 14.1163L11.4229 14.4484L10.6383 14.757L9.93474 15.0186L9.33057 15.2566L8.83364 15.4501L8.46224 15.5966L8.22947 15.6855L8.15101 15.7169L7.84761 15.8111L7.39776 15.8634L7.13098 15.8529L6.83282 15.764L6.54251 15.594L6.28096 15.3141L6.06126 14.9061L5.93834 14.4092L5.97234 13.9541L6.16588 13.5409L6.47973 13.2035L6.80405 12.9864L7.04729 12.8713L7.12314 12.8425L7.34283 12.7562L7.68546 12.6228L8.13531 12.445L8.6584 12.2358L9.26519 11.9925L9.92951 11.731L10.6252 11.4694L11.3419 11.1896L12.0559 10.9097L12.7542 10.6482L13.4159 10.3866L14.0253 10.146L14.5641 9.93678L15.0113 9.76154L15.3566 9.62554L15.5736 9.54185L15.6521 9.51046H3.74921V9.57323L3.72828 9.73539L3.68382 9.94986L3.60536 10.1774L3.57397 10.2637L3.47982 10.5122L3.3412 10.8888L3.16073 11.3727L2.94627 11.9219L2.71872 12.5391L2.4781 13.1799L2.23486 13.8233L2.00732 14.438L1.79547 15.0029L1.615 15.4841L1.47377 15.8634L1.38223 16.1092L1.35084 16.1982L1.17299 16.5748L1.03437 16.8128L0.945448 16.9383L0.914062 16.9749L0.997757 17.0063L1.23838 17.09L1.60977 17.2234L2.09624 17.396L2.66641 17.5974L3.3072 17.825L3.98983 18.0656L4.696 18.3271L5.39956 18.5887L6.0848 18.8293L6.72297 19.0568L7.29575 19.2608L7.77961 19.4309L8.15101 19.5642L8.39163 19.6479L8.47794 19.6793L8.56163 19.6453L8.80748 19.5485L9.1998 19.3969L9.72289 19.1902L10.3637 18.9287L11.1065 18.6384L11.9356 18.3141L12.8405 17.961L13.8004 17.5843L14.8073 17.1894L15.8535 16.7866L16.8997 16.376L17.9459 15.9654L18.992 15.56L19.999 15.1651L20.9589 14.7884L21.8638 14.4353L22.6929 14.111L23.4174 13.8233L24.0582 13.5618L24.5812 13.3578L24.9736 13.2035L25.2194 13.1067L25.3031 13.0753L25.6039 12.9812L26.0537 12.9315L26.3362 12.955L26.6318 13.0413L26.9247 13.2113L27.1862 13.4912L27.4059 13.8992L27.5341 14.4563L27.4582 14.9611L27.1967 15.4083L26.8828 15.6855L26.5978 15.8582L26.433 15.934L26.3519 15.9654L26.1191 16.0569L25.7477 16.2034L25.2534 16.3943L24.6545 16.6297L23.964 16.8913L23.1977 17.1894L22.3686 17.5137L21.495 17.8564L20.5901 18.2121L19.6721 18.5704L18.7514 18.9313L17.8465 19.2844L16.9729 19.627L16.1438 19.9513L15.3775 20.2521L14.687 20.5136L14.0881 20.749L13.5938 20.94L13.2224 21.0864L12.9896 21.178L12.9085 21.2094L12.9922 21.2407L13.2224 21.3218L13.5545 21.4395L13.9468 21.5781L14.3601 21.7246L14.7524 21.8632L15.0819 21.9809L15.3121 22.062L15.3958 22.0908L15.6809 22.2058L16.0313 22.3549L16.3923 22.5223L16.7087 22.6845L16.9206 22.8283L17.1298 22.6845L17.4463 22.5223L17.8072 22.3549L18.1603 22.2058L18.4428 22.0908L18.5239 22.0646L18.7514 21.9835L19.1176 21.8528L19.6041 21.6801L20.1978 21.4709L20.883 21.2251L21.6493 20.9635L22.4784 20.6706L23.3468 20.362L24.2622 20.0376L25.1985 19.7055L26.1401 19.3707L27.0764 19.0542L27.9918 18.7273L28.8706 18.4161L29.6997 18.1231L30.4634 17.8616L31.1512 17.6183L31.745 17.4091L32.2393 17.2234L32.6054 17.0926L32.833 17.0116L32.9141 16.9828L32.8801 16.9462L32.7911 16.8206L32.6525 16.5826L32.4694 16.1982Z" fill="#141414"/>
</svg>
