<svg width="143" height="50" viewBox="0 0 143 50" fill="none" xmlns="http://www.w3.org/2000/svg">
<rect x="0.5" y="0.5" width="142" height="49" rx="11.5" fill="#F7F7F7"/>
<rect x="0.5" y="0.5" width="142" height="49" rx="11.5" stroke="#EFEFEF"/>
<path d="M37.3736 17.979C37.2973 17.8877 37.2019 17.8143 37.0942 17.7639C36.9864 17.7136 36.8689 17.6875 36.75 17.6875H20.3659L19.7484 14.2923C19.7144 14.1051 19.6158 13.9357 19.4697 13.8138C19.3237 13.6918 19.1394 13.625 18.9491 13.625H16.4375C16.222 13.625 16.0153 13.7106 15.863 13.863C15.7106 14.0153 15.625 14.222 15.625 14.4375C15.625 14.653 15.7106 14.8597 15.863 15.012C16.0153 15.1644 16.222 15.25 16.4375 15.25H18.2656L20.8616 29.4982C20.938 29.9208 21.1248 30.3156 21.4029 30.6428C21.019 31.0013 20.742 31.4592 20.6024 31.9656C20.4629 32.4719 20.4663 33.0071 20.6124 33.5116C20.7584 34.0162 21.0413 34.4704 21.4297 34.824C21.8182 35.1776 22.2969 35.4167 22.8129 35.5148C23.329 35.6128 23.8621 35.5661 24.3531 35.3797C24.8442 35.1933 25.2741 34.8746 25.595 34.4588C25.916 34.043 26.1155 33.5465 26.1715 33.0242C26.2275 32.5019 26.1378 31.9744 25.9123 31.5H30.5252C30.3435 31.8805 30.2494 32.297 30.25 32.7187C30.25 33.2812 30.4168 33.831 30.7293 34.2987C31.0417 34.7663 31.4859 35.1308 32.0055 35.346C32.5251 35.5613 33.0969 35.6176 33.6485 35.5079C34.2002 35.3981 34.7069 35.1273 35.1046 34.7296C35.5023 34.3319 35.7731 33.8252 35.8829 33.2735C35.9926 32.7219 35.9363 32.1501 35.721 31.6305C35.5058 31.1109 35.1413 30.6667 34.6737 30.3543C34.206 30.0418 33.6562 29.875 33.0938 29.875H23.2595C23.0692 29.875 22.8849 29.8082 22.7389 29.6862C22.5928 29.5643 22.4942 29.3949 22.4602 29.2077L22.1382 27.4375H33.9195C34.4903 27.4374 35.043 27.237 35.4812 26.8712C35.9194 26.5054 36.2153 25.9973 36.3173 25.4357L37.5523 18.6452C37.5732 18.5279 37.5681 18.4073 37.5372 18.2922C37.5063 18.1771 37.4504 18.0701 37.3736 17.979ZM24.5625 32.7187C24.5625 32.9598 24.491 33.1954 24.3571 33.3958C24.2232 33.5963 24.0328 33.7525 23.8101 33.8447C23.5874 33.937 23.3424 33.9611 23.106 33.9141C22.8696 33.8671 22.6524 33.751 22.482 33.5805C22.3115 33.4101 22.1954 33.1929 22.1484 32.9565C22.1014 32.7201 22.1255 32.4751 22.2178 32.2524C22.31 32.0297 22.4662 31.8393 22.6666 31.7054C22.8671 31.5715 23.1027 31.5 23.3438 31.5C23.667 31.5 23.977 31.6284 24.2055 31.857C24.4341 32.0855 24.5625 32.3955 24.5625 32.7187ZM34.3125 32.7187C34.3125 32.9598 34.241 33.1954 34.1071 33.3958C33.9732 33.5963 33.7828 33.7525 33.5601 33.8447C33.3374 33.937 33.0924 33.9611 32.856 33.9141C32.6196 33.8671 32.4024 33.751 32.232 33.5805C32.0615 33.4101 31.9454 33.1929 31.8984 32.9565C31.8514 32.7201 31.8755 32.4751 31.9678 32.2524C32.06 32.0297 32.2162 31.8393 32.4166 31.7054C32.6171 31.5715 32.8527 31.5 33.0938 31.5C33.417 31.5 33.727 31.6284 33.9555 31.857C34.1841 32.0855 34.3125 32.3955 34.3125 32.7187ZM34.7188 25.1452C34.6846 25.333 34.5856 25.5027 34.4389 25.6247C34.2922 25.7467 34.1072 25.8132 33.9164 25.8125H21.8427L20.6615 19.3125H35.776L34.7188 25.1452Z" fill="#141414"/>
<path d="M62.122 20.884V29.5H61.006V23.368C61.006 23.276 61.008 23.178 61.012 23.074C61.02 22.97 61.028 22.864 61.036 22.756L58.168 28.018C58.068 28.214 57.914 28.312 57.706 28.312H57.526C57.318 28.312 57.166 28.214 57.07 28.018L54.148 22.738C54.172 22.962 54.184 23.172 54.184 23.368V29.5H53.062V20.884H54.01C54.122 20.884 54.208 20.896 54.268 20.92C54.332 20.94 54.392 21 54.448 21.1L57.328 26.26C57.384 26.364 57.436 26.474 57.484 26.59C57.532 26.706 57.578 26.822 57.622 26.938C57.706 26.702 57.804 26.474 57.916 26.254L60.742 21.1C60.794 21 60.85 20.94 60.91 20.92C60.974 20.896 61.062 20.884 61.174 20.884H62.122ZM67.8639 25.774C67.8639 25.542 67.8299 25.328 67.7619 25.132C67.6979 24.936 67.6019 24.766 67.4739 24.622C67.3459 24.478 67.1899 24.366 67.0059 24.286C66.8219 24.206 66.6099 24.166 66.3699 24.166C65.8779 24.166 65.4899 24.308 65.2059 24.592C64.9259 24.876 64.7479 25.27 64.6719 25.774H67.8639ZM68.8299 28.63C68.6859 28.798 68.5199 28.944 68.3319 29.068C68.1439 29.188 67.9439 29.286 67.7319 29.362C67.5199 29.438 67.2999 29.494 67.0719 29.53C66.8479 29.566 66.6259 29.584 66.4059 29.584C65.9859 29.584 65.5959 29.514 65.2359 29.374C64.8799 29.23 64.5699 29.022 64.3059 28.75C64.0459 28.474 63.8419 28.134 63.6939 27.73C63.5499 27.322 63.4779 26.854 63.4779 26.326C63.4779 25.902 63.5439 25.508 63.6759 25.144C63.8079 24.776 63.9959 24.456 64.2399 24.184C64.4879 23.912 64.7899 23.698 65.1459 23.542C65.5019 23.386 65.9019 23.308 66.3459 23.308C66.7179 23.308 67.0599 23.37 67.3719 23.494C67.6879 23.614 67.9599 23.79 68.1879 24.022C68.4159 24.254 68.5939 24.54 68.7219 24.88C68.8539 25.22 68.9199 25.608 68.9199 26.044C68.9199 26.224 68.8999 26.346 68.8599 26.41C68.8199 26.47 68.7459 26.5 68.6379 26.5H64.6419C64.6539 26.864 64.7059 27.182 64.7979 27.454C64.8899 27.722 65.0159 27.946 65.1759 28.126C65.3399 28.306 65.5339 28.44 65.7579 28.528C65.9819 28.616 66.2319 28.66 66.5079 28.66C66.7679 28.66 66.9919 28.63 67.1799 28.57C67.3719 28.51 67.5359 28.446 67.6719 28.378C67.8119 28.306 67.9279 28.24 68.0199 28.18C68.1159 28.12 68.1999 28.09 68.2719 28.09C68.3679 28.09 68.4419 28.126 68.4939 28.198L68.8299 28.63ZM75.2475 23.404V29.5H74.5455C74.3855 29.5 74.2815 29.422 74.2335 29.266L74.1495 28.654C74.0175 28.794 73.8795 28.922 73.7355 29.038C73.5915 29.154 73.4375 29.254 73.2735 29.338C73.1095 29.418 72.9355 29.48 72.7515 29.524C72.5675 29.572 72.3695 29.596 72.1575 29.596C71.8215 29.596 71.5255 29.54 71.2695 29.428C71.0175 29.316 70.8055 29.16 70.6335 28.96C70.4615 28.756 70.3315 28.512 70.2435 28.228C70.1555 27.944 70.1115 27.63 70.1115 27.286V23.404H71.2875V27.286C71.2875 27.722 71.3875 28.062 71.5875 28.306C71.7875 28.546 72.0935 28.666 72.5055 28.666C72.8055 28.666 73.0855 28.596 73.3455 28.456C73.6055 28.312 73.8495 28.116 74.0775 27.868V23.404H75.2475ZM84.1878 24.544C84.1518 24.588 84.1158 24.624 84.0798 24.652C84.0478 24.676 83.9998 24.688 83.9358 24.688C83.8718 24.688 83.8038 24.664 83.7318 24.616C83.6638 24.564 83.5758 24.51 83.4678 24.454C83.3638 24.394 83.2358 24.34 83.0838 24.292C82.9358 24.24 82.7518 24.214 82.5318 24.214C82.2438 24.214 81.9898 24.266 81.7698 24.37C81.5498 24.474 81.3658 24.622 81.2178 24.814C81.0738 25.006 80.9638 25.24 80.8878 25.516C80.8118 25.792 80.7738 26.102 80.7738 26.446C80.7738 26.802 80.8138 27.12 80.8938 27.4C80.9738 27.676 81.0878 27.91 81.2358 28.102C81.3838 28.29 81.5638 28.434 81.7758 28.534C81.9878 28.63 82.2237 28.678 82.4837 28.678C82.7358 28.678 82.9438 28.648 83.1078 28.588C83.2718 28.524 83.4078 28.456 83.5158 28.384C83.6238 28.312 83.7138 28.246 83.7858 28.186C83.8578 28.122 83.9318 28.09 84.0078 28.09C84.1038 28.09 84.1778 28.126 84.2298 28.198L84.5658 28.63C84.4258 28.802 84.2678 28.948 84.0918 29.068C83.9198 29.188 83.7358 29.286 83.5398 29.362C83.3438 29.438 83.1378 29.494 82.9218 29.53C82.7098 29.566 82.4938 29.584 82.2738 29.584C81.8938 29.584 81.5378 29.514 81.2058 29.374C80.8778 29.234 80.5918 29.03 80.3478 28.762C80.1078 28.494 79.9178 28.166 79.7778 27.778C79.6378 27.386 79.5678 26.942 79.5678 26.446C79.5678 25.994 79.6298 25.576 79.7538 25.192C79.8818 24.808 80.0678 24.478 80.3118 24.202C80.5598 23.922 80.8638 23.704 81.2238 23.548C81.5838 23.388 81.9958 23.308 82.4598 23.308C82.8958 23.308 83.2798 23.378 83.6118 23.518C83.9438 23.658 84.2398 23.856 84.4998 24.112L84.1878 24.544ZM88.9339 26.794C88.4579 26.81 88.0539 26.848 87.7219 26.908C87.3899 26.964 87.1199 27.04 86.9119 27.136C86.7039 27.232 86.5539 27.346 86.4619 27.478C86.3699 27.606 86.3239 27.75 86.3239 27.91C86.3239 28.062 86.3479 28.194 86.3959 28.306C86.4479 28.414 86.5159 28.504 86.5999 28.576C86.6879 28.644 86.7899 28.694 86.9059 28.726C87.0219 28.758 87.1479 28.774 87.2839 28.774C87.4639 28.774 87.6279 28.756 87.7759 28.72C87.9279 28.684 88.0699 28.634 88.2019 28.57C88.3339 28.502 88.4599 28.42 88.5799 28.324C88.6999 28.228 88.8179 28.118 88.9339 27.994V26.794ZM85.5019 24.256C85.8419 23.932 86.2099 23.69 86.6059 23.53C87.0059 23.37 87.4439 23.29 87.9199 23.29C88.2679 23.29 88.5759 23.348 88.8439 23.464C89.1119 23.576 89.3379 23.734 89.5219 23.938C89.7059 24.142 89.8439 24.386 89.9359 24.67C90.0319 24.954 90.0799 25.268 90.0799 25.612V29.5H89.5579C89.4419 29.5 89.3539 29.482 89.2939 29.446C89.2339 29.406 89.1859 29.334 89.1499 29.23L89.0239 28.696C88.8679 28.84 88.7139 28.968 88.5619 29.08C88.4099 29.188 88.2499 29.282 88.0819 29.362C87.9179 29.438 87.7419 29.496 87.5539 29.536C87.3659 29.576 87.1579 29.596 86.9299 29.596C86.6899 29.596 86.4639 29.564 86.2519 29.5C86.0439 29.432 85.8619 29.33 85.7059 29.194C85.5499 29.058 85.4259 28.888 85.3339 28.684C85.2459 28.48 85.2019 28.242 85.2019 27.97C85.2019 27.73 85.2659 27.5 85.3939 27.28C85.5259 27.056 85.7379 26.856 86.0299 26.68C86.3259 26.504 86.7099 26.36 87.1819 26.248C87.6579 26.136 88.2419 26.072 88.9339 26.056V25.612C88.9339 25.152 88.8359 24.808 88.6399 24.58C88.4439 24.352 88.1559 24.238 87.7759 24.238C87.5199 24.238 87.3039 24.27 87.1279 24.334C86.9559 24.398 86.8059 24.47 86.6779 24.55C86.5539 24.626 86.4439 24.696 86.3479 24.76C86.2559 24.824 86.1599 24.856 86.0599 24.856C85.9799 24.856 85.9099 24.834 85.8499 24.79C85.7939 24.746 85.7479 24.694 85.7119 24.634L85.5019 24.256ZM92.7502 24.574C92.9462 24.174 93.1822 23.86 93.4582 23.632C93.7342 23.404 94.0662 23.29 94.4542 23.29C94.5862 23.29 94.7102 23.306 94.8262 23.338C94.9462 23.366 95.0502 23.41 95.1382 23.47L95.0602 24.352C95.0322 24.46 94.9662 24.514 94.8622 24.514C94.8062 24.514 94.7222 24.504 94.6102 24.484C94.4982 24.46 94.3782 24.448 94.2502 24.448C94.0622 24.448 93.8962 24.476 93.7522 24.532C93.6082 24.584 93.4782 24.664 93.3622 24.772C93.2502 24.876 93.1502 25.006 93.0622 25.162C92.9742 25.314 92.8922 25.488 92.8162 25.684V29.5H91.6462V23.404H92.3182C92.4462 23.404 92.5322 23.428 92.5762 23.476C92.6242 23.52 92.6582 23.6 92.6782 23.716L92.7502 24.574ZM97.1448 24.574C97.3408 24.174 97.5768 23.86 97.8528 23.632C98.1288 23.404 98.4608 23.29 98.8488 23.29C98.9808 23.29 99.1048 23.306 99.2208 23.338C99.3408 23.366 99.4448 23.41 99.5328 23.47L99.4548 24.352C99.4268 24.46 99.3608 24.514 99.2568 24.514C99.2008 24.514 99.1168 24.504 99.0048 24.484C98.8928 24.46 98.7728 24.448 98.6448 24.448C98.4568 24.448 98.2908 24.476 98.1468 24.532C98.0028 24.584 97.8728 24.664 97.7568 24.772C97.6448 24.876 97.5448 25.006 97.4568 25.162C97.3688 25.314 97.2868 25.488 97.2108 25.684V29.5H96.0408V23.404H96.7128C96.8408 23.404 96.9268 23.428 96.9708 23.476C97.0188 23.52 97.0528 23.6 97.0728 23.716L97.1448 24.574ZM101.659 23.404V29.5H100.489V23.404H101.659ZM101.881 21.52C101.881 21.628 101.859 21.732 101.815 21.832C101.771 21.928 101.711 22.014 101.635 22.09C101.563 22.162 101.477 22.22 101.377 22.264C101.277 22.304 101.173 22.324 101.065 22.324C100.957 22.324 100.855 22.304 100.759 22.264C100.663 22.22 100.577 22.162 100.501 22.09C100.429 22.014 100.371 21.928 100.327 21.832C100.287 21.732 100.267 21.628 100.267 21.52C100.267 21.408 100.287 21.304 100.327 21.208C100.371 21.108 100.429 21.022 100.501 20.95C100.577 20.874 100.663 20.816 100.759 20.776C100.855 20.732 100.957 20.71 101.065 20.71C101.173 20.71 101.277 20.732 101.377 20.776C101.477 20.816 101.563 20.874 101.635 20.95C101.711 21.022 101.771 21.108 101.815 21.208C101.859 21.304 101.881 21.408 101.881 21.52ZM104.451 24.25C104.583 24.11 104.721 23.982 104.865 23.866C105.009 23.75 105.161 23.652 105.321 23.572C105.485 23.488 105.659 23.424 105.843 23.38C106.031 23.332 106.231 23.308 106.443 23.308C106.779 23.308 107.073 23.364 107.325 23.476C107.581 23.588 107.795 23.746 107.967 23.95C108.139 24.15 108.269 24.392 108.357 24.676C108.445 24.96 108.489 25.274 108.489 25.618V29.5H107.313V25.618C107.313 25.182 107.213 24.844 107.013 24.604C106.813 24.36 106.507 24.238 106.095 24.238C105.795 24.238 105.513 24.31 105.249 24.454C104.989 24.594 104.747 24.786 104.523 25.03V29.5H103.353V23.404H104.055C104.219 23.404 104.321 23.482 104.361 23.638L104.451 24.25ZM111.238 24.178C111.494 23.918 111.776 23.708 112.084 23.548C112.396 23.388 112.754 23.308 113.158 23.308C113.494 23.308 113.788 23.364 114.04 23.476C114.296 23.588 114.51 23.746 114.682 23.95C114.854 24.15 114.984 24.392 115.072 24.676C115.16 24.96 115.204 25.274 115.204 25.618V29.5H114.028V25.618C114.028 25.182 113.928 24.844 113.728 24.604C113.528 24.36 113.222 24.238 112.81 24.238C112.51 24.238 112.228 24.31 111.964 24.454C111.704 24.594 111.462 24.786 111.238 25.03V29.5H110.068V20.644H111.238V24.178ZM119.381 23.308C119.829 23.308 120.233 23.382 120.593 23.53C120.957 23.674 121.265 23.884 121.517 24.16C121.773 24.432 121.969 24.762 122.105 25.15C122.241 25.534 122.309 25.966 122.309 26.446C122.309 26.926 122.241 27.36 122.105 27.748C121.969 28.136 121.773 28.466 121.517 28.738C121.265 29.01 120.957 29.22 120.593 29.368C120.233 29.512 119.829 29.584 119.381 29.584C118.929 29.584 118.521 29.512 118.157 29.368C117.797 29.22 117.489 29.01 117.233 28.738C116.977 28.466 116.779 28.136 116.639 27.748C116.503 27.36 116.435 26.926 116.435 26.446C116.435 25.966 116.503 25.534 116.639 25.15C116.779 24.762 116.977 24.432 117.233 24.16C117.489 23.884 117.797 23.674 118.157 23.53C118.521 23.382 118.929 23.308 119.381 23.308ZM119.381 28.672C119.957 28.672 120.387 28.478 120.671 28.09C120.955 27.702 121.097 27.156 121.097 26.452C121.097 25.748 120.955 25.202 120.671 24.814C120.387 24.422 119.957 24.226 119.381 24.226C118.797 24.226 118.361 24.422 118.073 24.814C117.789 25.202 117.647 25.748 117.647 26.452C117.647 27.156 117.789 27.702 118.073 28.09C118.361 28.478 118.797 28.672 119.381 28.672Z" fill="#141414"/>
</svg>
