<svg width="152" height="50" viewBox="0 0 152 50" fill="none" xmlns="http://www.w3.org/2000/svg">
<rect x="0.5" y="0.5" width="151" height="49" rx="11.5" fill="#F7F7F7"/>
<rect x="0.5" y="0.5" width="151" height="49" rx="11.5" stroke="#EFEFEF"/>
<path d="M38.7112 25.8125L28.625 15.7263C28.4747 15.5748 28.2957 15.4546 28.0985 15.3729C27.9013 15.2911 27.6898 15.2493 27.4763 15.25H18.0625C17.847 15.25 17.6404 15.3356 17.488 15.488C17.3356 15.6404 17.25 15.847 17.25 16.0625V25.4763C17.2493 25.6898 17.2911 25.9013 17.3729 26.0985C17.4546 26.2957 17.5748 26.4747 17.7263 26.625L27.8125 36.7112C27.9634 36.8621 28.1426 36.9818 28.3397 37.0635C28.5369 37.1452 28.7483 37.1873 28.9617 37.1873C29.1751 37.1873 29.3865 37.1452 29.5836 37.0635C29.7808 36.9818 29.96 36.8621 30.1109 36.7112L38.7112 28.1109C38.8621 27.96 38.9818 27.7808 39.0635 27.5836C39.1452 27.3865 39.1873 27.1751 39.1873 26.9617C39.1873 26.7483 39.1452 26.5369 39.0635 26.3397C38.9818 26.1426 38.8621 25.9634 38.7112 25.8125ZM28.9612 35.5625L18.875 25.4763V16.875H27.4763L37.5625 26.9612L28.9612 35.5625ZM23.75 20.5313C23.75 20.7723 23.6785 21.0079 23.5446 21.2084C23.4107 21.4088 23.2204 21.565 22.9977 21.6572C22.775 21.7495 22.5299 21.7736 22.2935 21.7266C22.0571 21.6796 21.8399 21.5635 21.6695 21.393C21.499 21.2226 21.383 21.0054 21.3359 20.769C21.2889 20.5326 21.313 20.2876 21.4053 20.0649C21.4975 19.8422 21.6537 19.6518 21.8542 19.5179C22.0546 19.384 22.2902 19.3125 22.5313 19.3125C22.8545 19.3125 23.1645 19.4409 23.393 19.6695C23.6216 19.898 23.75 20.208 23.75 20.5313Z" fill="#141414"/>
<path d="M62.122 20.884V29.5H61.006V23.368C61.006 23.276 61.008 23.178 61.012 23.074C61.02 22.97 61.028 22.864 61.036 22.756L58.168 28.018C58.068 28.214 57.914 28.312 57.706 28.312H57.526C57.318 28.312 57.166 28.214 57.07 28.018L54.148 22.738C54.172 22.962 54.184 23.172 54.184 23.368V29.5H53.062V20.884H54.01C54.122 20.884 54.208 20.896 54.268 20.92C54.332 20.94 54.392 21 54.448 21.1L57.328 26.26C57.384 26.364 57.436 26.474 57.484 26.59C57.532 26.706 57.578 26.822 57.622 26.938C57.706 26.702 57.804 26.474 57.916 26.254L60.742 21.1C60.794 21 60.85 20.94 60.91 20.92C60.974 20.896 61.062 20.884 61.174 20.884H62.122ZM67.8639 25.774C67.8639 25.542 67.8299 25.328 67.7619 25.132C67.6979 24.936 67.6019 24.766 67.4739 24.622C67.3459 24.478 67.1899 24.366 67.0059 24.286C66.8219 24.206 66.6099 24.166 66.3699 24.166C65.8779 24.166 65.4899 24.308 65.2059 24.592C64.9259 24.876 64.7479 25.27 64.6719 25.774H67.8639ZM68.8299 28.63C68.6859 28.798 68.5199 28.944 68.3319 29.068C68.1439 29.188 67.9439 29.286 67.7319 29.362C67.5199 29.438 67.2999 29.494 67.0719 29.53C66.8479 29.566 66.6259 29.584 66.4059 29.584C65.9859 29.584 65.5959 29.514 65.2359 29.374C64.8799 29.23 64.5699 29.022 64.3059 28.75C64.0459 28.474 63.8419 28.134 63.6939 27.73C63.5499 27.322 63.4779 26.854 63.4779 26.326C63.4779 25.902 63.5439 25.508 63.6759 25.144C63.8079 24.776 63.9959 24.456 64.2399 24.184C64.4879 23.912 64.7899 23.698 65.1459 23.542C65.5019 23.386 65.9019 23.308 66.3459 23.308C66.7179 23.308 67.0599 23.37 67.3719 23.494C67.6879 23.614 67.9599 23.79 68.1879 24.022C68.4159 24.254 68.5939 24.54 68.7219 24.88C68.8539 25.22 68.9199 25.608 68.9199 26.044C68.9199 26.224 68.8999 26.346 68.8599 26.41C68.8199 26.47 68.7459 26.5 68.6379 26.5H64.6419C64.6539 26.864 64.7059 27.182 64.7979 27.454C64.8899 27.722 65.0159 27.946 65.1759 28.126C65.3399 28.306 65.5339 28.44 65.7579 28.528C65.9819 28.616 66.2319 28.66 66.5079 28.66C66.7679 28.66 66.9919 28.63 67.1799 28.57C67.3719 28.51 67.5359 28.446 67.6719 28.378C67.8119 28.306 67.9279 28.24 68.0199 28.18C68.1159 28.12 68.1999 28.09 68.2719 28.09C68.3679 28.09 68.4419 28.126 68.4939 28.198L68.8299 28.63ZM75.2475 23.404V29.5H74.5455C74.3855 29.5 74.2815 29.422 74.2335 29.266L74.1495 28.654C74.0175 28.794 73.8795 28.922 73.7355 29.038C73.5915 29.154 73.4375 29.254 73.2735 29.338C73.1095 29.418 72.9355 29.48 72.7515 29.524C72.5675 29.572 72.3695 29.596 72.1575 29.596C71.8215 29.596 71.5255 29.54 71.2695 29.428C71.0175 29.316 70.8055 29.16 70.6335 28.96C70.4615 28.756 70.3315 28.512 70.2435 28.228C70.1555 27.944 70.1115 27.63 70.1115 27.286V23.404H71.2875V27.286C71.2875 27.722 71.3875 28.062 71.5875 28.306C71.7875 28.546 72.0935 28.666 72.5055 28.666C72.8055 28.666 73.0855 28.596 73.3455 28.456C73.6055 28.312 73.8495 28.116 74.0775 27.868V23.404H75.2475ZM80.4746 24.454C80.4426 24.506 80.4086 24.544 80.3726 24.568C80.3366 24.588 80.2906 24.598 80.2346 24.598C80.1706 24.598 80.0986 24.576 80.0186 24.532C79.9426 24.488 79.8486 24.44 79.7366 24.388C79.6286 24.336 79.5006 24.288 79.3526 24.244C79.2046 24.2 79.0286 24.178 78.8246 24.178C78.6566 24.178 78.5026 24.2 78.3626 24.244C78.2266 24.284 78.1106 24.342 78.0146 24.418C77.9186 24.49 77.8446 24.578 77.7926 24.682C77.7406 24.782 77.7146 24.89 77.7146 25.006C77.7146 25.158 77.7586 25.284 77.8466 25.384C77.9386 25.484 78.0566 25.57 78.2006 25.642C78.3486 25.714 78.5146 25.78 78.6986 25.84C78.8866 25.896 79.0766 25.956 79.2686 26.02C79.4646 26.084 79.6546 26.158 79.8386 26.242C80.0266 26.322 80.1926 26.424 80.3366 26.548C80.4846 26.668 80.6026 26.814 80.6906 26.986C80.7826 27.158 80.8286 27.368 80.8286 27.616C80.8286 27.9 80.7766 28.164 80.6726 28.408C80.5726 28.648 80.4226 28.856 80.2226 29.032C80.0266 29.208 79.7826 29.346 79.4906 29.446C79.1986 29.546 78.8646 29.596 78.4886 29.596C78.0686 29.596 77.6806 29.526 77.3246 29.386C76.9686 29.246 76.6706 29.068 76.4306 28.852L76.7066 28.402C76.7386 28.346 76.7786 28.304 76.8266 28.276C76.8746 28.244 76.9386 28.228 77.0186 28.228C77.0946 28.228 77.1726 28.256 77.2526 28.312C77.3326 28.368 77.4286 28.43 77.5406 28.498C77.6526 28.562 77.7886 28.622 77.9486 28.678C78.1086 28.73 78.3086 28.756 78.5486 28.756C78.7486 28.756 78.9226 28.732 79.0706 28.684C79.2186 28.632 79.3406 28.564 79.4366 28.48C79.5366 28.392 79.6106 28.292 79.6586 28.18C79.7066 28.068 79.7306 27.95 79.7306 27.826C79.7306 27.666 79.6846 27.534 79.5926 27.43C79.5046 27.322 79.3866 27.23 79.2386 27.154C79.0946 27.078 78.9286 27.012 78.7406 26.956C78.5526 26.9 78.3606 26.84 78.1646 26.776C77.9686 26.712 77.7766 26.638 77.5886 26.554C77.4006 26.47 77.2326 26.364 77.0846 26.236C76.9406 26.108 76.8226 25.952 76.7306 25.768C76.6426 25.584 76.5986 25.36 76.5986 25.096C76.5986 24.86 76.6466 24.634 76.7426 24.418C76.8426 24.202 76.9846 24.012 77.1686 23.848C77.3566 23.684 77.5866 23.554 77.8586 23.458C78.1346 23.358 78.4486 23.308 78.8006 23.308C79.2046 23.308 79.5686 23.372 79.8926 23.5C80.2206 23.628 80.5006 23.804 80.7326 24.028L80.4746 24.454ZM88.4066 26.794C87.9306 26.81 87.5266 26.848 87.1946 26.908C86.8626 26.964 86.5926 27.04 86.3846 27.136C86.1766 27.232 86.0266 27.346 85.9346 27.478C85.8426 27.606 85.7966 27.75 85.7966 27.91C85.7966 28.062 85.8206 28.194 85.8686 28.306C85.9206 28.414 85.9886 28.504 86.0726 28.576C86.1606 28.644 86.2626 28.694 86.3786 28.726C86.4946 28.758 86.6206 28.774 86.7566 28.774C86.9366 28.774 87.1006 28.756 87.2486 28.72C87.4006 28.684 87.5426 28.634 87.6746 28.57C87.8066 28.502 87.9326 28.42 88.0526 28.324C88.1726 28.228 88.2906 28.118 88.4066 27.994V26.794ZM84.9746 24.256C85.3146 23.932 85.6826 23.69 86.0786 23.53C86.4786 23.37 86.9166 23.29 87.3926 23.29C87.7406 23.29 88.0486 23.348 88.3166 23.464C88.5846 23.576 88.8106 23.734 88.9946 23.938C89.1786 24.142 89.3166 24.386 89.4086 24.67C89.5046 24.954 89.5526 25.268 89.5526 25.612V29.5H89.0306C88.9146 29.5 88.8266 29.482 88.7666 29.446C88.7066 29.406 88.6586 29.334 88.6226 29.23L88.4966 28.696C88.3406 28.84 88.1866 28.968 88.0346 29.08C87.8826 29.188 87.7226 29.282 87.5546 29.362C87.3906 29.438 87.2146 29.496 87.0266 29.536C86.8386 29.576 86.6306 29.596 86.4026 29.596C86.1626 29.596 85.9366 29.564 85.7246 29.5C85.5166 29.432 85.3346 29.33 85.1786 29.194C85.0226 29.058 84.8986 28.888 84.8066 28.684C84.7186 28.48 84.6746 28.242 84.6746 27.97C84.6746 27.73 84.7386 27.5 84.8666 27.28C84.9986 27.056 85.2106 26.856 85.5026 26.68C85.7986 26.504 86.1826 26.36 86.6546 26.248C87.1306 26.136 87.7146 26.072 88.4066 26.056V25.612C88.4066 25.152 88.3086 24.808 88.1126 24.58C87.9166 24.352 87.6286 24.238 87.2486 24.238C86.9926 24.238 86.7766 24.27 86.6006 24.334C86.4286 24.398 86.2786 24.47 86.1506 24.55C86.0266 24.626 85.9166 24.696 85.8206 24.76C85.7286 24.824 85.6326 24.856 85.5326 24.856C85.4526 24.856 85.3826 24.834 85.3226 24.79C85.2666 24.746 85.2206 24.694 85.1846 24.634L84.9746 24.256ZM92.2169 24.25C92.3489 24.11 92.4869 23.982 92.6309 23.866C92.7749 23.75 92.9269 23.652 93.0869 23.572C93.2509 23.488 93.4249 23.424 93.6089 23.38C93.7969 23.332 93.9969 23.308 94.2089 23.308C94.5449 23.308 94.8389 23.364 95.0909 23.476C95.3469 23.588 95.5609 23.746 95.7329 23.95C95.9049 24.15 96.0349 24.392 96.1229 24.676C96.2109 24.96 96.2549 25.274 96.2549 25.618V29.5H95.0789V25.618C95.0789 25.182 94.9789 24.844 94.7789 24.604C94.5789 24.36 94.2729 24.238 93.8609 24.238C93.5609 24.238 93.2789 24.31 93.0149 24.454C92.7549 24.594 92.5129 24.786 92.2889 25.03V29.5H91.1189V23.404H91.8209C91.9849 23.404 92.0869 23.482 92.1269 23.638L92.2169 24.25ZM102.904 23.404V29.5H102.202C102.042 29.5 101.938 29.422 101.89 29.266L101.806 28.654C101.674 28.794 101.536 28.922 101.392 29.038C101.248 29.154 101.094 29.254 100.93 29.338C100.766 29.418 100.592 29.48 100.408 29.524C100.224 29.572 100.026 29.596 99.8137 29.596C99.4777 29.596 99.1817 29.54 98.9257 29.428C98.6737 29.316 98.4617 29.16 98.2897 28.96C98.1177 28.756 97.9877 28.512 97.8997 28.228C97.8117 27.944 97.7677 27.63 97.7677 27.286V23.404H98.9437V27.286C98.9437 27.722 99.0437 28.062 99.2437 28.306C99.4437 28.546 99.7497 28.666 100.162 28.666C100.462 28.666 100.742 28.596 101.002 28.456C101.262 28.312 101.506 28.116 101.734 27.868V23.404H102.904ZM102.202 20.788L100.78 22.336C100.72 22.404 100.662 22.452 100.606 22.48C100.55 22.504 100.476 22.516 100.384 22.516H99.6757L100.564 21.064C100.62 20.972 100.68 20.904 100.744 20.86C100.812 20.812 100.916 20.788 101.056 20.788H102.202ZM105.635 24.25C105.767 24.11 105.905 23.982 106.049 23.866C106.193 23.75 106.345 23.652 106.505 23.572C106.669 23.488 106.843 23.424 107.027 23.38C107.215 23.332 107.415 23.308 107.627 23.308C107.963 23.308 108.257 23.364 108.509 23.476C108.765 23.588 108.979 23.746 109.151 23.95C109.323 24.15 109.453 24.392 109.541 24.676C109.629 24.96 109.673 25.274 109.673 25.618V29.5H108.497V25.618C108.497 25.182 108.397 24.844 108.197 24.604C107.997 24.36 107.691 24.238 107.279 24.238C106.979 24.238 106.697 24.31 106.433 24.454C106.173 24.594 105.931 24.786 105.707 25.03V29.5H104.537V23.404H105.239C105.403 23.404 105.505 23.482 105.545 23.638L105.635 24.25ZM115.524 24.544C115.488 24.588 115.452 24.624 115.416 24.652C115.384 24.676 115.336 24.688 115.272 24.688C115.208 24.688 115.14 24.664 115.068 24.616C115 24.564 114.912 24.51 114.804 24.454C114.7 24.394 114.572 24.34 114.42 24.292C114.272 24.24 114.088 24.214 113.868 24.214C113.58 24.214 113.326 24.266 113.106 24.37C112.886 24.474 112.702 24.622 112.554 24.814C112.41 25.006 112.3 25.24 112.224 25.516C112.148 25.792 112.11 26.102 112.11 26.446C112.11 26.802 112.15 27.12 112.23 27.4C112.31 27.676 112.424 27.91 112.572 28.102C112.72 28.29 112.9 28.434 113.112 28.534C113.324 28.63 113.56 28.678 113.82 28.678C114.072 28.678 114.28 28.648 114.444 28.588C114.608 28.524 114.744 28.456 114.852 28.384C114.96 28.312 115.05 28.246 115.122 28.186C115.194 28.122 115.268 28.09 115.344 28.09C115.44 28.09 115.514 28.126 115.566 28.198L115.902 28.63C115.762 28.802 115.604 28.948 115.428 29.068C115.256 29.188 115.072 29.286 114.876 29.362C114.68 29.438 114.474 29.494 114.258 29.53C114.046 29.566 113.83 29.584 113.61 29.584C113.23 29.584 112.874 29.514 112.542 29.374C112.214 29.234 111.928 29.03 111.684 28.762C111.444 28.494 111.254 28.166 111.114 27.778C110.974 27.386 110.904 26.942 110.904 26.446C110.904 25.994 110.966 25.576 111.09 25.192C111.218 24.808 111.404 24.478 111.648 24.202C111.896 23.922 112.2 23.704 112.56 23.548C112.92 23.388 113.332 23.308 113.796 23.308C114.232 23.308 114.616 23.378 114.948 23.518C115.28 23.658 115.576 23.856 115.836 24.112L115.524 24.544ZM118.218 23.404V29.5H117.048V23.404H118.218ZM118.44 21.52C118.44 21.628 118.418 21.732 118.374 21.832C118.33 21.928 118.27 22.014 118.194 22.09C118.122 22.162 118.036 22.22 117.936 22.264C117.836 22.304 117.732 22.324 117.624 22.324C117.516 22.324 117.414 22.304 117.318 22.264C117.222 22.22 117.136 22.162 117.06 22.09C116.988 22.014 116.93 21.928 116.886 21.832C116.846 21.732 116.826 21.628 116.826 21.52C116.826 21.408 116.846 21.304 116.886 21.208C116.93 21.108 116.988 21.022 117.06 20.95C117.136 20.874 117.222 20.816 117.318 20.776C117.414 20.732 117.516 20.71 117.624 20.71C117.732 20.71 117.836 20.732 117.936 20.776C118.036 20.816 118.122 20.874 118.194 20.95C118.27 21.022 118.33 21.108 118.374 21.208C118.418 21.304 118.44 21.408 118.44 21.52ZM122.51 23.308C122.958 23.308 123.362 23.382 123.722 23.53C124.086 23.674 124.394 23.884 124.646 24.16C124.902 24.432 125.098 24.762 125.234 25.15C125.37 25.534 125.438 25.966 125.438 26.446C125.438 26.926 125.37 27.36 125.234 27.748C125.098 28.136 124.902 28.466 124.646 28.738C124.394 29.01 124.086 29.22 123.722 29.368C123.362 29.512 122.958 29.584 122.51 29.584C122.058 29.584 121.65 29.512 121.286 29.368C120.926 29.22 120.618 29.01 120.362 28.738C120.106 28.466 119.908 28.136 119.768 27.748C119.632 27.36 119.564 26.926 119.564 26.446C119.564 25.966 119.632 25.534 119.768 25.15C119.908 24.762 120.106 24.432 120.362 24.16C120.618 23.884 120.926 23.674 121.286 23.53C121.65 23.382 122.058 23.308 122.51 23.308ZM122.51 28.672C123.086 28.672 123.516 28.478 123.8 28.09C124.084 27.702 124.226 27.156 124.226 26.452C124.226 25.748 124.084 25.202 123.8 24.814C123.516 24.422 123.086 24.226 122.51 24.226C121.926 24.226 121.49 24.422 121.202 24.814C120.918 25.202 120.776 25.748 120.776 26.452C120.776 27.156 120.918 27.702 121.202 28.09C121.49 28.478 121.926 28.672 122.51 28.672ZM130.338 24.454C130.306 24.506 130.272 24.544 130.236 24.568C130.2 24.588 130.154 24.598 130.098 24.598C130.034 24.598 129.962 24.576 129.882 24.532C129.806 24.488 129.712 24.44 129.6 24.388C129.492 24.336 129.364 24.288 129.216 24.244C129.068 24.2 128.892 24.178 128.688 24.178C128.52 24.178 128.366 24.2 128.226 24.244C128.09 24.284 127.974 24.342 127.878 24.418C127.782 24.49 127.708 24.578 127.656 24.682C127.604 24.782 127.578 24.89 127.578 25.006C127.578 25.158 127.622 25.284 127.71 25.384C127.802 25.484 127.92 25.57 128.064 25.642C128.212 25.714 128.378 25.78 128.562 25.84C128.75 25.896 128.94 25.956 129.132 26.02C129.328 26.084 129.518 26.158 129.702 26.242C129.89 26.322 130.056 26.424 130.2 26.548C130.348 26.668 130.466 26.814 130.554 26.986C130.646 27.158 130.692 27.368 130.692 27.616C130.692 27.9 130.64 28.164 130.536 28.408C130.436 28.648 130.286 28.856 130.086 29.032C129.89 29.208 129.646 29.346 129.354 29.446C129.062 29.546 128.728 29.596 128.352 29.596C127.932 29.596 127.544 29.526 127.188 29.386C126.832 29.246 126.534 29.068 126.294 28.852L126.57 28.402C126.602 28.346 126.642 28.304 126.69 28.276C126.738 28.244 126.802 28.228 126.882 28.228C126.958 28.228 127.036 28.256 127.116 28.312C127.196 28.368 127.292 28.43 127.404 28.498C127.516 28.562 127.652 28.622 127.812 28.678C127.972 28.73 128.172 28.756 128.412 28.756C128.612 28.756 128.786 28.732 128.934 28.684C129.082 28.632 129.204 28.564 129.3 28.48C129.4 28.392 129.474 28.292 129.522 28.18C129.57 28.068 129.594 27.95 129.594 27.826C129.594 27.666 129.548 27.534 129.456 27.43C129.368 27.322 129.25 27.23 129.102 27.154C128.958 27.078 128.792 27.012 128.604 26.956C128.416 26.9 128.224 26.84 128.028 26.776C127.832 26.712 127.64 26.638 127.452 26.554C127.264 26.47 127.096 26.364 126.948 26.236C126.804 26.108 126.686 25.952 126.594 25.768C126.506 25.584 126.462 25.36 126.462 25.096C126.462 24.86 126.51 24.634 126.606 24.418C126.706 24.202 126.848 24.012 127.032 23.848C127.22 23.684 127.45 23.554 127.722 23.458C127.998 23.358 128.312 23.308 128.664 23.308C129.068 23.308 129.432 23.372 129.756 23.5C130.084 23.628 130.364 23.804 130.596 24.028L130.338 24.454Z" fill="#141414"/>
</svg>
