<svg width="149" height="50" viewBox="0 0 149 50" fill="none" xmlns="http://www.w3.org/2000/svg">
<rect x="0.5" y="0.5" width="148" height="49" rx="11.5" fill="#F7F7F7"/>
<rect x="0.5" y="0.5" width="148" height="49" rx="11.5" stroke="#EFEFEF"/>
<path d="M35.1252 25C35.1249 23.7244 34.8241 22.4669 34.2471 21.3293C33.6701 20.1917 32.8331 19.2061 31.8041 18.4523L31.1704 14.9605C31.1026 14.5859 30.9054 14.247 30.6132 14.0029C30.3211 13.7589 29.9525 13.6251 29.5718 13.625H24.4287C24.048 13.6251 23.6794 13.7589 23.3872 14.0029C23.0951 14.247 22.8979 14.5859 22.8301 14.9605L22.1963 18.4523C21.167 19.2058 20.3299 20.1914 19.7528 21.329C19.1757 22.4667 18.875 23.7244 18.875 25C18.875 26.2756 19.1757 27.5333 19.7528 28.671C20.3299 29.8086 21.167 30.7942 22.1963 31.5477L22.8301 35.0395C22.8979 35.4141 23.0951 35.753 23.3872 35.9971C23.6794 36.2411 24.048 36.3749 24.4287 36.375H29.5718C29.9525 36.3749 30.3211 36.2411 30.6132 35.9971C30.9054 35.753 31.1026 35.4141 31.1704 35.0395L31.8041 31.5477C32.8331 30.7939 33.6701 29.8083 34.2471 28.6707C34.8241 27.5331 35.1249 26.2756 35.1252 25ZM24.4287 15.25H29.5718L29.9689 17.4387C28.0611 16.6871 25.9393 16.6871 24.0316 17.4387L24.4287 15.25ZM20.5002 25C20.5002 23.7144 20.8814 22.4577 21.5957 21.3888C22.3099 20.3199 23.3251 19.4868 24.5128 18.9948C25.7005 18.5028 27.0074 18.3741 28.2683 18.6249C29.5292 18.8757 30.6874 19.4948 31.5964 20.4038C32.5055 21.3128 33.1245 22.471 33.3753 23.7319C33.6261 24.9928 33.4974 26.2997 33.0054 27.4874C32.5135 28.6752 31.6804 29.6903 30.6114 30.4046C29.5425 31.1188 28.2858 31.5 27.0002 31.5C25.2769 31.4981 23.6247 30.8127 22.4061 29.5941C21.1875 28.3755 20.5021 26.7233 20.5002 25ZM29.5718 34.75H24.4287L24.0316 32.5613C25.9393 33.3129 28.0611 33.3129 29.9689 32.5613L29.5718 34.75ZM26.1877 25V20.9375C26.1877 20.722 26.2733 20.5153 26.4257 20.363C26.5781 20.2106 26.7847 20.125 27.0002 20.125C27.2157 20.125 27.4224 20.2106 27.5748 20.363C27.7271 20.5153 27.8127 20.722 27.8127 20.9375V24.1875H31.0627C31.2782 24.1875 31.4849 24.2731 31.6373 24.4255C31.7896 24.5778 31.8752 24.7845 31.8752 25C31.8752 25.2155 31.7896 25.4222 31.6373 25.5745C31.4849 25.7269 31.2782 25.8125 31.0627 25.8125H27.0002C26.7847 25.8125 26.5781 25.7269 26.4257 25.5745C26.2733 25.4222 26.1877 25.2155 26.1877 25Z" fill="#141414"/>
<path d="M62.122 20.884V29.5H61.006V23.368C61.006 23.276 61.008 23.178 61.012 23.074C61.02 22.97 61.028 22.864 61.036 22.756L58.168 28.018C58.068 28.214 57.914 28.312 57.706 28.312H57.526C57.318 28.312 57.166 28.214 57.07 28.018L54.148 22.738C54.172 22.962 54.184 23.172 54.184 23.368V29.5H53.062V20.884H54.01C54.122 20.884 54.208 20.896 54.268 20.92C54.332 20.94 54.392 21 54.448 21.1L57.328 26.26C57.384 26.364 57.436 26.474 57.484 26.59C57.532 26.706 57.578 26.822 57.622 26.938C57.706 26.702 57.804 26.474 57.916 26.254L60.742 21.1C60.794 21 60.85 20.94 60.91 20.92C60.974 20.896 61.062 20.884 61.174 20.884H62.122ZM65.1437 23.404V29.5H63.9737V23.404H65.1437ZM65.3657 21.52C65.3657 21.628 65.3437 21.732 65.2997 21.832C65.2557 21.928 65.1957 22.014 65.1197 22.09C65.0477 22.162 64.9617 22.22 64.8617 22.264C64.7617 22.304 64.6577 22.324 64.5497 22.324C64.4417 22.324 64.3397 22.304 64.2437 22.264C64.1477 22.22 64.0617 22.162 63.9857 22.09C63.9137 22.014 63.8557 21.928 63.8117 21.832C63.7717 21.732 63.7517 21.628 63.7517 21.52C63.7517 21.408 63.7717 21.304 63.8117 21.208C63.8557 21.108 63.9137 21.022 63.9857 20.95C64.0617 20.874 64.1477 20.816 64.2437 20.776C64.3397 20.732 64.4417 20.71 64.5497 20.71C64.6577 20.71 64.7617 20.732 64.8617 20.776C64.9617 20.816 65.0477 20.874 65.1197 20.95C65.1957 21.022 65.2557 21.108 65.2997 21.208C65.3437 21.304 65.3657 21.408 65.3657 21.52ZM67.9356 24.25C68.0676 24.11 68.2056 23.982 68.3496 23.866C68.4936 23.75 68.6456 23.652 68.8056 23.572C68.9696 23.488 69.1436 23.424 69.3276 23.38C69.5156 23.332 69.7156 23.308 69.9276 23.308C70.2636 23.308 70.5576 23.364 70.8096 23.476C71.0656 23.588 71.2796 23.746 71.4516 23.95C71.6236 24.15 71.7536 24.392 71.8416 24.676C71.9296 24.96 71.9736 25.274 71.9736 25.618V29.5H70.7976V25.618C70.7976 25.182 70.6976 24.844 70.4976 24.604C70.2976 24.36 69.9916 24.238 69.5796 24.238C69.2796 24.238 68.9976 24.31 68.7336 24.454C68.4736 24.594 68.2316 24.786 68.0076 25.03V29.5H66.8376V23.404H67.5396C67.7036 23.404 67.8056 23.482 67.8456 23.638L67.9356 24.25ZM74.7225 24.178C74.9785 23.918 75.2605 23.708 75.5685 23.548C75.8805 23.388 76.2385 23.308 76.6425 23.308C76.9785 23.308 77.2725 23.364 77.5245 23.476C77.7805 23.588 77.9945 23.746 78.1665 23.95C78.3385 24.15 78.4685 24.392 78.5565 24.676C78.6445 24.96 78.6885 25.274 78.6885 25.618V29.5H77.5125V25.618C77.5125 25.182 77.4125 24.844 77.2125 24.604C77.0125 24.36 76.7065 24.238 76.2945 24.238C75.9945 24.238 75.7125 24.31 75.4485 24.454C75.1885 24.594 74.9465 24.786 74.7225 25.03V29.5H73.5525V20.644H74.7225V24.178ZM83.5433 26.794C83.0673 26.81 82.6633 26.848 82.3313 26.908C81.9993 26.964 81.7293 27.04 81.5213 27.136C81.3133 27.232 81.1633 27.346 81.0713 27.478C80.9793 27.606 80.9333 27.75 80.9333 27.91C80.9333 28.062 80.9573 28.194 81.0053 28.306C81.0573 28.414 81.1253 28.504 81.2093 28.576C81.2973 28.644 81.3993 28.694 81.5153 28.726C81.6313 28.758 81.7573 28.774 81.8933 28.774C82.0733 28.774 82.2373 28.756 82.3853 28.72C82.5373 28.684 82.6793 28.634 82.8113 28.57C82.9433 28.502 83.0693 28.42 83.1893 28.324C83.3093 28.228 83.4273 28.118 83.5433 27.994V26.794ZM80.1113 24.256C80.4513 23.932 80.8193 23.69 81.2153 23.53C81.6153 23.37 82.0533 23.29 82.5293 23.29C82.8773 23.29 83.1853 23.348 83.4533 23.464C83.7213 23.576 83.9473 23.734 84.1313 23.938C84.3153 24.142 84.4533 24.386 84.5453 24.67C84.6413 24.954 84.6893 25.268 84.6893 25.612V29.5H84.1673C84.0513 29.5 83.9633 29.482 83.9033 29.446C83.8433 29.406 83.7953 29.334 83.7593 29.23L83.6333 28.696C83.4773 28.84 83.3233 28.968 83.1713 29.08C83.0193 29.188 82.8593 29.282 82.6913 29.362C82.5273 29.438 82.3513 29.496 82.1633 29.536C81.9753 29.576 81.7673 29.596 81.5393 29.596C81.2993 29.596 81.0733 29.564 80.8613 29.5C80.6533 29.432 80.4713 29.33 80.3153 29.194C80.1593 29.058 80.0353 28.888 79.9433 28.684C79.8553 28.48 79.8113 28.242 79.8113 27.97C79.8113 27.73 79.8753 27.5 80.0033 27.28C80.1353 27.056 80.3473 26.856 80.6393 26.68C80.9353 26.504 81.3193 26.36 81.7913 26.248C82.2673 26.136 82.8513 26.072 83.5433 26.056V25.612C83.5433 25.152 83.4453 24.808 83.2493 24.58C83.0533 24.352 82.7653 24.238 82.3853 24.238C82.1293 24.238 81.9133 24.27 81.7373 24.334C81.5653 24.398 81.4153 24.47 81.2873 24.55C81.1633 24.626 81.0533 24.696 80.9573 24.76C80.8653 24.824 80.7693 24.856 80.6693 24.856C80.5893 24.856 80.5193 24.834 80.4593 24.79C80.4033 24.746 80.3573 24.694 80.3213 24.634L80.1113 24.256ZM93.5628 24.544C93.5268 24.588 93.4908 24.624 93.4548 24.652C93.4228 24.676 93.3748 24.688 93.3108 24.688C93.2468 24.688 93.1788 24.664 93.1068 24.616C93.0388 24.564 92.9508 24.51 92.8428 24.454C92.7388 24.394 92.6108 24.34 92.4588 24.292C92.3108 24.24 92.1268 24.214 91.9068 24.214C91.6188 24.214 91.3648 24.266 91.1448 24.37C90.9248 24.474 90.7408 24.622 90.5928 24.814C90.4488 25.006 90.3388 25.24 90.2628 25.516C90.1868 25.792 90.1488 26.102 90.1488 26.446C90.1488 26.802 90.1888 27.12 90.2688 27.4C90.3488 27.676 90.4628 27.91 90.6108 28.102C90.7588 28.29 90.9388 28.434 91.1508 28.534C91.3628 28.63 91.5987 28.678 91.8587 28.678C92.1108 28.678 92.3188 28.648 92.4828 28.588C92.6468 28.524 92.7828 28.456 92.8908 28.384C92.9988 28.312 93.0888 28.246 93.1608 28.186C93.2328 28.122 93.3068 28.09 93.3828 28.09C93.4788 28.09 93.5528 28.126 93.6048 28.198L93.9408 28.63C93.8008 28.802 93.6428 28.948 93.4668 29.068C93.2948 29.188 93.1108 29.286 92.9148 29.362C92.7188 29.438 92.5128 29.494 92.2968 29.53C92.0848 29.566 91.8688 29.584 91.6488 29.584C91.2688 29.584 90.9128 29.514 90.5808 29.374C90.2528 29.234 89.9668 29.03 89.7228 28.762C89.4828 28.494 89.2928 28.166 89.1528 27.778C89.0128 27.386 88.9428 26.942 88.9428 26.446C88.9428 25.994 89.0048 25.576 89.1288 25.192C89.2568 24.808 89.4428 24.478 89.6868 24.202C89.9348 23.922 90.2388 23.704 90.5988 23.548C90.9588 23.388 91.3708 23.308 91.8348 23.308C92.2708 23.308 92.6548 23.378 92.9868 23.518C93.3188 23.658 93.6148 23.856 93.8748 24.112L93.5628 24.544ZM97.5255 23.308C97.9735 23.308 98.3775 23.382 98.7375 23.53C99.1015 23.674 99.4095 23.884 99.6615 24.16C99.9175 24.432 100.113 24.762 100.249 25.15C100.385 25.534 100.453 25.966 100.453 26.446C100.453 26.926 100.385 27.36 100.249 27.748C100.113 28.136 99.9175 28.466 99.6615 28.738C99.4095 29.01 99.1015 29.22 98.7375 29.368C98.3775 29.512 97.9735 29.584 97.5255 29.584C97.0735 29.584 96.6655 29.512 96.3015 29.368C95.9415 29.22 95.6335 29.01 95.3775 28.738C95.1215 28.466 94.9235 28.136 94.7835 27.748C94.6475 27.36 94.5795 26.926 94.5795 26.446C94.5795 25.966 94.6475 25.534 94.7835 25.15C94.9235 24.762 95.1215 24.432 95.3775 24.16C95.6335 23.884 95.9415 23.674 96.3015 23.53C96.6655 23.382 97.0735 23.308 97.5255 23.308ZM97.5255 28.672C98.1015 28.672 98.5315 28.478 98.8155 28.09C99.0995 27.702 99.2415 27.156 99.2415 26.452C99.2415 25.748 99.0995 25.202 98.8155 24.814C98.5315 24.422 98.1015 24.226 97.5255 24.226C96.9415 24.226 96.5055 24.422 96.2175 24.814C95.9335 25.202 95.7915 25.748 95.7915 26.452C95.7915 27.156 95.9335 27.702 96.2175 28.09C96.5055 28.478 96.9415 28.672 97.5255 28.672ZM102.96 20.644V29.5H101.784V20.644H102.96ZM108.669 25.774C108.669 25.542 108.635 25.328 108.567 25.132C108.503 24.936 108.407 24.766 108.279 24.622C108.151 24.478 107.995 24.366 107.811 24.286C107.627 24.206 107.415 24.166 107.175 24.166C106.683 24.166 106.295 24.308 106.011 24.592C105.731 24.876 105.553 25.27 105.477 25.774H108.669ZM109.635 28.63C109.491 28.798 109.325 28.944 109.137 29.068C108.949 29.188 108.749 29.286 108.537 29.362C108.325 29.438 108.105 29.494 107.877 29.53C107.653 29.566 107.431 29.584 107.211 29.584C106.791 29.584 106.401 29.514 106.041 29.374C105.685 29.23 105.375 29.022 105.111 28.75C104.851 28.474 104.647 28.134 104.499 27.73C104.355 27.322 104.283 26.854 104.283 26.326C104.283 25.902 104.349 25.508 104.481 25.144C104.613 24.776 104.801 24.456 105.045 24.184C105.293 23.912 105.595 23.698 105.951 23.542C106.307 23.386 106.707 23.308 107.151 23.308C107.523 23.308 107.865 23.37 108.177 23.494C108.493 23.614 108.765 23.79 108.993 24.022C109.221 24.254 109.399 24.54 109.527 24.88C109.659 25.22 109.725 25.608 109.725 26.044C109.725 26.224 109.705 26.346 109.665 26.41C109.625 26.47 109.551 26.5 109.443 26.5H105.447C105.459 26.864 105.511 27.182 105.603 27.454C105.695 27.722 105.821 27.946 105.981 28.126C106.145 28.306 106.339 28.44 106.563 28.528C106.787 28.616 107.037 28.66 107.313 28.66C107.573 28.66 107.797 28.63 107.985 28.57C108.177 28.51 108.341 28.446 108.477 28.378C108.617 28.306 108.733 28.24 108.825 28.18C108.921 28.12 109.005 28.09 109.077 28.09C109.173 28.09 109.247 28.126 109.299 28.198L109.635 28.63ZM115.632 28.63C115.392 28.926 115.104 29.148 114.768 29.296C114.436 29.444 114.084 29.534 113.712 29.566L113.61 29.926C113.982 30.006 114.248 30.116 114.408 30.256C114.568 30.4 114.648 30.58 114.648 30.796C114.648 30.928 114.614 31.046 114.546 31.15C114.482 31.254 114.392 31.342 114.276 31.414C114.16 31.486 114.018 31.542 113.85 31.582C113.686 31.622 113.506 31.642 113.31 31.642C113.146 31.642 112.99 31.626 112.842 31.594C112.698 31.566 112.562 31.524 112.434 31.468L112.542 31.102C112.566 31.026 112.616 30.988 112.692 30.988C112.716 30.988 112.742 30.994 112.77 31.006C112.802 31.022 112.84 31.036 112.884 31.048C112.928 31.064 112.978 31.078 113.034 31.09C113.094 31.106 113.164 31.114 113.244 31.114C113.404 31.114 113.524 31.082 113.604 31.018C113.684 30.954 113.724 30.874 113.724 30.778C113.724 30.634 113.642 30.532 113.478 30.472C113.318 30.416 113.086 30.368 112.782 30.328L113.034 29.566C112.69 29.53 112.372 29.434 112.08 29.278C111.788 29.122 111.534 28.912 111.318 28.648C111.106 28.38 110.938 28.062 110.814 27.694C110.694 27.326 110.634 26.91 110.634 26.446C110.634 25.994 110.696 25.576 110.82 25.192C110.948 24.808 111.134 24.478 111.378 24.202C111.626 23.922 111.93 23.704 112.29 23.548C112.65 23.388 113.062 23.308 113.526 23.308C113.962 23.308 114.346 23.378 114.678 23.518C115.01 23.658 115.306 23.856 115.566 24.112L115.254 24.544C115.218 24.588 115.182 24.624 115.146 24.652C115.114 24.676 115.066 24.688 115.002 24.688C114.938 24.688 114.87 24.664 114.798 24.616C114.73 24.564 114.642 24.51 114.534 24.454C114.43 24.394 114.302 24.34 114.15 24.292C114.002 24.24 113.818 24.214 113.598 24.214C113.31 24.214 113.056 24.266 112.836 24.37C112.616 24.474 112.432 24.622 112.284 24.814C112.14 25.006 112.03 25.24 111.954 25.516C111.878 25.792 111.84 26.102 111.84 26.446C111.84 26.802 111.88 27.12 111.96 27.4C112.04 27.676 112.154 27.91 112.302 28.102C112.45 28.29 112.63 28.434 112.842 28.534C113.054 28.63 113.29 28.678 113.55 28.678C113.802 28.678 114.01 28.648 114.174 28.588C114.338 28.524 114.474 28.456 114.582 28.384C114.69 28.312 114.78 28.246 114.852 28.186C114.924 28.122 114.998 28.09 115.074 28.09C115.17 28.09 115.244 28.126 115.296 28.198L115.632 28.63ZM120 26.794C119.524 26.81 119.12 26.848 118.788 26.908C118.456 26.964 118.186 27.04 117.978 27.136C117.77 27.232 117.62 27.346 117.528 27.478C117.436 27.606 117.39 27.75 117.39 27.91C117.39 28.062 117.414 28.194 117.462 28.306C117.514 28.414 117.582 28.504 117.666 28.576C117.754 28.644 117.856 28.694 117.972 28.726C118.088 28.758 118.214 28.774 118.35 28.774C118.53 28.774 118.694 28.756 118.842 28.72C118.994 28.684 119.136 28.634 119.268 28.57C119.4 28.502 119.526 28.42 119.646 28.324C119.766 28.228 119.884 28.118 120 27.994V26.794ZM116.568 24.256C116.908 23.932 117.276 23.69 117.672 23.53C118.072 23.37 118.51 23.29 118.986 23.29C119.334 23.29 119.642 23.348 119.91 23.464C120.178 23.576 120.404 23.734 120.588 23.938C120.772 24.142 120.91 24.386 121.002 24.67C121.098 24.954 121.146 25.268 121.146 25.612V29.5H120.624C120.508 29.5 120.42 29.482 120.36 29.446C120.3 29.406 120.252 29.334 120.216 29.23L120.09 28.696C119.934 28.84 119.78 28.968 119.628 29.08C119.476 29.188 119.316 29.282 119.148 29.362C118.984 29.438 118.808 29.496 118.62 29.536C118.432 29.576 118.224 29.596 117.996 29.596C117.756 29.596 117.53 29.564 117.318 29.5C117.11 29.432 116.928 29.33 116.772 29.194C116.616 29.058 116.492 28.888 116.4 28.684C116.312 28.48 116.268 28.242 116.268 27.97C116.268 27.73 116.332 27.5 116.46 27.28C116.592 27.056 116.804 26.856 117.096 26.68C117.392 26.504 117.776 26.36 118.248 26.248C118.724 26.136 119.308 26.072 120 26.056V25.612C120 25.152 119.902 24.808 119.706 24.58C119.51 24.352 119.222 24.238 118.842 24.238C118.586 24.238 118.37 24.27 118.194 24.334C118.022 24.398 117.872 24.47 117.744 24.55C117.62 24.626 117.51 24.696 117.414 24.76C117.322 24.824 117.226 24.856 117.126 24.856C117.046 24.856 116.976 24.834 116.916 24.79C116.86 24.746 116.814 24.694 116.778 24.634L116.568 24.256ZM119.514 21.496C119.65 21.496 119.754 21.456 119.826 21.376C119.902 21.296 119.942 21.168 119.946 20.992H120.66C120.66 21.192 120.632 21.374 120.576 21.538C120.524 21.702 120.45 21.844 120.354 21.964C120.258 22.08 120.142 22.17 120.006 22.234C119.87 22.298 119.72 22.33 119.556 22.33C119.416 22.33 119.284 22.302 119.16 22.246C119.04 22.19 118.926 22.128 118.818 22.06C118.71 21.992 118.606 21.93 118.506 21.874C118.41 21.818 118.318 21.79 118.23 21.79C118.098 21.79 117.994 21.832 117.918 21.916C117.846 22 117.808 22.128 117.804 22.3H117.078C117.078 22.104 117.104 21.924 117.156 21.76C117.212 21.592 117.29 21.45 117.39 21.334C117.49 21.218 117.606 21.128 117.738 21.064C117.874 20.996 118.024 20.962 118.188 20.962C118.332 20.962 118.464 20.99 118.584 21.046C118.708 21.102 118.824 21.164 118.932 21.232C119.04 21.296 119.142 21.356 119.238 21.412C119.334 21.468 119.426 21.496 119.514 21.496ZM125.311 23.308C125.759 23.308 126.163 23.382 126.523 23.53C126.887 23.674 127.195 23.884 127.447 24.16C127.703 24.432 127.899 24.762 128.035 25.15C128.171 25.534 128.239 25.966 128.239 26.446C128.239 26.926 128.171 27.36 128.035 27.748C127.899 28.136 127.703 28.466 127.447 28.738C127.195 29.01 126.887 29.22 126.523 29.368C126.163 29.512 125.759 29.584 125.311 29.584C124.859 29.584 124.451 29.512 124.087 29.368C123.727 29.22 123.419 29.01 123.163 28.738C122.907 28.466 122.709 28.136 122.569 27.748C122.433 27.36 122.365 26.926 122.365 26.446C122.365 25.966 122.433 25.534 122.569 25.15C122.709 24.762 122.907 24.432 123.163 24.16C123.419 23.884 123.727 23.674 124.087 23.53C124.451 23.382 124.859 23.308 125.311 23.308ZM125.311 28.672C125.887 28.672 126.317 28.478 126.601 28.09C126.885 27.702 127.027 27.156 127.027 26.452C127.027 25.748 126.885 25.202 126.601 24.814C126.317 24.422 125.887 24.226 125.311 24.226C124.727 24.226 124.291 24.422 124.003 24.814C123.719 25.202 123.577 25.748 123.577 26.452C123.577 27.156 123.719 27.702 124.003 28.09C124.291 28.478 124.727 28.672 125.311 28.672Z" fill="#141414"/>
</svg>
