<svg width="159" height="50" viewBox="0 0 159 50" fill="none" xmlns="http://www.w3.org/2000/svg">
<rect x="0.5" y="0.5" width="158" height="49" rx="11.5" fill="#F7F7F7"/>
<rect x="0.5" y="0.5" width="158" height="49" rx="11.5" stroke="#EFEFEF"/>
<path d="M35.9375 16.0625H18.0625C17.6315 16.0625 17.2182 16.2337 16.9135 16.5385C16.6087 16.8432 16.4375 17.2565 16.4375 17.6875V32.3125C16.4375 32.7435 16.6087 33.1568 16.9135 33.4615C17.2182 33.7663 17.6315 33.9375 18.0625 33.9375H35.9375C36.3685 33.9375 36.7818 33.7663 37.0865 33.4615C37.3913 33.1568 37.5625 32.7435 37.5625 32.3125V17.6875C37.5625 17.2565 37.3913 16.8432 37.0865 16.5385C36.7818 16.2337 36.3685 16.0625 35.9375 16.0625ZM35.9375 32.3125H18.0625V17.6875H35.9375V32.3125ZM31.875 20.9375C31.875 22.2304 31.3614 23.4704 30.4471 24.3846C29.5329 25.2989 28.2929 25.8125 27 25.8125C25.7071 25.8125 24.4671 25.2989 23.5529 24.3846C22.6386 23.4704 22.125 22.2304 22.125 20.9375C22.125 20.722 22.2106 20.5153 22.363 20.363C22.5153 20.2106 22.722 20.125 22.9375 20.125C23.153 20.125 23.3597 20.2106 23.512 20.363C23.6644 20.5153 23.75 20.722 23.75 20.9375C23.75 21.7995 24.0924 22.6261 24.7019 23.2356C25.3114 23.8451 26.138 24.1875 27 24.1875C27.862 24.1875 28.6886 23.8451 29.2981 23.2356C29.9076 22.6261 30.25 21.7995 30.25 20.9375C30.25 20.722 30.3356 20.5153 30.488 20.363C30.6403 20.2106 30.847 20.125 31.0625 20.125C31.278 20.125 31.4847 20.2106 31.637 20.363C31.7894 20.5153 31.875 20.722 31.875 20.9375Z" fill="#141414"/>
<path d="M62.122 20.884V29.5H61.006V23.368C61.006 23.276 61.008 23.178 61.012 23.074C61.02 22.97 61.028 22.864 61.036 22.756L58.168 28.018C58.068 28.214 57.914 28.312 57.706 28.312H57.526C57.318 28.312 57.166 28.214 57.07 28.018L54.148 22.738C54.172 22.962 54.184 23.172 54.184 23.368V29.5H53.062V20.884H54.01C54.122 20.884 54.208 20.896 54.268 20.92C54.332 20.94 54.392 21 54.448 21.1L57.328 26.26C57.384 26.364 57.436 26.474 57.484 26.59C57.532 26.706 57.578 26.822 57.622 26.938C57.706 26.702 57.804 26.474 57.916 26.254L60.742 21.1C60.794 21 60.85 20.94 60.91 20.92C60.974 20.896 61.062 20.884 61.174 20.884H62.122ZM65.1437 23.404V29.5H63.9737V23.404H65.1437ZM65.3657 21.52C65.3657 21.628 65.3437 21.732 65.2997 21.832C65.2557 21.928 65.1957 22.014 65.1197 22.09C65.0477 22.162 64.9617 22.22 64.8617 22.264C64.7617 22.304 64.6577 22.324 64.5497 22.324C64.4417 22.324 64.3397 22.304 64.2437 22.264C64.1477 22.22 64.0617 22.162 63.9857 22.09C63.9137 22.014 63.8557 21.928 63.8117 21.832C63.7717 21.732 63.7517 21.628 63.7517 21.52C63.7517 21.408 63.7717 21.304 63.8117 21.208C63.8557 21.108 63.9137 21.022 63.9857 20.95C64.0617 20.874 64.1477 20.816 64.2437 20.776C64.3397 20.732 64.4417 20.71 64.5497 20.71C64.6577 20.71 64.7617 20.732 64.8617 20.776C64.9617 20.816 65.0477 20.874 65.1197 20.95C65.1957 21.022 65.2557 21.108 65.2997 21.208C65.3437 21.304 65.3657 21.408 65.3657 21.52ZM67.9356 24.25C68.0676 24.11 68.2056 23.982 68.3496 23.866C68.4936 23.75 68.6456 23.652 68.8056 23.572C68.9696 23.488 69.1436 23.424 69.3276 23.38C69.5156 23.332 69.7156 23.308 69.9276 23.308C70.2636 23.308 70.5576 23.364 70.8096 23.476C71.0656 23.588 71.2796 23.746 71.4516 23.95C71.6236 24.15 71.7536 24.392 71.8416 24.676C71.9296 24.96 71.9736 25.274 71.9736 25.618V29.5H70.7976V25.618C70.7976 25.182 70.6976 24.844 70.4976 24.604C70.2976 24.36 69.9916 24.238 69.5796 24.238C69.2796 24.238 68.9976 24.31 68.7336 24.454C68.4736 24.594 68.2316 24.786 68.0076 25.03V29.5H66.8376V23.404H67.5396C67.7036 23.404 67.8056 23.482 67.8456 23.638L67.9356 24.25ZM74.7225 24.178C74.9785 23.918 75.2605 23.708 75.5685 23.548C75.8805 23.388 76.2385 23.308 76.6425 23.308C76.9785 23.308 77.2725 23.364 77.5245 23.476C77.7805 23.588 77.9945 23.746 78.1665 23.95C78.3385 24.15 78.4685 24.392 78.5565 24.676C78.6445 24.96 78.6885 25.274 78.6885 25.618V29.5H77.5125V25.618C77.5125 25.182 77.4125 24.844 77.2125 24.604C77.0125 24.36 76.7065 24.238 76.2945 24.238C75.9945 24.238 75.7125 24.31 75.4485 24.454C75.1885 24.594 74.9465 24.786 74.7225 25.03V29.5H73.5525V20.644H74.7225V24.178ZM83.5433 26.794C83.0673 26.81 82.6633 26.848 82.3313 26.908C81.9993 26.964 81.7293 27.04 81.5213 27.136C81.3133 27.232 81.1633 27.346 81.0713 27.478C80.9793 27.606 80.9333 27.75 80.9333 27.91C80.9333 28.062 80.9573 28.194 81.0053 28.306C81.0573 28.414 81.1253 28.504 81.2093 28.576C81.2973 28.644 81.3993 28.694 81.5153 28.726C81.6313 28.758 81.7573 28.774 81.8933 28.774C82.0733 28.774 82.2373 28.756 82.3853 28.72C82.5373 28.684 82.6793 28.634 82.8113 28.57C82.9433 28.502 83.0693 28.42 83.1893 28.324C83.3093 28.228 83.4273 28.118 83.5433 27.994V26.794ZM80.1113 24.256C80.4513 23.932 80.8193 23.69 81.2153 23.53C81.6153 23.37 82.0533 23.29 82.5293 23.29C82.8773 23.29 83.1853 23.348 83.4533 23.464C83.7213 23.576 83.9473 23.734 84.1313 23.938C84.3153 24.142 84.4533 24.386 84.5453 24.67C84.6413 24.954 84.6893 25.268 84.6893 25.612V29.5H84.1673C84.0513 29.5 83.9633 29.482 83.9033 29.446C83.8433 29.406 83.7953 29.334 83.7593 29.23L83.6333 28.696C83.4773 28.84 83.3233 28.968 83.1713 29.08C83.0193 29.188 82.8593 29.282 82.6913 29.362C82.5273 29.438 82.3513 29.496 82.1633 29.536C81.9753 29.576 81.7673 29.596 81.5393 29.596C81.2993 29.596 81.0733 29.564 80.8613 29.5C80.6533 29.432 80.4713 29.33 80.3153 29.194C80.1593 29.058 80.0353 28.888 79.9433 28.684C79.8553 28.48 79.8113 28.242 79.8113 27.97C79.8113 27.73 79.8753 27.5 80.0033 27.28C80.1353 27.056 80.3473 26.856 80.6393 26.68C80.9353 26.504 81.3193 26.36 81.7913 26.248C82.2673 26.136 82.8513 26.072 83.5433 26.056V25.612C83.5433 25.152 83.4453 24.808 83.2493 24.58C83.0533 24.352 82.7653 24.238 82.3853 24.238C82.1293 24.238 81.9133 24.27 81.7373 24.334C81.5653 24.398 81.4153 24.47 81.2873 24.55C81.1633 24.626 81.0533 24.696 80.9573 24.76C80.8653 24.824 80.7693 24.856 80.6693 24.856C80.5893 24.856 80.5193 24.834 80.4593 24.79C80.4033 24.746 80.3573 24.694 80.3213 24.634L80.1113 24.256ZM89.8496 24.454C89.8176 24.506 89.7836 24.544 89.7476 24.568C89.7116 24.588 89.6656 24.598 89.6096 24.598C89.5456 24.598 89.4736 24.576 89.3936 24.532C89.3176 24.488 89.2236 24.44 89.1116 24.388C89.0036 24.336 88.8756 24.288 88.7276 24.244C88.5796 24.2 88.4036 24.178 88.1996 24.178C88.0316 24.178 87.8776 24.2 87.7376 24.244C87.6016 24.284 87.4856 24.342 87.3896 24.418C87.2936 24.49 87.2196 24.578 87.1676 24.682C87.1156 24.782 87.0896 24.89 87.0896 25.006C87.0896 25.158 87.1336 25.284 87.2216 25.384C87.3136 25.484 87.4316 25.57 87.5756 25.642C87.7236 25.714 87.8896 25.78 88.0736 25.84C88.2616 25.896 88.4516 25.956 88.6436 26.02C88.8396 26.084 89.0296 26.158 89.2136 26.242C89.4016 26.322 89.5676 26.424 89.7116 26.548C89.8596 26.668 89.9776 26.814 90.0656 26.986C90.1576 27.158 90.2036 27.368 90.2036 27.616C90.2036 27.9 90.1516 28.164 90.0476 28.408C89.9476 28.648 89.7976 28.856 89.5976 29.032C89.4016 29.208 89.1576 29.346 88.8656 29.446C88.5736 29.546 88.2396 29.596 87.8636 29.596C87.4436 29.596 87.0556 29.526 86.6996 29.386C86.3436 29.246 86.0456 29.068 85.8056 28.852L86.0816 28.402C86.1136 28.346 86.1536 28.304 86.2016 28.276C86.2496 28.244 86.3136 28.228 86.3936 28.228C86.4696 28.228 86.5476 28.256 86.6276 28.312C86.7076 28.368 86.8036 28.43 86.9156 28.498C87.0276 28.562 87.1636 28.622 87.3236 28.678C87.4836 28.73 87.6836 28.756 87.9236 28.756C88.1236 28.756 88.2976 28.732 88.4456 28.684C88.5936 28.632 88.7156 28.564 88.8116 28.48C88.9116 28.392 88.9856 28.292 89.0336 28.18C89.0816 28.068 89.1056 27.95 89.1056 27.826C89.1056 27.666 89.0596 27.534 88.9676 27.43C88.8796 27.322 88.7616 27.23 88.6136 27.154C88.4696 27.078 88.3036 27.012 88.1156 26.956C87.9276 26.9 87.7356 26.84 87.5396 26.776C87.3436 26.712 87.1516 26.638 86.9636 26.554C86.7756 26.47 86.6076 26.364 86.4596 26.236C86.3156 26.108 86.1976 25.952 86.1056 25.768C86.0176 25.584 85.9736 25.36 85.9736 25.096C85.9736 24.86 86.0216 24.634 86.1176 24.418C86.2176 24.202 86.3596 24.012 86.5436 23.848C86.7316 23.684 86.9616 23.554 87.2336 23.458C87.5096 23.358 87.8236 23.308 88.1756 23.308C88.5796 23.308 88.9436 23.372 89.2676 23.5C89.5956 23.628 89.8756 23.804 90.1076 24.028L89.8496 24.454ZM98.7776 24.544C98.7416 24.588 98.7056 24.624 98.6696 24.652C98.6376 24.676 98.5896 24.688 98.5256 24.688C98.4616 24.688 98.3936 24.664 98.3216 24.616C98.2536 24.564 98.1656 24.51 98.0576 24.454C97.9536 24.394 97.8256 24.34 97.6736 24.292C97.5256 24.24 97.3416 24.214 97.1216 24.214C96.8336 24.214 96.5796 24.266 96.3596 24.37C96.1396 24.474 95.9556 24.622 95.8076 24.814C95.6636 25.006 95.5536 25.24 95.4776 25.516C95.4016 25.792 95.3636 26.102 95.3636 26.446C95.3636 26.802 95.4036 27.12 95.4836 27.4C95.5636 27.676 95.6776 27.91 95.8256 28.102C95.9736 28.29 96.1536 28.434 96.3656 28.534C96.5776 28.63 96.8136 28.678 97.0736 28.678C97.3256 28.678 97.5336 28.648 97.6976 28.588C97.8616 28.524 97.9976 28.456 98.1056 28.384C98.2136 28.312 98.3036 28.246 98.3756 28.186C98.4476 28.122 98.5216 28.09 98.5976 28.09C98.6936 28.09 98.7676 28.126 98.8196 28.198L99.1556 28.63C99.0156 28.802 98.8576 28.948 98.6816 29.068C98.5096 29.188 98.3256 29.286 98.1296 29.362C97.9336 29.438 97.7276 29.494 97.5116 29.53C97.2996 29.566 97.0836 29.584 96.8636 29.584C96.4836 29.584 96.1276 29.514 95.7956 29.374C95.4676 29.234 95.1816 29.03 94.9376 28.762C94.6976 28.494 94.5076 28.166 94.3676 27.778C94.2276 27.386 94.1576 26.942 94.1576 26.446C94.1576 25.994 94.2196 25.576 94.3436 25.192C94.4716 24.808 94.6576 24.478 94.9016 24.202C95.1496 23.922 95.4536 23.704 95.8136 23.548C96.1736 23.388 96.5856 23.308 97.0496 23.308C97.4856 23.308 97.8696 23.378 98.2016 23.518C98.5336 23.658 98.8296 23.856 99.0896 24.112L98.7776 24.544ZM102.74 23.308C103.188 23.308 103.592 23.382 103.952 23.53C104.316 23.674 104.624 23.884 104.876 24.16C105.132 24.432 105.328 24.762 105.464 25.15C105.6 25.534 105.668 25.966 105.668 26.446C105.668 26.926 105.6 27.36 105.464 27.748C105.328 28.136 105.132 28.466 104.876 28.738C104.624 29.01 104.316 29.22 103.952 29.368C103.592 29.512 103.188 29.584 102.74 29.584C102.288 29.584 101.88 29.512 101.516 29.368C101.156 29.22 100.848 29.01 100.592 28.738C100.336 28.466 100.138 28.136 99.9983 27.748C99.8623 27.36 99.7943 26.926 99.7943 26.446C99.7943 25.966 99.8623 25.534 99.9983 25.15C100.138 24.762 100.336 24.432 100.592 24.16C100.848 23.884 101.156 23.674 101.516 23.53C101.88 23.382 102.288 23.308 102.74 23.308ZM102.74 28.672C103.316 28.672 103.746 28.478 104.03 28.09C104.314 27.702 104.456 27.156 104.456 26.452C104.456 25.748 104.314 25.202 104.03 24.814C103.746 24.422 103.316 24.226 102.74 24.226C102.156 24.226 101.72 24.422 101.432 24.814C101.148 25.202 101.006 25.748 101.006 26.452C101.006 27.156 101.148 27.702 101.432 28.09C101.72 28.478 102.156 28.672 102.74 28.672ZM106.974 29.5V23.404H107.676C107.84 23.404 107.942 23.482 107.982 23.638L108.066 24.22C108.29 23.952 108.538 23.734 108.81 23.566C109.086 23.394 109.408 23.308 109.776 23.308C110.18 23.308 110.508 23.42 110.76 23.644C111.012 23.864 111.196 24.164 111.312 24.544C111.4 24.328 111.514 24.142 111.654 23.986C111.794 23.83 111.95 23.702 112.122 23.602C112.294 23.502 112.476 23.428 112.668 23.38C112.864 23.332 113.062 23.308 113.262 23.308C113.586 23.308 113.874 23.36 114.126 23.464C114.382 23.564 114.598 23.712 114.774 23.908C114.95 24.104 115.084 24.346 115.176 24.634C115.268 24.922 115.314 25.25 115.314 25.618V29.5H114.138V25.618C114.138 25.162 114.038 24.818 113.838 24.586C113.642 24.354 113.354 24.238 112.974 24.238C112.806 24.238 112.646 24.268 112.494 24.328C112.342 24.384 112.208 24.47 112.092 24.586C111.98 24.702 111.89 24.846 111.822 25.018C111.758 25.19 111.726 25.39 111.726 25.618V29.5H110.55V25.618C110.55 25.146 110.456 24.798 110.268 24.574C110.08 24.35 109.804 24.238 109.44 24.238C109.188 24.238 108.954 24.304 108.738 24.436C108.522 24.568 108.324 24.748 108.144 24.976V29.5H106.974ZM118.058 28C118.25 28.252 118.456 28.428 118.676 28.528C118.9 28.628 119.15 28.678 119.426 28.678C119.962 28.678 120.376 28.486 120.668 28.102C120.964 27.714 121.112 27.15 121.112 26.41C121.112 26.022 121.078 25.692 121.01 25.42C120.946 25.144 120.85 24.92 120.722 24.748C120.598 24.572 120.444 24.444 120.26 24.364C120.076 24.28 119.868 24.238 119.636 24.238C119.296 24.238 119 24.314 118.748 24.466C118.5 24.618 118.27 24.834 118.058 25.114V28ZM117.998 24.316C118.126 24.164 118.262 24.026 118.406 23.902C118.554 23.774 118.712 23.666 118.88 23.578C119.048 23.486 119.226 23.416 119.414 23.368C119.606 23.316 119.81 23.29 120.026 23.29C120.374 23.29 120.688 23.358 120.968 23.494C121.252 23.63 121.494 23.83 121.694 24.094C121.894 24.358 122.048 24.684 122.156 25.072C122.268 25.46 122.324 25.906 122.324 26.41C122.324 26.862 122.262 27.282 122.138 27.67C122.018 28.054 121.844 28.388 121.616 28.672C121.392 28.956 121.116 29.18 120.788 29.344C120.464 29.504 120.098 29.584 119.69 29.584C119.326 29.584 119.014 29.524 118.754 29.404C118.494 29.284 118.262 29.116 118.058 28.9V31.546H116.888V23.404H117.59C117.754 23.404 117.856 23.482 117.896 23.638L117.998 24.316ZM124.742 24.574C124.938 24.174 125.174 23.86 125.45 23.632C125.726 23.404 126.058 23.29 126.446 23.29C126.578 23.29 126.702 23.306 126.818 23.338C126.938 23.366 127.042 23.41 127.13 23.47L127.052 24.352C127.024 24.46 126.958 24.514 126.854 24.514C126.798 24.514 126.714 24.504 126.602 24.484C126.49 24.46 126.37 24.448 126.242 24.448C126.054 24.448 125.888 24.476 125.744 24.532C125.6 24.584 125.47 24.664 125.354 24.772C125.242 24.876 125.142 25.006 125.054 25.162C124.966 25.314 124.884 25.488 124.808 25.684V29.5H123.638V23.404H124.31C124.438 23.404 124.524 23.428 124.568 23.476C124.616 23.52 124.65 23.6 124.67 23.716L124.742 24.574ZM131.215 26.794C130.739 26.81 130.335 26.848 130.003 26.908C129.671 26.964 129.401 27.04 129.193 27.136C128.985 27.232 128.835 27.346 128.743 27.478C128.651 27.606 128.605 27.75 128.605 27.91C128.605 28.062 128.629 28.194 128.677 28.306C128.729 28.414 128.797 28.504 128.881 28.576C128.969 28.644 129.071 28.694 129.187 28.726C129.303 28.758 129.429 28.774 129.565 28.774C129.745 28.774 129.909 28.756 130.057 28.72C130.209 28.684 130.351 28.634 130.483 28.57C130.615 28.502 130.741 28.42 130.861 28.324C130.981 28.228 131.099 28.118 131.215 27.994V26.794ZM127.783 24.256C128.123 23.932 128.491 23.69 128.887 23.53C129.287 23.37 129.725 23.29 130.201 23.29C130.549 23.29 130.857 23.348 131.125 23.464C131.393 23.576 131.619 23.734 131.803 23.938C131.987 24.142 132.125 24.386 132.217 24.67C132.313 24.954 132.361 25.268 132.361 25.612V29.5H131.839C131.723 29.5 131.635 29.482 131.575 29.446C131.515 29.406 131.467 29.334 131.431 29.23L131.305 28.696C131.149 28.84 130.995 28.968 130.843 29.08C130.691 29.188 130.531 29.282 130.363 29.362C130.199 29.438 130.023 29.496 129.835 29.536C129.647 29.576 129.439 29.596 129.211 29.596C128.971 29.596 128.745 29.564 128.533 29.5C128.325 29.432 128.143 29.33 127.987 29.194C127.831 29.058 127.707 28.888 127.615 28.684C127.527 28.48 127.483 28.242 127.483 27.97C127.483 27.73 127.547 27.5 127.675 27.28C127.807 27.056 128.019 26.856 128.311 26.68C128.607 26.504 128.991 26.36 129.463 26.248C129.939 26.136 130.523 26.072 131.215 26.056V25.612C131.215 25.152 131.117 24.808 130.921 24.58C130.725 24.352 130.437 24.238 130.057 24.238C129.801 24.238 129.585 24.27 129.409 24.334C129.237 24.398 129.087 24.47 128.959 24.55C128.835 24.626 128.725 24.696 128.629 24.76C128.537 24.824 128.441 24.856 128.341 24.856C128.261 24.856 128.191 24.834 128.131 24.79C128.075 24.746 128.029 24.694 127.993 24.634L127.783 24.256ZM137.521 24.454C137.489 24.506 137.455 24.544 137.419 24.568C137.383 24.588 137.337 24.598 137.281 24.598C137.217 24.598 137.145 24.576 137.065 24.532C136.989 24.488 136.895 24.44 136.783 24.388C136.675 24.336 136.547 24.288 136.399 24.244C136.251 24.2 136.075 24.178 135.871 24.178C135.703 24.178 135.549 24.2 135.409 24.244C135.273 24.284 135.157 24.342 135.061 24.418C134.965 24.49 134.891 24.578 134.839 24.682C134.787 24.782 134.761 24.89 134.761 25.006C134.761 25.158 134.805 25.284 134.893 25.384C134.985 25.484 135.103 25.57 135.247 25.642C135.395 25.714 135.561 25.78 135.745 25.84C135.933 25.896 136.123 25.956 136.315 26.02C136.511 26.084 136.701 26.158 136.885 26.242C137.073 26.322 137.239 26.424 137.383 26.548C137.531 26.668 137.649 26.814 137.737 26.986C137.829 27.158 137.875 27.368 137.875 27.616C137.875 27.9 137.823 28.164 137.719 28.408C137.619 28.648 137.469 28.856 137.269 29.032C137.073 29.208 136.829 29.346 136.537 29.446C136.245 29.546 135.911 29.596 135.535 29.596C135.115 29.596 134.727 29.526 134.371 29.386C134.015 29.246 133.717 29.068 133.477 28.852L133.753 28.402C133.785 28.346 133.825 28.304 133.873 28.276C133.921 28.244 133.985 28.228 134.065 28.228C134.141 28.228 134.219 28.256 134.299 28.312C134.379 28.368 134.475 28.43 134.587 28.498C134.699 28.562 134.835 28.622 134.995 28.678C135.155 28.73 135.355 28.756 135.595 28.756C135.795 28.756 135.969 28.732 136.117 28.684C136.265 28.632 136.387 28.564 136.483 28.48C136.583 28.392 136.657 28.292 136.705 28.18C136.753 28.068 136.777 27.95 136.777 27.826C136.777 27.666 136.731 27.534 136.639 27.43C136.551 27.322 136.433 27.23 136.285 27.154C136.141 27.078 135.975 27.012 135.787 26.956C135.599 26.9 135.407 26.84 135.211 26.776C135.015 26.712 134.823 26.638 134.635 26.554C134.447 26.47 134.279 26.364 134.131 26.236C133.987 26.108 133.869 25.952 133.777 25.768C133.689 25.584 133.645 25.36 133.645 25.096C133.645 24.86 133.693 24.634 133.789 24.418C133.889 24.202 134.031 24.012 134.215 23.848C134.403 23.684 134.633 23.554 134.905 23.458C135.181 23.358 135.495 23.308 135.847 23.308C136.251 23.308 136.615 23.372 136.939 23.5C137.267 23.628 137.547 23.804 137.779 24.028L137.521 24.454Z" fill="#141414"/>
</svg>
