<svg width="27" height="26" viewBox="0 0 27 26" fill="none" xmlns="http://www.w3.org/2000/svg">
<path d="M24.0401 5.97898C23.9638 5.88772 23.8684 5.81431 23.7607 5.76394C23.6529 5.71357 23.5354 5.68748 23.4165 5.6875H7.03244L6.41494 2.29227C6.38093 2.10505 6.28229 1.93572 6.13622 1.81378C5.99015 1.69183 5.80592 1.62503 5.61564 1.625H3.104C2.88852 1.625 2.68185 1.7106 2.52948 1.86298C2.37711 2.01535 2.2915 2.22201 2.2915 2.4375C2.2915 2.65299 2.37711 2.85965 2.52948 3.01202C2.68185 3.1644 2.88852 3.25 3.104 3.25H4.93213L7.52807 17.4982C7.60453 17.9208 7.79128 18.3156 8.06939 18.6428C7.68554 19.0013 7.40848 19.4592 7.26894 19.9656C7.1294 20.4719 7.13283 21.0071 7.27886 21.5116C7.42489 22.0162 7.7078 22.4704 8.09623 22.824C8.48466 23.1776 8.96343 23.4167 9.47944 23.5148C9.99546 23.6128 10.5286 23.5661 11.0196 23.3797C11.5107 23.1933 11.9406 22.8746 12.2615 22.4588C12.5825 22.043 12.7821 21.5465 12.838 21.0242C12.894 20.5019 12.8043 19.9744 12.5788 19.5H17.1917C17.01 19.8805 16.9159 20.297 16.9165 20.7187C16.9165 21.2812 17.0833 21.831 17.3958 22.2987C17.7082 22.7663 18.1524 23.1308 18.672 23.346C19.1916 23.5613 19.7634 23.6176 20.315 23.5079C20.8667 23.3981 21.3734 23.1273 21.7711 22.7296C22.1688 22.3319 22.4396 21.8252 22.5494 21.2735C22.6591 20.7219 22.6028 20.1501 22.3875 19.6305C22.1723 19.1109 21.8078 18.6667 21.3402 18.3543C20.8725 18.0418 20.3227 17.875 19.7603 17.875H9.92596C9.73568 17.875 9.55145 17.8082 9.40538 17.6862C9.25931 17.5643 9.16067 17.3949 9.12666 17.2077L8.80471 15.4375H20.586C21.1568 15.4374 21.7095 15.237 22.1477 14.8712C22.5859 14.5054 22.8818 13.9973 22.9838 13.4357L24.2188 6.64523C24.2398 6.52787 24.2346 6.40734 24.2037 6.2922C24.1728 6.17706 24.1169 6.07012 24.0401 5.97898ZM11.229 20.7187C11.229 20.9598 11.1575 21.1954 11.0236 21.3958C10.8897 21.5963 10.6993 21.7525 10.4766 21.8447C10.254 21.937 10.0089 21.9611 9.77249 21.9141C9.53607 21.8671 9.31891 21.751 9.14847 21.5805C8.97802 21.4101 8.86195 21.1929 8.81492 20.9565C8.7679 20.7201 8.79203 20.4751 8.88428 20.2524C8.97652 20.0297 9.13273 19.8393 9.33315 19.7054C9.53358 19.5715 9.76921 19.5 10.0103 19.5C10.3335 19.5 10.6435 19.6284 10.872 19.857C11.1006 20.0855 11.229 20.3955 11.229 20.7187ZM20.979 20.7187C20.979 20.9598 20.9075 21.1954 20.7736 21.3958C20.6397 21.5963 20.4493 21.7525 20.2266 21.8447C20.004 21.937 19.7589 21.9611 19.5225 21.9141C19.2861 21.8671 19.0689 21.751 18.8985 21.5805C18.728 21.4101 18.6119 21.1929 18.5649 20.9565C18.5179 20.7201 18.542 20.4751 18.6343 20.2524C18.7265 20.0297 18.8827 19.8393 19.0832 19.7054C19.2836 19.5715 19.5192 19.5 19.7603 19.5C20.0835 19.5 20.3935 19.6284 20.622 19.857C20.8506 20.0855 20.979 20.3955 20.979 20.7187ZM21.3853 13.1452C21.3511 13.333 21.2521 13.5027 21.1054 13.6247C20.9587 13.7467 20.7737 13.8132 20.5829 13.8125H8.50916L7.32799 7.3125H22.4425L21.3853 13.1452Z" fill="#141414"/>
</svg>
