<svg width="33" height="33" viewBox="0 0 33 33" fill="none" xmlns="http://www.w3.org/2000/svg">
<path d="M32.7998 4.5H28.9645C28.9645 8.32353 27.4822 10.6569 23.4351 12.5039V4.5H19.5763V13.9118C18.6273 14.198 17.592 14.4765 16.4665 14.7549C15.6194 14.9588 14.8076 15.1706 14.0194 15.3941V4.5H10.1606V16.6882C4.21942 19.0529 0.799805 22.5706 0.799805 28.8294H4.6351C4.6351 25.0059 6.11746 22.6725 10.1606 20.8255V28.8294H14.0194V19.4176C14.9724 19.1314 16.0037 18.8529 17.1292 18.5745C17.9724 18.3706 18.788 18.1588 19.5763 17.9353V28.8333H23.4351V16.6451C29.3763 14.2804 32.7998 10.7667 32.7998 4.50392" fill="#141414"/>
</svg>
