<svg width="32" height="33" viewBox="0 0 32 33" fill="none" xmlns="http://www.w3.org/2000/svg">
<g clip-path="url(#clip0_81_1410)">
<path d="M32.001 23.0039L16.0029 32.1807L0.000976562 23V4.50293L32.001 4.5V23.0039ZM0.80957 22.5283L15.9893 31.2529L15.9951 31.2598H16.0166L31.1709 22.5342L31.1846 22.5283V5.32227L0.84082 5.31543H0.80957V22.5283ZM30.3457 22.0557L16.0029 30.2949L1.65332 22.0488V16.2598H30.3457V22.0557ZM13.6748 17.3311L13.6572 17.3691V27.5186L13.6855 27.5645L15.9746 28.8799H16.0303L18.3154 27.5645L18.3438 27.5195V17.3691L18.291 17.3164H17.2559L17.2031 17.3691V26.8994L16.002 27.5537L14.7988 26.8994V17.3691L14.7461 17.3164H13.71L13.6748 17.3311ZM8.7334 17.3691V24.6836L8.75781 24.7334L11.9814 26.5879H12.0303L12.0586 26.543V25.4434L12.0303 25.3945L9.83594 24.1982V21.541L11.8066 22.0449L11.8447 21.9932V20.9082L11.7959 20.8555L9.83594 20.4209V18.3105H12.0059L12.0586 18.2578V17.3691L12.0059 17.3164H8.78613L8.7334 17.3691ZM20.168 17.3691V26.4092L20.1924 26.459H20.248L23.4648 24.6035L23.4932 24.5586V23.5674L23.4648 23.5225L23.416 23.5195L21.2598 24.6953V21.7725L23.2695 21.2617L23.3076 21.209V20.2393L23.2861 20.1973L23.2549 20.1836L21.2598 20.6211V18.3105H23.4365L23.4893 18.2578V17.3691L23.4365 17.3164H20.2207L20.168 17.3691ZM2.88184 17.3311L2.86426 17.3691V21.3281L2.8916 21.373L3.77051 21.874H3.82324L3.85059 21.8281V20.0117L5.99316 20.5576V23.1162L6.01758 23.1621L6.90723 23.6758H6.96289L6.9873 23.6309V17.3691L6.93457 17.3135H6.0459L5.99316 17.3691V19.5742L3.85059 19.1055V17.3691L3.79883 17.3135H2.91602L2.88184 17.3311ZM25.1514 17.3799V23.543L25.1758 23.5889H25.2324L26.1494 23.0703L26.1553 23.0605V20.5225L26.6943 20.3828L28.2725 21.7969L28.3428 21.8105L29.1475 21.3418L29.1719 21.3066L29.1689 21.2754L27.7871 20.1025L28.7627 19.8545C29.0879 19.774 29.1412 19.6197 29.1377 19.291L29.1348 17.6807C29.0962 17.45 28.9243 17.3136 28.6797 17.3135H25.2041L25.1514 17.3799ZM28.0254 18.3105C28.1056 18.3109 28.1719 18.3811 28.1719 18.4648V18.9375C28.1718 19.0456 28.1539 19.1018 28.0107 19.1367L26.1562 19.543V18.3105H28.0254ZM30.3457 15.4443H1.65332V6.12793L30.3457 6.12402V15.4443ZM27.9033 7.58301C26.262 6.93915 23.8682 6.90779 22.3633 7.83496C21.0685 8.65039 20.4624 9.86906 20.6338 11.2549C20.7985 12.385 21.5895 13.5398 22.877 14.0264C24.3819 14.6213 26.4685 14.5308 28.0889 14.2158V10.5332H25.3975V11.9189L26.2168 11.916V13.0674C25.5973 13.1339 24.911 13.0846 24.3545 12.9307C23.5708 12.6997 22.8642 12.0596 22.6924 11.3564C22.479 10.4571 22.7414 9.56053 23.5986 8.99707C24.7921 8.21686 26.6609 8.64036 27.9033 9.13379V7.58301ZM3.56055 8.72461H6.53906V14.3486H8.65332V8.72461H11.6318V7.22656H3.56055V8.72461ZM10.8018 14.3486H12.958L13.668 12.9482H17.375L18.1201 14.3486H20.2832L16.7168 7.22656H14.3018L10.8018 14.3486ZM16.7305 11.5H14.249L15.5332 8.99414L16.7305 11.5Z" fill="#141414"/>
</g>
<defs>
<clipPath id="clip0_81_1410">
<rect width="32" height="32" fill="white" transform="translate(0 0.5)"/>
</clipPath>
</defs>
</svg>
