<svg width="32" height="33" viewBox="0 0 32 33" fill="none" xmlns="http://www.w3.org/2000/svg">
<path d="M10.423 2.8828C12.4496 0.892192 15.2441 0.0439728 18.0831 0.740223C20.4662 1.30272 22.5913 3.31108 23.9572 5.41796C26.8137 9.81032 28.0898 15.4884 26.7687 20.9697C26.0276 24.0318 24.7422 26.8619 22.5997 29.3437C20.4484 31.8698 17.3598 33.0834 14.1105 32.2266C9.80751 31.0303 7.22689 26.4057 5.95911 22.5762C4.88791 19.3981 4.67354 15.3183 5.52161 11.9707C6.36079 8.60524 7.8073 5.48955 10.423 2.8828ZM22.047 3.7578C20.038 1.31174 16.9402 0.338855 13.923 1.23143C11.5752 1.87432 9.55696 4.21317 8.53039 6.34667C6.62881 10.2389 5.62906 14.7925 6.32532 19.4795C6.91451 22.9164 7.87889 26.2105 10.0304 29.0049C12.039 31.6024 15.2261 32.7 18.3595 31.7627C21.0465 31.0127 23.1355 28.2185 24.1622 25.79C25.6169 22.4782 26.4299 18.8091 26.1173 14.8633C25.7424 11.4175 24.8583 8.19506 23.1622 5.30272C22.8319 4.7758 22.4663 4.25723 22.047 3.7578Z" fill="#141414"/>
<path d="M21.4658 9.45319H21.2158C21.1087 7.95346 20.5016 6.21297 18.8857 5.77545C18.0915 5.61476 17.2609 5.76599 16.7344 6.39069C18.52 7.79229 18.9393 9.89994 19.4482 11.8995C19.9123 13.3903 19.9125 15.0866 21.2783 16.1846L21.6895 16.4971C20.904 17.015 20.3144 17.8181 20.0645 18.6573C19.35 21.032 19.1447 23.6119 17.6807 25.6651C17.4218 26.0043 17.0914 26.3615 16.7344 26.5938C17.297 27.29 18.2968 27.4152 19.1094 27.1563C20.6002 26.5762 21.0911 24.9863 21.2158 23.5401H21.4658V28.3975C21.4125 28.3793 21.3407 28.3887 21.2783 28.3887C21.2872 27.978 21.2253 27.5843 20.9131 27.3165C20.565 27.031 20.0377 27.2101 19.6719 27.335C19.1451 27.5406 18.6182 27.7992 17.9844 27.71C17.3059 27.6208 16.69 27.3882 16.1367 26.9864C15.3421 27.5401 14.3243 27.8972 13.3154 27.6114C12.771 27.4421 12.2711 27.1116 11.6465 27.1827C11.4322 27.2182 11.2259 27.4149 11.1367 27.6114C11.0297 27.8435 10.9943 28.1117 10.9854 28.3887L10.8154 28.3975V23.5411H11.0654C11.1725 24.9517 11.6283 26.4156 12.9941 27.0938C13.8331 27.4329 14.9309 27.3437 15.5469 26.6124L15.5381 26.5938C14.0208 25.4152 13.5029 23.6835 13.0566 21.9962L12.2441 18.7286C11.9852 17.8717 11.4139 17.0414 10.5928 16.4971C11.6103 15.8276 12.1814 14.7827 12.3955 13.6846L13.1641 10.5694C13.6192 9.04301 14.1366 7.46265 15.5469 6.40045C15.0023 5.74006 14.0918 5.58852 13.2705 5.8028C11.7266 6.32965 11.1727 7.98027 11.0654 9.45319H10.8154V4.59674L10.9854 4.60553C11.0121 5.02486 11.0568 5.48926 11.458 5.73932C11.7792 5.91768 12.1992 5.79349 12.5205 5.69537C13.1722 5.4097 13.9138 5.11446 14.6816 5.35553C15.2083 5.47171 15.6905 5.69547 16.1279 6.00787C16.8956 5.49014 17.8326 5.1326 18.8232 5.34674C19.4214 5.49841 19.9485 5.9008 20.627 5.81158C20.9571 5.76694 21.1711 5.42756 21.2334 5.13287C21.2693 4.96318 21.2872 4.79307 21.2783 4.60553L21.4658 4.59674V9.45319ZM16.1367 6.88287C15.5832 7.39159 15.3418 8.04303 15.0918 8.67682C14.2974 11.087 14.0029 13.7028 13.8867 16.3897C13.9492 18.7913 14.2258 21.1039 14.7793 23.2999C15.0828 24.2998 15.3422 25.326 16.1367 26.1114C16.9666 25.2721 17.2347 24.1836 17.5469 23.1212C18.0738 20.9785 18.3324 18.7285 18.3857 16.3985C18.3054 14.0151 18.0287 11.7116 17.4482 9.52448C17.1539 8.57856 16.8862 7.62375 16.1367 6.88287Z" fill="#141414"/>
</svg>
