<svg width="32" height="33" viewBox="0 0 32 33" fill="none" xmlns="http://www.w3.org/2000/svg">
<path d="M20.2121 2.5061H20.2697C29.6456 2.53115 29.7828 2.53133 30.1515 2.70728C30.3614 2.79963 30.6723 2.98441 30.8488 3.1272C31.0252 3.26163 31.2778 3.53922 31.4123 3.74927C31.5467 3.95933 31.7314 4.43037 31.8322 4.80005C31.9917 5.43831 32.0002 5.70803 32.0002 10.4036C32.0002 14.3861 31.9754 15.4538 31.883 15.9075C31.8158 16.2267 31.706 16.6131 31.6388 16.7727C31.5716 16.9323 31.4537 17.1254 31.3781 17.1926C31.3027 17.2598 31.2362 17.3687 31.2443 17.4192C31.2443 17.478 31.1176 17.6291 30.9748 17.7551C30.8235 17.8728 30.5295 18.0582 30.3195 18.1506C29.9668 18.3185 29.7553 18.3274 24.3966 18.4114V23.2844C24.3966 27.754 24.4052 28.1993 24.548 28.6614C24.632 28.9386 24.7917 29.3088 24.9093 29.4768C25.0437 29.6894 25.2562 29.863 25.547 29.9973C25.7907 30.1065 26.2114 30.2244 26.9591 30.3V30.9719H10.5754V30.636C10.5754 30.4259 10.6171 30.3 10.6759 30.3C10.735 30.3 10.9953 30.2745 11.2472 30.2493C11.4993 30.224 11.9114 30.1149 12.1466 29.9973C12.5412 29.821 12.6171 29.7362 12.8439 29.2659C13.0118 28.9215 13.1211 28.5101 13.1799 28.0315C13.2219 27.6366 13.2638 26.1657 13.2638 24.7542C13.2638 23.343 13.2301 22.1419 13.1965 22.0911C13.1544 22.007 12.423 21.9901 6.8693 22.0237L6.02946 24.0403C5.57575 25.1493 5.16386 26.1324 5.11344 26.2249C5.07339 26.313 4.97273 26.5996 4.87614 26.8733L4.86149 26.9133C4.74386 27.2746 4.69352 27.6616 4.69352 28.1321C4.69352 28.5186 4.74408 28.981 4.8029 29.1575C4.85341 29.3338 5.02934 29.6276 5.17204 29.804C5.35688 30.0224 5.55944 30.1572 5.7863 30.2161C6.10511 30.3 6.12223 30.3169 6.12223 30.9719L0.0304371 30.9299L0.00504649 30.6106C-0.0117447 30.3083 -0.00314533 30.2996 0.298992 30.2493C0.475327 30.2157 0.7694 30.1233 0.954265 30.0393C1.13911 29.9553 1.44227 29.754 1.62712 29.6028C1.81186 29.4432 2.12232 29.1155 2.31559 28.8635C2.50877 28.6116 2.84478 28.0904 3.05485 27.6956C3.2649 27.3007 3.62682 26.5442 3.85368 26.0149C4.07213 25.4856 4.78582 23.7209 5.43278 22.1077C6.07975 20.4945 7.3574 17.2934 8.26481 15.0081C9.1721 12.723 10.2054 10.1273 10.55 9.25317C10.8945 8.37936 11.3815 7.14348 11.6252 6.52173C11.8771 5.90032 12.1041 5.17838 12.1379 4.92603C12.1799 4.58154 12.1635 4.36229 12.0627 4.05982C11.9619 3.79108 11.835 3.61491 11.6418 3.49732C11.4989 3.40496 11.2052 3.30438 10.9953 3.27075C10.6593 3.20356 10.6172 3.17804 10.592 2.95142C10.5752 2.80873 10.5834 2.64906 10.6086 2.59009C10.6506 2.50607 12.5495 2.4893 20.2121 2.5061ZM18.7843 3.32935C18.5491 3.33775 18.1958 3.38811 18.0109 3.45532C17.8261 3.52255 17.574 3.69868 17.4396 3.84985C17.3137 4.00097 17.1712 4.26147 17.1291 4.42114C17.0787 4.60599 17.0451 9.27805 17.0451 16.8567C17.0451 28.4816 17.0532 29.0139 17.2043 29.3333C17.2883 29.5181 17.4486 29.7539 17.5578 29.8547C17.6671 29.9555 17.86 30.0729 17.9943 30.1233C18.1204 30.1737 18.4735 30.2161 18.7843 30.2161C19.221 30.216 19.448 30.1739 19.7336 30.0227C20.0192 29.8799 20.1618 29.7281 20.3215 29.4172L20.5314 28.9973C20.5314 7.47082 20.506 4.72607 20.422 4.43872C20.3716 4.2455 20.2205 3.97649 20.0861 3.84204C19.9601 3.69925 19.7166 3.53137 19.5402 3.46411C19.3722 3.38853 19.028 3.3294 18.7843 3.32935ZM13.1125 7.03442C13.062 7.03467 12.9692 7.15196 12.8937 7.30298C12.8265 7.4542 12.5663 8.085 12.3058 8.71509C12.0537 9.33693 11.5157 10.6558 11.1125 11.6555C10.7176 12.647 10.063 14.2522 9.66813 15.2268C9.27328 16.1929 8.61791 17.8225 8.20622 18.8391C7.79523 19.854 7.45933 20.7268 7.45817 20.7883C7.45817 20.8724 8.08818 20.8977 10.3146 20.8977C12.7846 20.8977 13.1794 20.8725 13.2131 20.7717C13.2383 20.6961 13.255 17.6627 13.255 14.0247C13.255 10.3867 13.2474 7.31982 13.2306 7.219C13.2138 7.1183 13.1628 7.03442 13.1125 7.03442ZM26.0519 3.5813H24.3547L24.3713 10.4124L24.3966 17.2346C27.6966 17.2766 27.8075 17.268 27.967 17.1086C28.0594 17.0162 28.1695 16.7972 28.2199 16.6292C28.2702 16.4239 28.3039 14.0974 28.3039 10.5129C28.2955 7.32857 28.2619 4.54721 28.2199 4.33716C28.1778 4.12715 28.0512 3.87506 27.9504 3.76587C27.7657 3.58128 27.7146 3.5729 26.0519 3.5813Z" fill="#141414"/>
</svg>
