<svg width="32" height="33" viewBox="0 0 32 33" fill="none" xmlns="http://www.w3.org/2000/svg">
<path fill-rule="evenodd" clip-rule="evenodd" d="M29.8728 7.05749C28.8648 7.05749 28.047 7.87831 28.047 8.89077C28.047 9.52885 28.3578 10.0889 28.8505 10.4169L22.6562 23.7598L23.9501 5.99206C24.887 5.91409 25.6223 5.12364 25.6223 4.16296C25.6223 3.15109 24.8046 2.33029 23.7959 2.33029C22.7873 2.33029 21.9695 3.15109 21.9695 4.16296C21.9695 4.95996 22.4765 5.62541 23.184 5.87778L18.9341 23.2259L16.8319 4.08856C17.6105 3.87905 18.1774 3.18084 18.1774 2.33325C18.1774 1.32079 17.3603 0.5 16.3516 0.5C15.3424 0.5 14.5252 1.32079 14.5252 2.33325C14.5252 3.2487 15.1977 3.98677 16.0711 4.12367L14.3764 22.7688L9.45165 5.93196C10.0334 5.62542 10.4289 5.02125 10.4289 4.31592C10.4289 3.30346 9.61176 2.48267 8.6031 2.48267C7.59443 2.48267 6.77671 3.30346 6.77671 4.31592C6.77671 5.32839 7.59443 6.14921 8.6031 6.14921C8.6286 6.14921 8.65765 6.14621 8.68314 6.14502L10.806 23.7598L3.65228 10.9443C4.07804 10.6086 4.35199 10.0866 4.35199 9.50087C4.35199 8.48841 3.53487 7.66759 2.52561 7.66759C1.51695 7.66759 0.699219 8.48841 0.699219 9.50087C0.699219 10.5133 1.51695 11.3341 2.52561 11.3341C2.65903 11.3341 2.78888 11.3192 2.914 11.2924L8.9067 29.3257C10.2741 33.5196 22.4285 33.5964 24.2519 29.3257L29.6635 10.7014C29.7382 10.7109 29.7951 10.724 29.8728 10.724C30.8821 10.724 31.6992 9.90324 31.6992 8.89077C31.6992 7.87831 30.8821 7.05749 29.8728 7.05749ZM16.4275 31.2542C13.3304 31.2542 10.8197 30.3174 10.8197 29.162C10.8197 28.0061 13.3304 27.4633 16.4275 27.4633C19.5247 27.4633 21.7074 28.0061 21.7074 29.162C21.7074 30.3174 19.5247 31.2542 16.4275 31.2542Z" fill="#141414"/>
</svg>
