<svg width="32" height="33" viewBox="0 0 32 33" fill="none" xmlns="http://www.w3.org/2000/svg">
<g clip-path="url(#clip0_81_1414)">
<path d="M22.5594 16.0393C23.6628 16.0393 24.7663 15.3637 24.7663 14.5038C24.7663 14.1967 24.5211 13.5825 23.6015 13.5825C22.4368 13.5825 21.4559 14.8109 20.4138 14.8109C19.4943 14.8109 19.3716 14.0739 19.3716 14.0739C19.9234 14.0739 20.1073 14.0739 20.7816 13.7054C21.3946 13.3983 22.2529 12.477 22.8659 11.8628C23.4176 11.2486 24.3372 10.4501 25.4406 10.4501C26.5441 10.4501 27.6475 11.1257 27.6475 12.4155C27.6475 14.1353 26.2989 14.6267 26.2989 15.2409C26.2989 15.4251 26.3602 15.6708 26.728 15.6708C27.2797 15.6708 28.3218 14.8724 29.364 14.8724C30.7739 14.8724 32 16.4693 32 16.4693C32 16.4693 30.7739 18.0662 29.364 18.0662C28.3218 18.0662 27.2797 17.2678 26.728 17.2678C26.3602 17.2678 26.2989 17.5134 26.2989 17.6977C26.2989 18.3119 27.6475 18.8647 27.6475 20.523C27.6475 21.8129 26.5441 22.4885 25.4406 22.4885C24.3372 22.4885 23.4176 21.69 22.8659 21.0758C22.3142 20.4616 21.4559 19.5403 20.7816 19.2332C20.1073 18.9261 19.9234 18.8647 19.3716 18.8647C19.3716 18.8647 19.4943 18.1276 20.4138 18.1276C21.4559 18.1276 22.4368 19.356 23.6015 19.356C24.5211 19.356 24.7663 18.7418 24.7663 18.4347C24.7663 17.5134 23.6628 16.8992 22.5594 16.8992H16.4291V23.0413C16.4291 24.1468 17.1034 25.2524 17.9617 25.2524C18.2682 25.2524 18.8812 25.0067 18.8812 24.0854C18.8812 22.9184 17.6552 21.9357 17.6552 20.8916C17.6552 19.9702 18.3908 19.8474 18.3908 19.8474C18.3908 20.4002 18.3908 20.5845 18.7586 21.2601C19.0651 21.8743 19.9847 22.7342 20.5977 23.3484C21.2107 23.9012 22.0077 24.8225 22.0077 25.928C22.0077 27.0336 21.3333 28.1392 20.046 28.1392C18.3295 28.1392 17.8391 26.7879 17.2261 26.7879C17.0421 26.7879 16.7969 26.8493 16.7969 27.2178C16.7969 27.7706 17.5939 28.8148 17.5939 29.8589C17.5939 31.2716 16 32.5 16 32.5C16 32.5 14.4061 31.2716 14.4061 29.8589C14.4061 28.8148 15.2031 27.7706 15.2031 27.2178C15.2031 26.8493 14.9579 26.7879 14.7739 26.7879C14.1609 26.7879 13.6092 28.1392 11.954 28.1392C10.6667 28.1392 9.99234 27.0336 9.99234 25.928C9.99234 24.8225 10.7893 23.9012 11.4023 23.3484C12.0153 22.7956 12.9349 21.9357 13.2414 21.2601C13.5479 20.5845 13.6092 20.4002 13.6092 19.8474C13.6092 19.8474 14.3448 19.9702 14.3448 20.8916C14.3448 21.9357 13.1188 22.9184 13.1188 24.0854C13.1188 25.0067 13.7318 25.2524 14.0383 25.2524C14.9579 25.2524 15.5709 24.1468 15.5709 23.0413V16.8992H9.44061C8.33716 16.8992 7.23372 17.5749 7.23372 18.4347C7.23372 18.7418 7.47893 19.356 8.39847 19.356C9.56322 19.356 10.5441 18.1276 11.5862 18.1276C12.5057 18.1276 12.6284 18.8647 12.6284 18.8647C12.0766 18.8647 11.8927 18.8647 11.2184 19.2332C10.6054 19.5403 9.74713 20.4616 9.1341 21.0758C8.58237 21.69 7.66283 22.4885 6.55939 22.4885C5.45594 22.4885 4.35249 21.8129 4.35249 20.523C4.35249 18.8033 5.70115 18.3119 5.70115 17.6977C5.70115 17.5134 5.63985 17.2678 5.27203 17.2678C4.72031 17.2678 3.67816 18.0662 2.63602 18.0662C1.22605 18.0662 0 16.4693 0 16.4693C0 16.4693 1.22605 14.8724 2.63602 14.8724C3.67816 14.8724 4.72031 15.6708 5.27203 15.6708C5.63985 15.6708 5.70115 15.4251 5.70115 15.2409C5.70115 14.6267 4.35249 14.0739 4.35249 12.4155C4.35249 11.1257 5.45594 10.4501 6.55939 10.4501C7.66283 10.4501 8.58237 11.2486 9.1341 11.8628C9.68582 12.477 10.5441 13.3983 11.2184 13.7054C11.8927 14.0125 12.0766 14.0739 12.6284 14.0739C12.6284 14.0739 12.5057 14.8109 11.5862 14.8109C10.5441 14.8109 9.56322 13.5825 8.39847 13.5825C7.47893 13.5825 7.23372 14.1967 7.23372 14.5038C7.23372 15.4251 8.33716 16.0393 9.44061 16.0393H15.5709V9.95873C15.5709 8.85317 14.8966 7.7476 14.0383 7.7476C13.7318 7.7476 13.1188 7.99328 13.1188 8.91459C13.1188 10.0816 14.3448 11.0643 14.3448 12.1084C14.3448 13.0297 13.6092 13.1526 13.6092 13.1526C13.6092 12.5998 13.6092 12.4155 13.2414 11.7399C12.9349 11.1257 12.0153 10.2658 11.4023 9.65163C10.7893 9.09885 9.99234 8.17754 9.99234 7.07198C9.99234 5.96641 10.6667 4.86084 11.954 4.86084C13.6705 4.86084 14.1609 6.21209 14.7739 6.21209C14.9579 6.21209 15.2031 6.15067 15.2031 5.78215C15.2031 5.22937 14.4061 4.18522 14.4061 3.14107C14.4061 1.72841 16 0.5 16 0.5C16 0.5 17.5939 1.72841 17.5939 3.14107C17.5939 4.18522 16.7969 5.22937 16.7969 5.78215C16.7969 6.15067 17.0421 6.21209 17.2261 6.21209C17.8391 6.21209 18.3908 4.86084 20.046 4.86084C21.3333 4.86084 22.0077 5.96641 22.0077 7.07198C22.0077 8.17754 21.2107 9.09885 20.5977 9.65163C19.9847 10.2044 19.0651 11.0643 18.7586 11.7399C18.4521 12.4155 18.3908 12.5998 18.3908 13.1526C18.3908 13.1526 17.6552 13.0297 17.6552 12.1084C17.6552 11.0643 18.8812 10.0816 18.8812 8.91459C18.8812 7.99328 18.2682 7.7476 17.9617 7.7476C17.0421 7.7476 16.4291 8.85317 16.4291 9.95873V16.1008H22.5594V16.0393Z" fill="#141414"/>
</g>
<defs>
<clipPath id="clip0_81_1414">
<rect width="32" height="32" fill="white" transform="translate(0 0.5)"/>
</clipPath>
</defs>
</svg>
