<svg width="27" height="26" viewBox="0 0 27 26" fill="none" xmlns="http://www.w3.org/2000/svg">
<path d="M24.1193 21.5313C22.5725 18.8571 20.1888 16.9396 17.407 16.0306C18.783 15.2115 19.8521 13.9633 20.45 12.4778C21.048 10.9922 21.1418 9.35147 20.717 7.80747C20.2922 6.26347 19.3723 4.9016 18.0986 3.931C16.8249 2.9604 15.2678 2.43474 13.6664 2.43474C12.0651 2.43474 10.508 2.9604 9.23428 3.931C7.96058 4.9016 7.0407 6.26347 6.61591 7.80747C6.19112 9.35147 6.28491 10.9922 6.88287 12.4778C7.48083 13.9633 8.54989 15.2115 9.9259 16.0306C7.1441 16.9386 4.76043 18.8561 3.21363 21.5313C3.15691 21.6237 3.11928 21.7267 3.10298 21.8339C3.08667 21.9412 3.09202 22.0506 3.11869 22.1558C3.14537 22.261 3.19284 22.3597 3.25831 22.4463C3.32377 22.5328 3.40591 22.6053 3.49986 22.6596C3.59381 22.7139 3.69768 22.7488 3.80534 22.7622C3.913 22.7757 4.02227 22.7675 4.1267 22.7381C4.23113 22.7086 4.3286 22.6586 4.41338 22.5908C4.49815 22.5231 4.5685 22.4391 4.62027 22.3438C6.53371 19.0369 9.91574 17.0625 13.6664 17.0625C17.4171 17.0625 20.7992 19.0369 22.7126 22.3438C22.7644 22.4391 22.8347 22.5231 22.9195 22.5908C23.0043 22.6586 23.1018 22.7086 23.2062 22.7381C23.3106 22.7675 23.4199 22.7757 23.5275 22.7622C23.6352 22.7488 23.7391 22.7139 23.833 22.6596C23.927 22.6053 24.0091 22.5328 24.0746 22.4463C24.14 22.3597 24.1875 22.261 24.2142 22.1558C24.2409 22.0506 24.2462 21.9412 24.2299 21.8339C24.2136 21.7267 24.176 21.6237 24.1193 21.5313ZM7.97894 9.75C7.97894 8.62512 8.31251 7.5255 8.93746 6.5902C9.56241 5.65489 10.4507 4.92591 11.4899 4.49544C12.5292 4.06496 13.6728 3.95233 14.776 4.17178C15.8793 4.39124 16.8927 4.93292 17.6881 5.72833C18.4835 6.52374 19.0252 7.53716 19.2447 8.64043C19.4641 9.74369 19.3515 10.8873 18.921 11.9265C18.4905 12.9658 17.7616 13.854 16.8262 14.479C15.8909 15.1039 14.7913 15.4375 13.6664 15.4375C12.1585 15.4359 10.7128 14.8362 9.64655 13.7699C8.58029 12.7036 7.98056 11.2579 7.97894 9.75Z" fill="#141414"/>
</svg>
