<svg width="46" height="46" viewBox="0 0 46 46" fill="none" xmlns="http://www.w3.org/2000/svg">
<rect width="46" height="46" rx="23" fill="black" fill-opacity="0.01"/>
<path d="M32.5123 23.5753L25.1998 30.8878C25.0474 31.0403 24.8406 31.1259 24.625 31.1259C24.4094 31.1259 24.2026 31.0403 24.0502 30.8878C23.8977 30.7353 23.812 30.5286 23.812 30.313C23.812 30.0973 23.8977 29.8906 24.0502 29.7381L29.9763 23.813H14.0625C13.847 23.813 13.6403 23.7274 13.488 23.575C13.3356 23.4226 13.25 23.2159 13.25 23.0005C13.25 22.785 13.3356 22.5783 13.488 22.4259C13.6403 22.2736 13.847 22.188 14.0625 22.188H29.9763L24.0502 16.2628C23.8977 16.1103 23.812 15.9036 23.812 15.688C23.812 15.4723 23.8977 15.2656 24.0502 15.1131C24.2026 14.9606 24.4094 14.875 24.625 14.875C24.8406 14.875 25.0474 14.9606 25.1998 15.1131L32.5123 22.4256C32.5879 22.5011 32.6478 22.5907 32.6887 22.6893C32.7296 22.7879 32.7506 22.8937 32.7506 23.0005C32.7506 23.1072 32.7296 23.213 32.6887 23.3116C32.6478 23.4102 32.5879 23.4998 32.5123 23.5753Z" fill="white"/>
<rect width="46" height="46" rx="23" fill="black" fill-opacity="0.01"/>
<path d="M32.5123 23.5753L25.1998 30.8878C25.0474 31.0403 24.8406 31.1259 24.625 31.1259C24.4094 31.1259 24.2026 31.0403 24.0502 30.8878C23.8977 30.7353 23.812 30.5286 23.812 30.313C23.812 30.0973 23.8977 29.8906 24.0502 29.7381L29.9763 23.813H14.0625C13.847 23.813 13.6403 23.7274 13.488 23.575C13.3356 23.4226 13.25 23.2159 13.25 23.0005C13.25 22.785 13.3356 22.5783 13.488 22.4259C13.6403 22.2736 13.847 22.188 14.0625 22.188H29.9763L24.0502 16.2628C23.8977 16.1103 23.812 15.9036 23.812 15.688C23.812 15.4723 23.8977 15.2656 24.0502 15.1131C24.2026 14.9606 24.4094 14.875 24.625 14.875C24.8406 14.875 25.0474 14.9606 25.1998 15.1131L32.5123 22.4256C32.5879 22.5011 32.6478 22.5907 32.6887 22.6893C32.7296 22.7879 32.7506 22.8937 32.7506 23.0005C32.7506 23.1072 32.7296 23.213 32.6887 23.3116C32.6478 23.4102 32.5879 23.4998 32.5123 23.5753Z" fill="white"/>
</svg>
