<svg width="320" height="126" viewBox="0 0 320 126" fill="none" xmlns="http://www.w3.org/2000/svg">
<rect width="320" height="126" rx="14" fill="#141414"/>
<g clip-path="url(#clip0_556_5528)">
<path d="M161.186 44.2316C161.604 43.7969 162.171 43.5527 162.762 43.5527C165.42 43.5527 167.926 43.5527 170.393 43.5527C175.355 43.5528 177.84 49.794 174.331 53.4442L166.688 61.3953C166.337 61.7603 165.737 61.5018 165.737 60.9855V53.9826L166.621 53.0637C167.322 52.3337 166.825 51.0854 165.833 51.0854H154.598L161.186 44.2316Z" fill="white"/>
<path d="M159.149 60.8346C158.731 61.2692 158.164 61.5134 157.573 61.5134C154.915 61.5134 152.409 61.5134 149.942 61.5134C144.98 61.5134 142.495 55.2721 146.004 51.6219L153.647 43.6709C153.998 43.3059 154.598 43.5644 154.598 44.0806L154.598 51.0835L153.714 52.0024C153.013 52.7325 153.51 53.9808 154.502 53.9808L165.737 53.9807L159.149 60.8346Z" fill="white"/>
</g>
<path d="M109.615 82.2441C108.502 82.8535 107.359 83.1641 106.188 83.1758C104.523 83.1758 103.182 82.6309 102.162 81.541C101.213 80.498 100.738 79.2207 100.738 77.709C100.738 76.4434 101.09 75.3242 101.793 74.3516C102.801 72.9688 104.254 72.2773 106.152 72.2773C107.465 72.2773 108.596 72.5879 109.545 73.209C109.545 72.9629 109.557 72.7754 109.58 72.6465C109.627 72.459 109.791 72.3652 110.072 72.3652L110.125 75.6875H109.633C109.059 73.7773 107.951 72.8105 106.311 72.7871C105.783 72.7871 105.309 72.8926 104.887 73.1035C103.574 73.7715 102.918 75.3008 102.918 77.6914C102.918 77.9141 102.924 78.1367 102.936 78.3594C103.088 81.2305 104.184 82.666 106.223 82.666C107.969 82.6543 109.129 81.6699 109.703 79.7129H110.178V83.0879C110.049 83.0879 109.943 83.0762 109.861 83.0527C109.686 82.9941 109.604 82.7246 109.615 82.2441ZM113.109 79.2207C113.109 79.6074 113.127 79.959 113.162 80.2754C113.326 81.916 113.994 82.7363 115.166 82.7363C116.49 82.7129 117.164 81.5176 117.187 79.1504C117.187 78.6934 117.164 78.2773 117.117 77.9023C116.918 76.4492 116.261 75.7227 115.148 75.7227C113.906 75.8164 113.226 76.9824 113.109 79.2207ZM115.201 75.2832C116.068 75.2832 116.836 75.5117 117.504 75.9688C118.535 76.6953 119.05 77.7676 119.05 79.1855C119.05 80.2402 118.728 81.1367 118.084 81.875C117.322 82.7422 116.332 83.1758 115.113 83.1758C114.222 83.1758 113.437 82.918 112.757 82.4023C111.75 81.6523 111.246 80.5684 111.246 79.1504C111.246 78.1309 111.556 77.2695 112.177 76.5664C112.939 75.7109 113.947 75.2832 115.201 75.2832ZM124.144 82.5605C124.226 82.5605 124.296 82.5664 124.355 82.5781C124.507 82.6016 124.583 82.7422 124.583 83H119.978V82.5605C120.283 82.5605 120.511 82.5371 120.663 82.4902C121.003 82.3965 121.173 82.0859 121.173 81.5586V75.9336H119.978V75.4941H122.738L122.826 77.1992C122.966 76.8477 123.165 76.5312 123.423 76.25C123.986 75.6641 124.619 75.3711 125.322 75.3711C125.451 75.3711 125.579 75.3828 125.708 75.4062C126.259 75.5469 126.535 75.8926 126.535 76.4434C126.535 76.5488 126.517 76.6543 126.482 76.7598C126.341 77.1465 126.066 77.3398 125.656 77.3398C125.562 77.3398 125.474 77.3281 125.392 77.3047C125.193 77.2344 124.994 77.0234 124.794 76.6719C124.63 76.3906 124.466 76.25 124.302 76.25C124.15 76.2617 123.98 76.3496 123.792 76.5137C123.171 77.0645 122.861 77.9492 122.861 79.168V82.5605H124.144ZM133.105 83L132.911 81.2246C132.888 81.2832 132.864 81.3418 132.841 81.4004C132.302 82.584 131.423 83.1758 130.204 83.1758C129.56 83.1758 128.98 82.9824 128.464 82.5957C127.538 81.9043 127.075 80.8438 127.075 79.4141C127.075 78.418 127.315 77.5449 127.796 76.7949C128.476 75.7754 129.425 75.2656 130.644 75.2656C131.569 75.2656 132.319 75.5586 132.894 76.1445V72.0137H131.241V71.5742H134.581L134.599 82.543H135.46C135.53 82.543 135.595 82.5488 135.653 82.5605C135.806 82.584 135.882 82.7305 135.882 83H133.105ZM128.939 79.2031C128.939 79.7656 128.991 80.2695 129.097 80.7148C129.378 81.8633 129.952 82.4375 130.819 82.4375C131.206 82.4375 131.552 82.3086 131.856 82.0508C132.571 81.4531 132.929 80.3926 132.929 78.8691C132.929 78.2598 132.858 77.7266 132.718 77.2695C132.413 76.2734 131.845 75.7754 131.013 75.7754C130.696 75.7754 130.403 75.8574 130.134 76.0215C129.337 76.5137 128.939 77.5742 128.939 79.2031ZM140.272 82.5605C140.354 82.5605 140.425 82.5664 140.483 82.5781C140.635 82.6016 140.712 82.7422 140.712 83H136.546V82.5605C136.839 82.5605 137.067 82.543 137.231 82.5078C137.606 82.4023 137.794 82.0859 137.794 81.5586V75.9336H136.546V75.4941H139.481V82.5605H140.272ZM139.675 73.0332C139.675 73.209 139.639 73.373 139.569 73.5254C139.37 73.9238 139.036 74.123 138.567 74.123C138.403 74.123 138.245 74.0879 138.092 74.0176C137.682 73.8301 137.477 73.502 137.477 73.0332C137.477 72.8574 137.518 72.6875 137.6 72.5234C137.8 72.125 138.122 71.9258 138.567 71.9258C138.743 71.9258 138.913 71.9668 139.077 72.0488C139.475 72.2598 139.675 72.5879 139.675 73.0332ZM147.827 83.1758C146.948 83.1641 146.42 82.6367 146.245 81.5938C146.151 81.8281 146.016 82.0508 145.84 82.2617C145.301 82.8711 144.586 83.1758 143.696 83.1758C143.332 83.1758 142.998 83.1172 142.694 83C141.885 82.6836 141.481 82.0566 141.481 81.1191C141.481 80.9434 141.498 80.7734 141.534 80.6094C141.827 79.3672 143.379 78.7285 146.192 78.6934V77.5684C146.18 76.3613 145.7 75.7461 144.75 75.7227C144.516 75.7227 144.317 75.7637 144.153 75.8457C143.93 75.9746 143.743 76.2734 143.59 76.7422C143.555 76.8594 143.526 76.9473 143.502 77.0059C143.362 77.3926 143.11 77.5859 142.746 77.5859C142.653 77.5859 142.559 77.5742 142.465 77.5508C142.114 77.4453 141.938 77.2051 141.938 76.8301C141.938 76.6309 142.002 76.4316 142.131 76.2324C142.565 75.5996 143.491 75.2832 144.909 75.2832C146.866 75.2949 147.856 76.2031 147.879 78.0078V81.6992C147.891 82.2734 148.037 82.5723 148.319 82.5957C148.682 82.584 148.905 82.1621 148.987 81.3301L149.444 81.3477C149.432 81.6172 149.397 81.8574 149.338 82.0684C149.151 82.8066 148.647 83.1758 147.827 83.1758ZM144.416 82.4551C144.592 82.4551 144.774 82.4141 144.961 82.332C145.582 82.0625 145.993 81.5176 146.192 80.6973V79.168C145.5 79.1797 144.938 79.2383 144.504 79.3438C143.661 79.5547 143.239 80.0586 143.239 80.8555C143.239 81.0195 143.25 81.1719 143.274 81.3125C143.391 82.0742 143.772 82.4551 144.416 82.4551ZM153.764 82.5605C153.834 82.5605 153.899 82.5664 153.957 82.5781C154.109 82.6133 154.186 82.7539 154.186 83H149.809V82.5605C150.184 82.5605 150.465 82.5312 150.652 82.4727C150.981 82.3672 151.145 82.0566 151.145 81.541V72.0137H149.809V71.5742H152.832V82.5605H153.764ZM168.398 83H168.169C168.029 83 167.912 82.9766 167.818 82.9297C167.654 82.8359 167.455 82.4668 167.22 81.8223L165.322 76.6719L163.019 83.0527H162.808C162.679 83.0527 162.568 83.0293 162.474 82.9824C162.275 82.8887 162.052 82.502 161.806 81.8223L158.519 72.9102H157.535V72.4531H161.771V72.9102H160.347L163.248 80.9434L165.04 75.8809L163.775 72.4531H167.22V72.9102H165.814L168.591 80.8906L171.246 72.9102H169.839V72.4531H172.705V72.9102H171.826L168.398 83ZM179.38 83.1758C178.501 83.1641 177.974 82.6367 177.798 81.5938C177.704 81.8281 177.569 82.0508 177.394 82.2617C176.855 82.8711 176.14 83.1758 175.249 83.1758C174.886 83.1758 174.552 83.1172 174.247 83C173.439 82.6836 173.034 82.0566 173.034 81.1191C173.034 80.9434 173.052 80.7734 173.087 80.6094C173.38 79.3672 174.933 78.7285 177.745 78.6934V77.5684C177.734 76.3613 177.253 75.7461 176.304 75.7227C176.069 75.7227 175.87 75.7637 175.706 75.8457C175.484 75.9746 175.296 76.2734 175.144 76.7422C175.109 76.8594 175.079 76.9473 175.056 77.0059C174.915 77.3926 174.663 77.5859 174.3 77.5859C174.206 77.5859 174.112 77.5742 174.019 77.5508C173.667 77.4453 173.491 77.2051 173.491 76.8301C173.491 76.6309 173.556 76.4316 173.685 76.2324C174.118 75.5996 175.044 75.2832 176.462 75.2832C178.419 75.2949 179.409 76.2031 179.433 78.0078V81.6992C179.444 82.2734 179.591 82.5723 179.872 82.5957C180.235 82.584 180.458 82.1621 180.54 81.3301L180.997 81.3477C180.985 81.6172 180.95 81.8574 180.892 82.0684C180.704 82.8066 180.2 83.1758 179.38 83.1758ZM175.97 82.4551C176.146 82.4551 176.327 82.4141 176.515 82.332C177.136 82.0625 177.546 81.5176 177.745 80.6973V79.168C177.054 79.1797 176.491 79.2383 176.058 79.3438C175.214 79.5547 174.792 80.0586 174.792 80.8555C174.792 81.0195 174.804 81.1719 174.827 81.3125C174.944 82.0742 175.325 82.4551 175.97 82.4551ZM181.221 75.9688V75.5293H182.452V73.8594L184.139 73.4902V75.5293H186.688V75.9688H184.139V81.3125C184.151 82.1914 184.456 82.6426 185.054 82.666C185.639 82.6543 186.061 82.127 186.319 81.084L186.794 81.1719C186.759 81.3594 186.712 81.541 186.653 81.7168C186.325 82.7012 185.663 83.1934 184.667 83.1934C184.573 83.1934 184.473 83.1875 184.368 83.1758C183.091 83.0586 182.452 82.2324 182.452 80.6973V75.9688H181.221ZM187.334 79.291C187.334 78.3535 187.563 77.5449 188.02 76.8652C188.723 75.8105 189.784 75.2832 191.202 75.2832C191.952 75.2832 192.614 75.4414 193.188 75.7578C193.879 76.1445 194.225 76.6133 194.225 77.1641C194.225 77.2344 194.213 77.3105 194.19 77.3926C194.096 77.8027 193.797 78.002 193.293 77.9902C193.094 77.9785 192.924 77.9316 192.784 77.8496C192.596 77.7207 192.461 77.4043 192.379 76.9004C192.356 76.7012 192.332 76.5605 192.309 76.4785C192.18 75.9746 191.823 75.7227 191.237 75.7227C189.889 75.7344 189.209 76.9004 189.198 79.2207C189.198 79.9004 189.274 80.4922 189.426 80.9961C189.778 82.1211 190.452 82.6836 191.448 82.6836C191.635 82.6836 191.823 82.666 192.01 82.6309C192.913 82.4668 193.557 81.9629 193.944 81.1191L194.401 81.2598C194.295 81.5176 194.155 81.7578 193.979 81.9805C193.346 82.7773 192.42 83.1758 191.202 83.1758C190.393 83.1758 189.672 82.9883 189.04 82.6133C187.903 81.9336 187.334 80.8262 187.334 79.291ZM198.387 82.5605C198.457 82.5605 198.522 82.5664 198.58 82.5781C198.733 82.6133 198.809 82.7539 198.809 83H194.783V82.5605C195.076 82.5605 195.305 82.5371 195.469 82.4902C195.82 82.3965 195.996 82.0859 195.996 81.5586V72.0137H194.783V71.5742H197.684V77.0234C197.789 76.7656 197.936 76.5195 198.123 76.2852C198.697 75.6172 199.442 75.2832 200.356 75.2832C200.707 75.2832 201.035 75.3535 201.34 75.4941C202.254 75.9043 202.711 76.7832 202.711 78.1309V82.5605H203.467C203.549 82.5605 203.619 82.5664 203.678 82.5781C203.83 82.6016 203.906 82.7422 203.906 83H200.004V82.5605C200.32 82.5605 200.549 82.5312 200.69 82.4727C200.901 82.3672 201.006 82.0625 201.006 81.5586V78.0078C201.006 77.7148 200.971 77.4395 200.901 77.1816C200.678 76.4785 200.221 76.127 199.529 76.127C199.26 76.127 198.996 76.2031 198.738 76.3555C198.035 76.7773 197.684 77.5215 197.684 78.5879V82.5605H198.387ZM208.508 75.7227C208.285 75.7227 208.08 75.7637 207.892 75.8457C207.072 76.209 206.639 77.1406 206.592 78.6406L208.156 78.6758C208.648 78.6992 209.029 78.6758 209.299 78.6055C209.779 78.4766 210.019 78.125 210.019 77.5508C210.019 77.3164 209.99 77.0879 209.931 76.8652C209.732 76.1035 209.258 75.7227 208.508 75.7227ZM211.654 81.2598C211.584 81.4238 211.502 81.5879 211.408 81.752C210.822 82.7012 209.867 83.1758 208.543 83.1758C207.758 83.1758 207.055 82.9883 206.433 82.6133C205.297 81.9336 204.728 80.8145 204.728 79.2559C204.728 78.3535 204.945 77.5625 205.379 76.8828C206.058 75.8164 207.096 75.2832 208.49 75.2832C209.228 75.2832 209.89 75.4355 210.476 75.7402C211.355 76.1973 211.795 76.8652 211.795 77.7441C211.795 78.084 211.701 78.3652 211.514 78.5879C211.115 79.0098 210.113 79.2031 208.508 79.168L206.592 79.1328C206.592 79.1445 206.592 79.1562 206.592 79.168C206.65 81.5117 207.412 82.6836 208.877 82.6836C209.064 82.6836 209.252 82.6602 209.439 82.6133C210.248 82.4258 210.846 81.9277 211.232 81.1191L211.654 81.2598ZM215.535 82.7012C216.332 82.7012 216.841 82.4492 217.064 81.9453C217.134 81.793 217.169 81.6348 217.169 81.4707C217.169 80.9434 216.8 80.4922 216.062 80.1172C215.91 80.0352 215.658 79.918 215.306 79.7656C214.38 79.3672 213.765 78.998 213.46 78.6582C213.132 78.2832 212.968 77.8438 212.968 77.3398C212.968 76.4609 213.449 75.8516 214.41 75.5117C214.843 75.3594 215.318 75.2832 215.834 75.2832C216.677 75.2832 217.369 75.4473 217.908 75.7754C217.908 75.4355 217.996 75.2422 218.171 75.1953C218.23 75.1836 218.294 75.1777 218.365 75.1777V77.375H217.873C217.826 76.2969 217.234 75.752 216.097 75.7402C215.277 75.7402 214.767 75.9922 214.568 76.4961C214.521 76.625 214.498 76.7598 214.498 76.9004C214.498 77.4043 214.855 77.8379 215.57 78.2012C215.722 78.2715 215.968 78.377 216.308 78.5176C217.246 78.916 217.867 79.2852 218.171 79.625C218.523 80.0234 218.699 80.4863 218.699 81.0137C218.699 81.9746 218.195 82.625 217.187 82.9648C216.777 83.1055 216.32 83.1758 215.816 83.1758C214.89 83.1641 214.099 82.9648 213.443 82.5781C213.443 82.8828 213.367 83.0586 213.214 83.1055C213.144 83.1172 213.062 83.123 212.968 83.123V80.4512H213.513C213.537 81.9395 214.21 82.6895 215.535 82.7012Z" fill="white"/>
<rect width="11.25" height="11.25" transform="translate(296.375 12.375)" fill="white"/>
<path fill-rule="evenodd" clip-rule="evenodd" d="M309.966 16.9484L308.841 15.6318C308.632 15.3818 308.457 14.9151 308.457 14.5818V13.1651C308.457 12.2818 307.732 11.5568 306.849 11.5568H305.432C305.099 11.5568 304.624 11.3818 304.374 11.1734L303.057 10.0484C302.482 9.55677 301.541 9.55677 300.966 10.0484L299.632 11.1734C299.382 11.3818 298.916 11.5568 298.582 11.5568H297.141C296.257 11.5568 295.532 12.2818 295.532 13.1651V14.5818C295.532 14.9068 295.366 15.3734 295.157 15.6234L294.032 16.9484C293.549 17.5318 293.549 18.4651 294.032 19.0318L295.157 20.3568C295.366 20.5984 295.532 21.0734 295.532 21.3984V22.8234C295.532 23.7068 296.257 24.4318 297.141 24.4318H298.591C298.916 24.4318 299.391 24.6068 299.641 24.8151L300.957 25.9401C301.532 26.4318 302.474 26.4318 303.049 25.9401L304.366 24.8151C304.616 24.6068 305.082 24.4318 305.416 24.4318H306.832C307.716 24.4318 308.441 23.7068 308.441 22.8234V21.4068C308.441 21.0734 308.616 20.6068 308.824 20.3568L309.949 19.0401C310.457 18.4734 310.457 17.5318 309.966 16.9484ZM301.258 20.8084L305.983 16.0834C306.225 15.8334 306.225 15.4417 305.983 15.2001C305.741 14.9584 305.341 14.9584 305.1 15.2001L300.816 19.4834L298.9 17.5667C298.658 17.3251 298.258 17.3251 298.016 17.5667C297.9 17.6843 297.835 17.843 297.835 18.0084C297.835 18.1738 297.9 18.3324 298.016 18.4501L300.375 20.8084C300.492 20.9254 300.651 20.9912 300.816 20.9912C300.982 20.9912 301.141 20.9254 301.258 20.8084Z" fill="#2951A3"/>
<defs>
<clipPath id="clip0_556_5528">
<rect width="31.6125" height="18.0643" fill="white" transform="translate(144.361 43.5)"/>
</clipPath>
</defs>
</svg>
