<svg width="320" height="126" viewBox="0 0 320 126" fill="none" xmlns="http://www.w3.org/2000/svg">
<rect width="320" height="126" rx="14" fill="#1C3321"/>
<path d="M97.1937 53.7472H110.844V57.7982H102.62V60.6953H109.69V64.5744H102.62V70.6387H97.1937V53.7472ZM113.152 56.1533V52.8388H118.038V56.1533H113.152ZM113.152 70.6387V57.6755H118.038V70.6387H113.152ZM127.073 57.3808C128.808 57.3808 130.273 57.7246 131.468 58.412C132.679 59.0831 133.285 60.1306 133.285 61.5546H128.742C128.742 61.0799 128.53 60.7444 128.104 60.548C127.81 60.3843 127.441 60.3025 126.999 60.3025C125.821 60.3025 125.232 60.5807 125.232 61.1372C125.232 61.4482 125.436 61.6692 125.845 61.8001C126.255 61.9311 126.926 62.0702 127.859 62.2175C129.004 62.3812 129.962 62.5776 130.731 62.8067C131.5 63.0195 132.172 63.4123 132.744 63.9852C133.317 64.5417 133.604 65.3274 133.604 66.3422C133.604 67.9953 132.982 69.1738 131.738 69.8776C130.51 70.5814 128.898 70.9333 126.901 70.9333C125.755 70.9333 124.675 70.7778 123.66 70.4668C122.646 70.1395 121.819 69.6402 121.181 68.9692C120.542 68.2981 120.223 67.447 120.223 66.4158H124.765V66.514C124.781 67.0705 125.011 67.4633 125.453 67.6925C125.911 67.9053 126.394 68.0117 126.901 68.0117C128.26 68.0117 128.939 67.6925 128.939 67.0541C128.939 66.7268 128.726 66.4895 128.301 66.3422C127.875 66.1948 127.179 66.0394 126.214 65.8757C125.052 65.6793 124.094 65.4665 123.341 65.2373C122.605 65.0082 121.958 64.6235 121.402 64.0834C120.845 63.5269 120.567 62.7576 120.567 61.7756C120.567 60.1879 121.164 59.0585 122.359 58.3875C123.57 57.7164 125.142 57.3808 127.073 57.3808ZM144.316 57.6755V60.9899H141.566V65.9248C141.566 66.514 141.665 66.9478 141.861 67.226C142.057 67.4879 142.418 67.6188 142.941 67.6188H144.316V70.4914C143.923 70.6223 143.416 70.7287 142.794 70.8105C142.172 70.8924 141.632 70.9333 141.174 70.9333C139.733 70.9333 138.62 70.6714 137.835 70.1476C137.065 69.6239 136.681 68.7318 136.681 67.4715V60.9899H134.864V57.6755H136.877L137.933 53.7472H141.566V57.6755H144.316ZM167.305 70.6387L165.12 60.3516H165.022L162.837 70.6387H156.87L152.918 53.7472H158.565L160.504 63.3223H160.602L162.517 53.7472H167.87L169.907 63.3223H170.006L171.822 53.7472H177.224L173.271 70.6387H167.305ZM184.629 57.3808C187.003 57.3808 188.811 57.9373 190.055 59.0503C191.315 60.1633 191.946 61.8656 191.946 64.1571V64.9918H182.223C182.223 65.9248 182.428 66.6286 182.837 67.1033C183.263 67.5779 183.925 67.8152 184.826 67.8152C185.644 67.8152 186.241 67.6434 186.618 67.2997C187.011 66.9559 187.207 66.4976 187.207 65.9248H191.946C191.946 67.4961 191.348 68.7237 190.153 69.6075C188.959 70.4914 187.215 70.9333 184.924 70.9333C182.518 70.9333 180.652 70.3768 179.326 69.2638C178 68.1344 177.337 66.4322 177.337 64.1571C177.337 61.9311 177.984 60.2452 179.277 59.0994C180.57 57.9537 182.354 57.3808 184.629 57.3808ZM184.826 60.4989C183.287 60.4989 182.428 61.2272 182.248 62.684H187.011C187.011 62.0129 186.814 61.4809 186.422 61.0881C186.045 60.6953 185.513 60.4989 184.826 60.4989ZM200.465 57.3808C202.445 57.3808 204.058 57.7164 205.301 58.3875C206.545 59.0422 207.167 60.1142 207.167 61.6037V66.6613C207.167 66.9396 207.233 67.1687 207.364 67.3488C207.495 67.5288 207.691 67.6188 207.953 67.6188H208.837V70.4423C208.788 70.475 208.657 70.5323 208.444 70.6141C208.248 70.6796 207.961 70.7451 207.585 70.8105C207.208 70.8924 206.775 70.9333 206.284 70.9333C205.334 70.9333 204.549 70.7942 203.927 70.5159C203.321 70.2213 202.904 69.8203 202.674 69.3129C202.052 69.8039 201.357 70.1967 200.588 70.4914C199.818 70.786 198.918 70.9333 197.887 70.9333C194.843 70.9333 193.32 69.7221 193.32 67.2997C193.32 66.0394 193.656 65.0818 194.327 64.4271C195.014 63.7561 195.996 63.2978 197.273 63.0522C198.55 62.8067 200.219 62.684 202.282 62.684V62.0456C202.282 61.5382 202.102 61.1536 201.741 60.8917C201.398 60.6298 200.948 60.4989 200.391 60.4989C199.884 60.4989 199.442 60.5889 199.065 60.769C198.705 60.949 198.525 61.2354 198.525 61.6283V61.7265H193.713C193.697 61.6446 193.689 61.5301 193.689 61.3827C193.689 60.1552 194.27 59.1813 195.432 58.4611C196.61 57.7409 198.288 57.3808 200.465 57.3808ZM202.282 64.9918C200.89 64.9918 199.859 65.1473 199.188 65.4583C198.533 65.7529 198.206 66.1539 198.206 66.6613C198.206 67.4797 198.763 67.8889 199.876 67.8889C200.514 67.8889 201.07 67.717 201.545 67.3733C202.036 67.0296 202.282 66.604 202.282 66.0966V64.9918ZM218.068 57.3563C218.445 57.3563 218.78 57.4054 219.075 57.5036C219.369 57.5854 219.517 57.6345 219.517 57.6509V61.751H217.945C216.931 61.751 216.194 62.0129 215.736 62.5367C215.294 63.0604 215.073 63.8379 215.073 64.8691V70.6387H210.187V57.6755H214.189L214.508 59.6396C214.803 58.8867 215.269 58.322 215.908 57.9455C216.546 57.5527 217.266 57.3563 218.068 57.3563Z" fill="#40933B"/>
<path d="M217.117 71.1562V70.2106H218.124V71.1562H217.117ZM220.596 68.7233V71.1562H219.545V68.7233H218.471V67.8869H221.665V68.7233H220.596ZM224.904 71.1562V69.9778C224.904 69.8321 224.909 69.6832 224.918 69.5311C224.931 69.3759 224.944 69.246 224.956 69.1414C224.969 69.0369 224.977 68.9704 224.98 68.9419H224.961L224.358 71.1562H223.535L222.927 68.9466H222.908C222.911 68.9751 222.919 69.0416 222.932 69.1462C222.948 69.2476 222.962 69.3759 222.975 69.5311C222.987 69.6832 222.994 69.8321 222.994 69.9778V71.1562H222.029V67.8869H223.512L224.006 69.7734H224.025L224.514 67.8869H225.945V71.1562H224.904Z" fill="#40933B"/>
<rect width="11.25" height="11.25" transform="translate(296.375 12.375)" fill="white"/>
<path fill-rule="evenodd" clip-rule="evenodd" d="M309.966 16.9484L308.841 15.6318C308.632 15.3818 308.457 14.9151 308.457 14.5818V13.1651C308.457 12.2818 307.732 11.5568 306.849 11.5568H305.432C305.099 11.5568 304.624 11.3818 304.374 11.1734L303.057 10.0484C302.482 9.55677 301.541 9.55677 300.966 10.0484L299.632 11.1734C299.382 11.3818 298.916 11.5568 298.582 11.5568H297.141C296.257 11.5568 295.532 12.2818 295.532 13.1651V14.5818C295.532 14.9068 295.366 15.3734 295.157 15.6234L294.032 16.9484C293.549 17.5318 293.549 18.4651 294.032 19.0318L295.157 20.3568C295.366 20.5984 295.532 21.0734 295.532 21.3984V22.8234C295.532 23.7068 296.257 24.4318 297.141 24.4318H298.591C298.916 24.4318 299.391 24.6068 299.641 24.8151L300.957 25.9401C301.532 26.4318 302.474 26.4318 303.049 25.9401L304.366 24.8151C304.616 24.6068 305.082 24.4318 305.416 24.4318H306.832C307.716 24.4318 308.441 23.7068 308.441 22.8234V21.4068C308.441 21.0734 308.616 20.6068 308.824 20.3568L309.949 19.0401C310.457 18.4734 310.457 17.5318 309.966 16.9484ZM301.258 20.8084L305.983 16.0834C306.225 15.8334 306.225 15.4417 305.983 15.2001C305.741 14.9584 305.341 14.9584 305.1 15.2001L300.816 19.4834L298.9 17.5667C298.658 17.3251 298.258 17.3251 298.016 17.5667C297.9 17.6843 297.835 17.843 297.835 18.0084C297.835 18.1738 297.9 18.3324 298.016 18.4501L300.375 20.8084C300.492 20.9254 300.651 20.9912 300.816 20.9912C300.982 20.9912 301.141 20.9254 301.258 20.8084Z" fill="#2951A3"/>
</svg>
