<svg width="179" height="27" viewBox="0 0 179 27" fill="none" xmlns="http://www.w3.org/2000/svg">
<path opacity="0.08" d="M0.000859454 24.9199V4.33992H3.02486C4.83553 4.33992 6.17019 4.84392 7.02886 5.85192C7.88753 6.85059 8.31686 8.32525 8.31686 10.2759C8.31686 11.4333 8.11153 12.4366 7.70086 13.2859C7.29953 14.1259 6.80953 14.7419 6.23086 15.1339L8.28886 24.9199H5.26486L3.55686 16.2399H3.02486V24.9199H0.000859454ZM3.02486 13.4399C3.58486 13.4399 4.02819 13.3186 4.35486 13.0759C4.68153 12.8239 4.91486 12.4693 5.05486 12.0119C5.19486 11.5546 5.26486 11.0133 5.26486 10.3879C5.26486 9.40792 5.10153 8.65659 4.77486 8.13392C4.45753 7.60192 3.87419 7.33592 3.02486 7.33592V13.4399ZM10.0087 24.9199V4.33992H16.9247V7.44792H13.0327V12.9919H15.8327V16.0159H13.0327V21.8119H16.9247V24.9199H10.0087ZM19.1688 24.9199V4.33992H22.1928V22.1199H26.1968V24.9199H19.1688ZM31.3186 25.1439C30.4786 25.1439 29.7553 24.9479 29.1486 24.5559C28.5513 24.1639 28.0893 23.6319 27.7626 22.9599C27.4453 22.2879 27.2866 21.5319 27.2866 20.6919V8.56792C27.2866 7.71859 27.4453 6.96259 27.7626 6.29992C28.0893 5.62792 28.5513 5.09592 29.1486 4.70392C29.7553 4.31192 30.4786 4.11592 31.3186 4.11592C32.1586 4.11592 32.8773 4.31192 33.4746 4.70392C34.0813 5.09592 34.5433 5.62792 34.8606 6.29992C35.1873 6.97192 35.3506 7.72792 35.3506 8.56792V20.6919C35.3506 21.5319 35.1873 22.2879 34.8606 22.9599C34.5433 23.6319 34.0813 24.1639 33.4746 24.5559C32.8773 24.9479 32.1586 25.1439 31.3186 25.1439ZM31.3186 22.2039C31.692 22.2039 31.9533 22.0499 32.1026 21.7419C32.252 21.4246 32.3266 21.0746 32.3266 20.6919V8.56792C32.3266 8.18525 32.2473 7.83992 32.0886 7.53192C31.93 7.21459 31.6733 7.05592 31.3186 7.05592C30.9733 7.05592 30.7166 7.21459 30.5486 7.53192C30.39 7.83992 30.3106 8.18525 30.3106 8.56792V20.6919C30.3106 21.0746 30.39 21.4246 30.5486 21.7419C30.7073 22.0499 30.964 22.2039 31.3186 22.2039ZM29.9466 2.51992L31.8226 -7.93934e-05H34.7626L32.1306 2.51992H29.9466ZM40.8778 25.1439C40.0471 25.1439 39.3705 24.9479 38.8478 24.5559C38.3251 24.1639 37.9378 23.6319 37.6858 22.9599C37.4431 22.2879 37.3218 21.5319 37.3218 20.6919V8.56792C37.3218 7.73725 37.4851 6.98592 37.8118 6.31392C38.1385 5.64192 38.6051 5.10992 39.2118 4.71792C39.8185 4.31659 40.5325 4.11592 41.3538 4.11592C41.9791 4.11592 42.5391 4.23259 43.0338 4.46592C43.5378 4.68992 43.9625 5.00725 44.3078 5.41792C44.6625 5.82859 44.9285 6.30459 45.1058 6.84592C45.2925 7.37792 45.3858 7.95192 45.3858 8.56792V11.7319H42.3618V8.56792C42.3618 8.15725 42.2871 7.80259 42.1378 7.50392C41.9885 7.20525 41.7271 7.05592 41.3538 7.05592C40.9898 7.05592 40.7285 7.21459 40.5698 7.53192C40.4205 7.83992 40.3458 8.18525 40.3458 8.56792V20.9439C40.3458 21.3453 40.4251 21.6999 40.5838 22.0079C40.7425 22.3066 40.9991 22.4559 41.3538 22.4559C41.7271 22.4559 41.9885 22.3066 42.1378 22.0079C42.2871 21.6999 42.3618 21.3453 42.3618 20.9439V17.4999H41.1578V14.6719H45.3858V24.9199H43.5938L43.2298 23.7999C42.9685 24.2199 42.6325 24.5513 42.2218 24.7939C41.8205 25.0273 41.3725 25.1439 40.8778 25.1439ZM47.6337 24.9199V4.33992H50.6577V24.9199H47.6337ZM56.803 25.1439C55.963 25.1439 55.2397 24.9479 54.633 24.5559C54.0357 24.1639 53.5737 23.6319 53.247 22.9599C52.9297 22.2879 52.771 21.5319 52.771 20.6919V8.56792C52.771 7.71859 52.9297 6.96259 53.247 6.29992C53.5737 5.62792 54.0357 5.09592 54.633 4.70392C55.2397 4.31192 55.963 4.11592 56.803 4.11592C57.643 4.11592 58.3617 4.31192 58.959 4.70392C59.5657 5.09592 60.0277 5.62792 60.345 6.29992C60.6717 6.97192 60.835 7.72792 60.835 8.56792V20.6919C60.835 21.5319 60.6717 22.2879 60.345 22.9599C60.0277 23.6319 59.5657 24.1639 58.959 24.5559C58.3617 24.9479 57.643 25.1439 56.803 25.1439ZM56.803 22.2039C57.1763 22.2039 57.4377 22.0499 57.587 21.7419C57.7363 21.4246 57.811 21.0746 57.811 20.6919V8.56792C57.811 8.18525 57.7317 7.83992 57.573 7.53192C57.4143 7.21459 57.1577 7.05592 56.803 7.05592C56.4577 7.05592 56.201 7.21459 56.033 7.53192C55.8743 7.83992 55.795 8.18525 55.795 8.56792V20.6919C55.795 21.0746 55.8743 21.4246 56.033 21.7419C56.1917 22.0499 56.4483 22.2039 56.803 22.2039ZM66.5862 25.1439C65.7555 25.1439 65.0648 25.0086 64.5142 24.7379C63.9635 24.4579 63.5295 24.0566 63.2122 23.5339C62.8948 23.0113 62.6662 22.3813 62.5262 21.6439C62.3955 20.9066 62.3302 20.0759 62.3302 19.1519L65.2982 18.8719C65.2982 19.3199 65.3122 19.7539 65.3402 20.1739C65.3775 20.5846 65.4382 20.9579 65.5222 21.2939C65.6155 21.6206 65.7462 21.8819 65.9142 22.0779C66.0915 22.2739 66.3155 22.3719 66.5862 22.3719C67.0342 22.3719 67.3515 22.1666 67.5382 21.7559C67.7248 21.3359 67.8182 20.8319 67.8182 20.2439C67.8182 19.6559 67.6642 19.0446 67.3562 18.4099C67.0482 17.7753 66.6795 17.1733 66.2502 16.6039C65.5222 15.6333 64.8828 14.7326 64.3322 13.9019C63.7908 13.0713 63.3662 12.2546 63.0582 11.4519C62.7595 10.6493 62.6102 9.80925 62.6102 8.93192C62.6102 8.24125 62.6988 7.60659 62.8762 7.02792C63.0535 6.43992 63.3102 5.93125 63.6462 5.50192C63.9915 5.06325 64.4068 4.72259 64.8922 4.47992C65.3775 4.23725 65.9328 4.11592 66.5582 4.11592C67.3328 4.11592 67.9862 4.24659 68.5182 4.50792C69.0595 4.76925 69.4935 5.14259 69.8202 5.62792C70.1562 6.11325 70.3988 6.69192 70.5482 7.36392C70.7068 8.02659 70.7862 8.76392 70.7862 9.57592L67.8182 9.85592C67.8182 9.51059 67.7995 9.16525 67.7622 8.81992C67.7342 8.46525 67.6782 8.14325 67.5942 7.85392C67.5102 7.56459 67.3888 7.33125 67.2302 7.15392C67.0715 6.97659 66.8662 6.88792 66.6142 6.88792C66.2222 6.88792 65.9515 7.05592 65.8022 7.39192C65.6528 7.71859 65.5782 8.18525 65.5782 8.79192C65.5782 9.57592 65.7882 10.3319 66.2082 11.0599C66.6282 11.7879 67.1928 12.6373 67.9022 13.6079C68.7515 14.7559 69.4422 15.8106 69.9742 16.7719C70.5155 17.7333 70.7862 18.7973 70.7862 19.9639C70.7862 20.7013 70.7068 21.3873 70.5482 22.0219C70.3895 22.6473 70.1375 23.1933 69.7922 23.6599C69.4562 24.1266 69.0222 24.4906 68.4902 24.7519C67.9675 25.0133 67.3328 25.1439 66.5862 25.1439ZM76.7274 24.9199V4.33992H83.6434V7.44792H79.7514V12.9919H82.5514V16.0159H79.7514V21.8119H83.6434V24.9199H76.7274ZM85.8876 24.9199V4.33992H89.7236L91.3756 15.0079L91.5156 16.0999H91.5716L91.7116 15.0079L93.3636 4.33992H97.1996V24.9199H94.3996V11.1159H94.2316L94.1196 11.9839L92.3276 24.9199H90.7596L88.9676 11.9839L88.8556 11.1159H88.6876V24.9199H85.8876ZM103.77 24.9199V4.33992H106.85C107.821 4.33992 108.642 4.49859 109.314 4.81592C109.986 5.13325 110.528 5.67459 110.938 6.43992C111.349 7.20525 111.643 8.25525 111.82 9.58992C112.007 10.9246 112.1 12.6093 112.1 14.6439C112.1 16.6879 112.007 18.3773 111.82 19.7119C111.643 21.0373 111.349 22.0826 110.938 22.8479C110.528 23.6039 109.986 24.1406 109.314 24.4579C108.642 24.7659 107.821 24.9199 106.85 24.9199H103.77ZM106.794 21.8959C107.541 21.8959 108.068 21.6019 108.376 21.0139C108.684 20.4259 108.871 19.5859 108.936 18.4939C109.002 17.4019 109.034 16.1046 109.034 14.6019C109.034 13.0806 109.002 11.7833 108.936 10.7099C108.871 9.62725 108.68 8.80125 108.362 8.23192C108.054 7.65325 107.532 7.36392 106.794 7.36392V21.8959ZM114.188 24.9199V4.33992H121.104V7.44792H117.212V12.9919H120.012V16.0159H117.212V21.8119H121.104V24.9199H114.188ZM126.989 25.1439C126.158 25.1439 125.467 25.0086 124.917 24.7379C124.366 24.4579 123.932 24.0566 123.615 23.5339C123.297 23.0113 123.069 22.3813 122.929 21.6439C122.798 20.9066 122.733 20.0759 122.733 19.1519L125.701 18.8719C125.701 19.3199 125.715 19.7539 125.743 20.1739C125.78 20.5846 125.841 20.9579 125.925 21.2939C126.018 21.6206 126.149 21.8819 126.317 22.0779C126.494 22.2739 126.718 22.3719 126.989 22.3719C127.437 22.3719 127.754 22.1666 127.941 21.7559C128.127 21.3359 128.221 20.8319 128.221 20.2439C128.221 19.6559 128.067 19.0446 127.759 18.4099C127.451 17.7753 127.082 17.1733 126.653 16.6039C125.925 15.6333 125.285 14.7326 124.735 13.9019C124.193 13.0713 123.769 12.2546 123.461 11.4519C123.162 10.6493 123.013 9.80925 123.013 8.93192C123.013 8.24125 123.101 7.60659 123.279 7.02792C123.456 6.43992 123.713 5.93125 124.049 5.50192C124.394 5.06325 124.809 4.72259 125.295 4.47992C125.78 4.23725 126.335 4.11592 126.961 4.11592C127.735 4.11592 128.389 4.24659 128.921 4.50792C129.462 4.76925 129.896 5.14259 130.223 5.62792C130.559 6.11325 130.801 6.69192 130.951 7.36392C131.109 8.02659 131.189 8.76392 131.189 9.57592L128.221 9.85592C128.221 9.51059 128.202 9.16525 128.165 8.81992C128.137 8.46525 128.081 8.14325 127.997 7.85392C127.913 7.56459 127.791 7.33125 127.633 7.15392C127.474 6.97659 127.269 6.88792 127.017 6.88792C126.625 6.88792 126.354 7.05592 126.205 7.39192C126.055 7.71859 125.981 8.18525 125.981 8.79192C125.981 9.57592 126.191 10.3319 126.611 11.0599C127.031 11.7879 127.595 12.6373 128.305 13.6079C129.154 14.7559 129.845 15.8106 130.377 16.7719C130.918 17.7333 131.189 18.7973 131.189 19.9639C131.189 20.7013 131.109 21.3873 130.951 22.0219C130.792 22.6473 130.54 23.1933 130.195 23.6599C129.859 24.1266 129.425 24.4906 128.893 24.7519C128.37 25.0133 127.735 25.1439 126.989 25.1439ZM134.825 24.9199V7.44792H131.969V4.33992H140.705V7.44792H137.849V24.9199H134.825ZM140.082 24.9199L143.19 4.33992H146.886L149.994 24.9199H147.054L146.494 20.7199H143.582L143.022 24.9199H140.082ZM144.002 17.5279H146.074L145.206 10.6119L145.122 9.51992H144.954L144.87 10.6119L144.002 17.5279ZM160.107 26.4879C159.257 26.4879 158.567 26.3059 158.035 25.9419C157.503 25.5779 157.101 25.1813 156.831 24.7519C156.691 24.8546 156.481 24.9433 156.201 25.0179C155.93 25.1019 155.645 25.1439 155.347 25.1439C154.488 25.1439 153.769 24.9479 153.191 24.5559C152.612 24.1639 152.178 23.6319 151.889 22.9599C151.599 22.2879 151.455 21.5319 151.455 20.6919V8.56792C151.455 7.72792 151.613 6.97192 151.931 6.29992C152.257 5.62792 152.724 5.09592 153.331 4.70392C153.937 4.31192 154.656 4.11592 155.487 4.11592C156.327 4.11592 157.045 4.31192 157.643 4.70392C158.249 5.09592 158.711 5.62792 159.029 6.29992C159.355 6.97192 159.519 7.72792 159.519 8.56792V20.6919C159.519 21.2426 159.444 21.7513 159.295 22.2179C159.155 22.6753 158.991 23.0159 158.805 23.2399C158.926 23.4359 159.099 23.5899 159.323 23.7019C159.547 23.8139 159.808 23.8839 160.107 23.9119V26.4879ZM155.487 22.2039C155.86 22.2039 156.121 22.0546 156.271 21.7559C156.42 21.4479 156.495 21.0933 156.495 20.6919V8.56792C156.495 8.18525 156.42 7.83992 156.271 7.53192C156.121 7.21459 155.86 7.05592 155.487 7.05592C155.123 7.05592 154.861 7.21459 154.703 7.53192C154.553 7.83992 154.479 8.18525 154.479 8.56792V20.6919C154.479 21.0933 154.558 21.4479 154.717 21.7559C154.875 22.0546 155.132 22.2039 155.487 22.2039ZM165.662 25.1439C164.812 25.1439 164.084 24.9479 163.478 24.5559C162.88 24.1639 162.423 23.6319 162.106 22.9599C161.788 22.2879 161.63 21.5319 161.63 20.6919V4.33992H164.654V20.6919C164.654 21.0933 164.733 21.4479 164.892 21.7559C165.05 22.0546 165.307 22.2039 165.662 22.2039C166.035 22.2039 166.296 22.0546 166.446 21.7559C166.595 21.4479 166.67 21.0933 166.67 20.6919V4.33992H169.694V20.6919C169.694 21.5319 169.53 22.2879 169.204 22.9599C168.886 23.6319 168.424 24.1639 167.818 24.5559C167.22 24.9479 166.502 25.1439 165.662 25.1439ZM171.938 24.9199V4.33992H178.854V7.44792H174.962V12.9919H177.762V16.0159H174.962V21.8119H178.854V24.9199H171.938Z" fill="white"/>
</svg>
