<svg width="110" height="38" viewBox="0 0 110 38" fill="none" xmlns="http://www.w3.org/2000/svg">
<path d="M16.6448 10.5179L16.904 17.0253H16.4114C15.651 14.7265 14.9769 13.1623 14.3892 12.3327C13.8016 11.4858 12.9547 11.0623 11.8485 11.0623H11.5374V28.1216H13.7411V28.666H4.27811V28.1216H6.48182V11.0623H6.14478C5.03861 11.0623 4.18305 11.5031 3.57811 12.3845C2.97318 13.2487 2.30774 14.7956 1.58182 17.0253H1.08922L1.34848 10.5179H16.6448ZM31.8015 10.5179H38.7237V11.0105H37.2978V28.1734H38.7237V28.666H30.8163V28.1734H32.2423V11.9697H32.1386L28.2497 28.666H25.0089L20.446 11.8919H20.3423V28.1734H21.7682V28.666H18.2423V28.1734H19.6682V11.0105H18.2423V10.5179H25.2423L28.6904 23.8697L31.8015 10.5179ZM49.2197 28.4068C50.0666 28.4068 50.6024 28.2512 50.8271 27.9401C51.0691 27.629 51.1901 27.1018 51.1901 26.3586V21.329H49.5308V20.7586H56.9975V21.329H55.9864V28.6401H55.5975C55.2864 28.208 54.8456 27.9919 54.2752 27.9919C54.0333 27.9919 53.3073 28.1475 52.0975 28.4586C50.9049 28.7697 49.8851 28.9253 49.0382 28.9253C46.2209 28.9253 44.0345 28.1648 42.4789 26.6438C40.9407 25.1228 40.1715 22.8413 40.1715 19.7993C40.1715 16.7401 40.9752 14.3808 42.5827 12.7216C44.2073 11.0623 46.3851 10.2327 49.116 10.2327C50.1703 10.2327 51.2246 10.371 52.2789 10.6475C53.3506 10.9068 53.9728 11.0364 54.1456 11.0364C54.3185 11.0364 54.4481 11.0018 54.5345 10.9327C54.6209 10.8463 54.716 10.708 54.8197 10.5179H55.1049L55.3123 16.1438H54.8456C53.9987 14.4673 53.1431 13.1537 52.2789 12.2031C51.432 11.2352 50.4814 10.7512 49.4271 10.7512C46.7827 10.7512 45.4604 13.3352 45.4604 18.5031V20.5512C45.4604 23.1438 45.7802 25.1055 46.4197 26.4364C47.0765 27.75 48.0098 28.4068 49.2197 28.4068Z" fill="white"/>
<path d="M107.928 28.0502C107.492 28.0502 107.083 27.9865 106.7 27.859C106.324 27.7315 106.032 27.5704 105.824 27.3758L106.056 26.9731C106.257 27.1476 106.526 27.2986 106.861 27.4261C107.197 27.5469 107.559 27.6073 107.948 27.6073C108.499 27.6073 108.895 27.5167 109.136 27.3355C109.378 27.1543 109.499 26.916 109.499 26.6208C109.499 26.406 109.435 26.2382 109.307 26.1174C109.187 25.9899 109.022 25.8926 108.814 25.8255C108.606 25.7584 108.378 25.7047 108.13 25.6644C107.881 25.6174 107.633 25.5671 107.385 25.5134C107.136 25.4597 106.908 25.3825 106.7 25.2819C106.492 25.1812 106.324 25.0436 106.197 24.8691C106.076 24.6879 106.015 24.4497 106.015 24.1544C106.015 23.8859 106.089 23.6443 106.237 23.4296C106.385 23.2148 106.606 23.0437 106.901 22.9162C107.197 22.782 107.566 22.7148 108.009 22.7148C108.338 22.7148 108.666 22.7618 108.995 22.8558C109.331 22.9497 109.603 23.0739 109.811 23.2282L109.579 23.6309C109.358 23.4631 109.109 23.3423 108.834 23.2685C108.559 23.1947 108.281 23.1578 107.999 23.1578C107.489 23.1578 107.113 23.2517 106.871 23.4397C106.636 23.6276 106.519 23.8625 106.519 24.1443C106.519 24.3658 106.579 24.5436 106.7 24.6779C106.828 24.8054 106.995 24.906 107.203 24.9799C107.411 25.047 107.64 25.104 107.888 25.151C108.136 25.1913 108.385 25.2382 108.633 25.2919C108.881 25.3456 109.109 25.4228 109.317 25.5235C109.525 25.6174 109.69 25.7517 109.811 25.9261C109.938 26.0939 110.002 26.3221 110.002 26.6107C110.002 26.8993 109.921 27.1509 109.76 27.3657C109.606 27.5805 109.374 27.7482 109.066 27.869C108.757 27.9898 108.378 28.0502 107.928 28.0502Z" fill="white"/>
<path d="M101.32 30.002C101.078 30.002 100.85 29.9617 100.635 29.8812C100.427 29.8007 100.249 29.6832 100.102 29.5288L100.353 29.1463C100.487 29.2872 100.632 29.3913 100.786 29.4584C100.947 29.5255 101.128 29.559 101.33 29.559C101.571 29.559 101.783 29.4919 101.964 29.3577C102.152 29.2235 102.326 28.9785 102.487 28.6228L102.85 27.8175L102.92 27.7269L105.145 22.7539H105.658L102.961 28.7235C102.82 29.0456 102.665 29.2973 102.497 29.4785C102.336 29.6664 102.159 29.8007 101.964 29.8812C101.769 29.9617 101.555 30.002 101.32 30.002ZM102.84 28.1396L100.404 22.7539H100.937L103.152 27.6967L102.84 28.1396Z" fill="white"/>
<path d="M99.0781 28.01V26.812L99.0579 26.6308V24.6577C99.0579 24.1678 98.9237 23.7953 98.6553 23.5403C98.3935 23.2853 98.0076 23.1578 97.4976 23.1578C97.1352 23.1578 96.7963 23.2215 96.4808 23.3491C96.1721 23.4699 95.907 23.6276 95.6856 23.8222L95.4339 23.4598C95.6956 23.2249 96.0111 23.0437 96.3802 22.9162C96.7493 22.782 97.1352 22.7148 97.5379 22.7148C98.1888 22.7148 98.6888 22.8793 99.0378 23.2081C99.3868 23.537 99.5613 24.0269 99.5613 24.6779V28.01H99.0781ZM97.1855 28.0502C96.7963 28.0502 96.4574 27.9898 96.1688 27.869C95.8869 27.7415 95.6688 27.5637 95.5144 27.3355C95.3668 27.1073 95.293 26.8456 95.293 26.5503C95.293 26.2818 95.3534 26.0402 95.4742 25.8255C95.6017 25.604 95.8097 25.4262 96.0983 25.2919C96.3869 25.151 96.7728 25.0805 97.256 25.0805H99.1888V25.4731H97.2661C96.7225 25.4731 96.3399 25.5738 96.1184 25.7751C95.9037 25.9765 95.7963 26.2281 95.7963 26.5302C95.7963 26.8657 95.9238 27.1342 96.1788 27.3355C96.4339 27.5368 96.7929 27.6375 97.256 27.6375C97.6989 27.6375 98.0714 27.5368 98.3734 27.3355C98.6821 27.1342 98.9103 26.8422 99.0579 26.4597L99.1989 26.802C99.0579 27.1845 98.8163 27.4899 98.4741 27.718C98.1385 27.9395 97.709 28.0502 97.1855 28.0502Z" fill="white"/>
<path d="M88.3741 28.0088L86.3809 22.7539H86.8641L88.7164 27.7269H88.5049L90.4076 22.7539H90.8404L92.733 27.7269H92.5115L94.394 22.7539H94.8571L92.8639 28.0088H92.3907L90.5384 23.2371H90.6995L88.8372 28.0088H88.3741Z" fill="white"/>
<path d="M83.6709 28.0502C83.1407 28.0502 82.6709 27.9361 82.2615 27.708C81.8588 27.4798 81.5401 27.1644 81.3052 26.7617C81.077 26.359 80.9629 25.8993 80.9629 25.3825C80.9629 24.8591 81.0703 24.3994 81.285 24.0034C81.5065 23.6007 81.8085 23.2853 82.191 23.0571C82.5736 22.8289 83.0031 22.7148 83.4796 22.7148C83.9561 22.7148 84.3822 22.8256 84.7581 23.047C85.1406 23.2685 85.4392 23.5806 85.654 23.9833C85.8755 24.3792 85.9862 24.8389 85.9862 25.3624C85.9862 25.3825 85.9829 25.406 85.9761 25.4329C85.9761 25.453 85.9761 25.4765 85.9761 25.5033H81.3354V25.1107H85.7043L85.503 25.302C85.5097 24.8926 85.4225 24.5269 85.2413 24.2047C85.0668 23.8759 84.8285 23.6209 84.5265 23.4397C84.2245 23.2517 83.8755 23.1578 83.4796 23.1578C83.0903 23.1578 82.7414 23.2517 82.4326 23.4397C82.1306 23.6209 81.8924 23.8759 81.7179 24.2047C81.5434 24.5269 81.4562 24.896 81.4562 25.3121V25.4027C81.4562 25.8322 81.5501 26.2147 81.738 26.5503C81.9327 26.8791 82.1977 27.1375 82.5333 27.3254C82.8689 27.5066 83.2514 27.5972 83.6809 27.5972C84.0165 27.5972 84.3285 27.5368 84.6171 27.416C84.9124 27.2952 85.1607 27.1107 85.3621 26.8624L85.654 27.1946C85.4258 27.4764 85.1372 27.6912 84.7883 27.8388C84.446 27.9798 84.0735 28.0502 83.6709 28.0502Z" fill="white"/>
<path d="M79.3432 28.0502C78.8801 28.0502 78.5244 27.9226 78.2761 27.6676C78.0345 27.4126 77.9137 27.0636 77.9137 26.6207V21.6074H78.417V26.5703C78.417 26.9059 78.5009 27.1643 78.6687 27.3455C78.8365 27.5267 79.0781 27.6173 79.3935 27.6173C79.7223 27.6173 79.9941 27.52 80.2089 27.3254L80.4203 27.6777C80.2861 27.8052 80.1217 27.8992 79.927 27.9596C79.7391 28.02 79.5445 28.0502 79.3432 28.0502ZM76.9473 23.1879V22.755H80.0881V23.1879H76.9473Z" fill="white"/>
<path d="M75.3574 28.01V26.812L75.3372 26.6308V24.6577C75.3372 24.1678 75.203 23.7953 74.9346 23.5403C74.6728 23.2853 74.2869 23.1578 73.7769 23.1578C73.4145 23.1578 73.0756 23.2215 72.7601 23.3491C72.4514 23.4699 72.1863 23.6276 71.9649 23.8222L71.7132 23.4598C71.9749 23.2249 72.2904 23.0437 72.6595 22.9162C73.0286 22.782 73.4145 22.7148 73.8172 22.7148C74.4681 22.7148 74.9681 22.8793 75.3171 23.2081C75.6661 23.537 75.8406 24.0269 75.8406 24.6779V28.01H75.3574ZM73.4648 28.0502C73.0756 28.0502 72.7367 27.9898 72.4481 27.869C72.1662 27.7415 71.9481 27.5637 71.7937 27.3355C71.6461 27.1073 71.5723 26.8456 71.5723 26.5503C71.5723 26.2818 71.6327 26.0402 71.7535 25.8255C71.881 25.604 72.089 25.4262 72.3776 25.2919C72.6662 25.151 73.0521 25.0805 73.5353 25.0805H75.4681V25.4731H73.5454C73.0017 25.4731 72.6192 25.5738 72.3977 25.7751C72.183 25.9765 72.0756 26.2281 72.0756 26.5302C72.0756 26.8657 72.2031 27.1342 72.4581 27.3355C72.7132 27.5368 73.0722 27.6375 73.5353 27.6375C73.9782 27.6375 74.3507 27.5368 74.6527 27.3355C74.9614 27.1342 75.1896 26.8422 75.3372 26.4597L75.4782 26.802C75.3372 27.1845 75.0956 27.4899 74.7534 27.718C74.4178 27.9395 73.9883 28.0502 73.4648 28.0502Z" fill="white"/>
<path d="M67.5321 28.0576C67.0019 28.0576 66.512 27.9703 66.0623 27.7958C65.6127 27.6146 65.2201 27.363 64.8845 27.0408C64.5557 26.7187 64.3007 26.3429 64.1195 25.9133C63.9383 25.4771 63.8477 25.0006 63.8477 24.4839C63.8477 23.9671 63.9383 23.494 64.1195 23.0644C64.3007 22.6282 64.559 22.249 64.8946 21.9269C65.2302 21.6048 65.6194 21.3565 66.0623 21.182C66.512 21.0008 67.0053 20.9102 67.5422 20.9102C68.0522 20.9102 68.5254 20.9907 68.9616 21.1518C69.3978 21.3128 69.7703 21.5544 70.079 21.8766L69.7569 22.2188C69.4481 21.9168 69.1092 21.7021 68.7401 21.5746C68.3777 21.4471 67.9817 21.3833 67.5522 21.3833C67.0959 21.3833 66.6731 21.4605 66.2838 21.6148C65.8946 21.7692 65.5557 21.9873 65.2671 22.2692C64.9785 22.551 64.7537 22.8799 64.5926 23.2557C64.4382 23.6315 64.3611 24.0409 64.3611 24.4839C64.3611 24.9268 64.4382 25.3362 64.5926 25.712C64.7537 26.0878 64.9785 26.4167 65.2671 26.6986C65.5557 26.9804 65.8946 27.1985 66.2838 27.3529C66.6731 27.5073 67.0959 27.5844 67.5522 27.5844C67.9683 27.5844 68.3609 27.5207 68.73 27.3932C69.1059 27.2656 69.4481 27.0542 69.7569 26.759L70.0488 27.1516C69.7334 27.4536 69.3542 27.6817 68.9112 27.8361C68.475 27.9837 68.0153 28.0576 67.5321 28.0576ZM69.5555 27.1012V24.5141H70.0488V27.1516L69.5555 27.1012Z" fill="white"/>
<path d="M85.2041 18.3432C84.6739 18.3432 84.2041 18.2291 83.7947 18.0009C83.392 17.7728 83.0733 17.4573 82.8384 17.0547C82.6102 16.652 82.4961 16.1923 82.4961 15.6755C82.4961 15.152 82.6035 14.6923 82.8182 14.2964C83.0397 13.8937 83.3417 13.5783 83.7242 13.3501C84.1068 13.1219 84.5363 13.0078 85.0128 13.0078C85.4893 13.0078 85.9154 13.1185 86.2913 13.34C86.6738 13.5615 86.9725 13.8736 87.1872 14.2762C87.4087 14.6722 87.5194 15.1319 87.5194 15.6554C87.5194 15.6755 87.5161 15.699 87.5093 15.7258C87.5093 15.746 87.5093 15.7695 87.5093 15.7963H82.8686V15.4037H87.2375L87.0362 15.595C87.0429 15.1856 86.9557 14.8198 86.7745 14.4977C86.6 14.1688 86.3617 13.9138 86.0597 13.7326C85.7577 13.5447 85.4087 13.4508 85.0128 13.4508C84.6235 13.4508 84.2746 13.5447 83.9658 13.7326C83.6638 13.9138 83.4256 14.1688 83.2511 14.4977C83.0766 14.8198 82.9894 15.1889 82.9894 15.605V15.6956C82.9894 16.1252 83.0833 16.5077 83.2712 16.8433C83.4659 17.1721 83.731 17.4305 84.0665 17.6184C84.4021 17.7996 84.7846 17.8902 85.2141 17.8902C85.5497 17.8902 85.8618 17.8298 86.1503 17.709C86.4456 17.5882 86.6939 17.4036 86.8953 17.1553L87.1872 17.4875C86.959 17.7694 86.6704 17.9842 86.3215 18.1318C85.9792 18.2727 85.6067 18.3432 85.2041 18.3432Z" fill="white"/>
<path d="M79.0004 13.0078C79.4232 13.0078 79.789 13.0917 80.0977 13.2595C80.4131 13.4206 80.6581 13.6689 80.8326 14.0044C81.0071 14.3333 81.0943 14.7427 81.0943 15.2326V18.3029H80.591V15.2728C80.591 14.6823 80.4467 14.2326 80.1581 13.9239C79.8695 13.6152 79.4669 13.4608 78.9501 13.4608C78.5541 13.4608 78.2119 13.5447 77.9233 13.7125C77.6347 13.8803 77.4132 14.1152 77.2589 14.4172C77.1045 14.7192 77.0273 15.0816 77.0273 15.5044V18.3029H76.524V15.2728C76.524 14.6823 76.3797 14.2326 76.0911 13.9239C75.8026 13.6152 75.3999 13.4608 74.8831 13.4608C74.4872 13.4608 74.1449 13.5447 73.8563 13.7125C73.5677 13.8803 73.3463 14.1152 73.1919 14.4172C73.0375 14.7192 72.9604 15.0816 72.9604 15.5044V18.3029H72.457V13.0481H72.9402V14.4977L72.8698 14.3366C73.0241 13.9272 73.2825 13.6051 73.6449 13.3702C74.0073 13.1286 74.4435 13.0078 74.9536 13.0078C75.4771 13.0078 75.9166 13.142 76.2723 13.4105C76.6347 13.6722 76.8629 14.0648 76.9569 14.5883L76.7857 14.5178C76.9267 14.0682 77.1918 13.7058 77.581 13.4306C77.9703 13.1487 78.4434 13.0078 79.0004 13.0078Z" fill="white"/>
<path d="M69.9306 18.3019V13.047H70.4339V18.3019H69.9306ZM70.1823 11.7685C70.0682 11.7685 69.9709 11.7283 69.8903 11.6477C69.8098 11.5672 69.7695 11.4732 69.7695 11.3659C69.7695 11.2518 69.8098 11.1545 69.8903 11.0739C69.9709 10.9934 70.0682 10.9531 70.1823 10.9531C70.3031 10.9531 70.4004 10.9934 70.4742 11.0739C70.5547 11.1477 70.595 11.2417 70.595 11.3558C70.595 11.4699 70.5547 11.5672 70.4742 11.6477C70.4004 11.7283 70.3031 11.7685 70.1823 11.7685Z" fill="white"/>
<path d="M65.8708 18.3026V11.7189H63.334V11.2559H68.921V11.7189H66.3842V18.3026H65.8708Z" fill="white"/>
</svg>
