<svg width="48" height="48" viewBox="0 0 48 48" fill="none" xmlns="http://www.w3.org/2000/svg">
<path d="M24.2177 14.3439C22.86 14.3439 20.7589 12.7269 18.5461 12.7839C15.6244 12.8244 12.9461 14.5584 11.4408 17.3049C8.40882 22.8174 10.6588 30.9593 13.6164 35.4398C15.0672 37.6208 16.7787 40.0748 19.0474 39.9983C21.2244 39.9008 22.0407 38.5178 24.6832 38.5178C27.3056 38.5178 28.0489 39.9983 30.3548 39.9398C32.6993 39.9008 34.1874 37.7198 35.6196 35.5178C37.2753 32.9858 37.9628 30.5303 38 30.3953C37.9441 30.3758 33.4427 28.5638 33.3882 23.1099C33.351 18.5499 36.9402 16.3689 37.1077 16.2714C35.0611 13.1364 31.9188 12.7854 30.8203 12.7074C27.9558 12.4734 25.5568 14.3439 24.2177 14.3439ZM29.0558 9.74496C30.2631 8.22697 31.0609 6.10449 30.8389 4C29.1102 4.078 27.0263 5.20749 25.7803 6.72698C24.6631 8.07097 23.6978 10.234 23.957 12.2979C25.8734 12.4539 27.8455 11.266 29.0543 9.74646" fill="#050505"/>
</svg>
