<svg width="48" height="48" viewBox="0 0 48 48" fill="none" xmlns="http://www.w3.org/2000/svg">
<path d="M33.777 0.666016H14.2237C5.73032 0.666016 0.666992 5.72935 0.666992 14.2227V33.7527C0.666992 42.2694 5.73032 47.3327 14.2237 47.3327H33.7537C42.247 47.3327 47.3103 42.2694 47.3103 33.776V14.2227C47.3337 5.72935 42.2703 0.666016 33.777 0.666016ZM35.1537 18.6327L21.9237 31.8627C21.5955 32.1904 21.1507 32.3745 20.687 32.3745C20.2232 32.3745 19.7785 32.1904 19.4503 31.8627L12.847 25.2594C12.5215 24.93 12.339 24.4857 12.339 24.0227C12.339 23.5597 12.5215 23.1153 12.847 22.786C13.5237 22.1093 14.6437 22.1093 15.3203 22.786L20.687 28.1527L32.6803 16.1594C33.357 15.4827 34.477 15.4827 35.1537 16.1594C35.8303 16.836 35.8303 17.9327 35.1537 18.6327Z" fill="#17A83D"/>
</svg>
