<svg width="49" height="49" viewBox="0 0 49 49" fill="none" xmlns="http://www.w3.org/2000/svg">
<rect y="5" width="44" height="44" rx="8" fill="#D5A60A"/>
<path d="M31 28C31 28.2652 30.8946 28.5196 30.7071 28.7071C30.5196 28.8946 30.2652 29 30 29H14C13.7348 29 13.4804 28.8946 13.2929 28.7071C13.1054 28.5196 13 28.2652 13 28C13 27.7348 13.1054 27.4804 13.2929 27.2929C13.4804 27.1054 13.7348 27 14 27H30C30.2652 27 30.5196 27.1054 30.7071 27.2929C30.8946 27.4804 31 27.7348 31 28ZM35 21H9C8.73478 21 8.48043 21.1054 8.29289 21.2929C8.10536 21.4804 8 21.7348 8 22C8 22.2652 8.10536 22.5196 8.29289 22.7071C8.48043 22.8946 8.73478 23 9 23H35C35.2652 23 35.5196 22.8946 35.7071 22.7071C35.8946 22.5196 36 22.2652 36 22C36 21.7348 35.8946 21.4804 35.7071 21.2929C35.5196 21.1054 35.2652 21 35 21ZM25 33H19C18.7348 33 18.4804 33.1054 18.2929 33.2929C18.1054 33.4804 18 33.7348 18 34C18 34.2652 18.1054 34.5196 18.2929 34.7071C18.4804 34.8946 18.7348 35 19 35H25C25.2652 35 25.5196 34.8946 25.7071 34.7071C25.8946 34.5196 26 34.2652 26 34C26 33.7348 25.8946 33.4804 25.7071 33.2929C25.5196 33.1054 25.2652 33 25 33Z" fill="white"/>
<rect x="33" width="16" height="16" rx="8" fill="#D23423"/>
<path d="M43.162 11.022V12H38.452V11.022H40.252V5.61C40.252 5.418 40.258 5.222 40.27 5.022L38.884 6.192C38.824 6.24 38.762 6.272 38.698 6.288C38.638 6.3 38.58 6.3 38.524 6.288C38.472 6.276 38.424 6.258 38.38 6.234C38.34 6.206 38.308 6.176 38.284 6.144L37.882 5.58L40.486 3.342H41.536V11.022H43.162Z" fill="white"/>
</svg>
