<svg width="48" height="48" viewBox="0 0 48 48" fill="none" xmlns="http://www.w3.org/2000/svg">
<path d="M40.6551 24.287C40.6551 22.9207 40.5416 21.9236 40.296 20.8896H24.3281V27.0566H33.7009C33.512 28.5892 32.4916 30.8972 30.2239 32.4481L30.1921 32.6546L35.2409 36.4762L35.5907 36.5103C38.8031 33.6114 40.6551 29.3462 40.6551 24.287Z" fill="#4285F4"/>
<path d="M24.3279 40.5352C28.9198 40.5352 32.7748 39.058 35.5905 36.51L30.2237 32.4478C28.7876 33.4264 26.8601 34.1096 24.3279 34.1096C19.8305 34.1096 16.0133 31.2108 14.6526 27.2041L14.4532 27.2206L9.20342 31.1905L9.13477 31.3769C11.9315 36.8054 17.6762 40.5352 24.3279 40.5352Z" fill="#34A853"/>
<path d="M14.6542 27.204C14.2952 26.17 14.0874 25.0621 14.0874 23.9174C14.0874 22.7725 14.2952 21.6647 14.6353 20.6307L14.6258 20.4105L9.31024 16.377L9.13633 16.4578C7.98367 18.7104 7.32227 21.2401 7.32227 23.9174C7.32227 26.5947 7.98367 29.1242 9.13633 31.3768L14.6542 27.204Z" fill="#FBBC05"/>
<path d="M24.3279 13.7253C27.5215 13.7253 29.6757 15.0732 30.904 16.1996L35.7038 11.6204C32.756 8.94312 28.9198 7.2998 24.3279 7.2998C17.6762 7.2998 11.9315 11.0295 9.13477 16.458L14.6337 20.6309C16.0133 16.6242 19.8305 13.7253 24.3279 13.7253Z" fill="#EB4335"/>
</svg>
