<svg width="26" height="26" viewBox="0 0 26 26" fill="none" xmlns="http://www.w3.org/2000/svg">
<path d="M12.1875 21.9375C12.1875 22.153 12.1019 22.3597 11.9495 22.512C11.7972 22.6644 11.5905 22.75 11.375 22.75H4.875C4.65951 22.75 4.45285 22.6644 4.30048 22.512C4.1481 22.3597 4.0625 22.153 4.0625 21.9375V4.0625C4.0625 3.84701 4.1481 3.64035 4.30048 3.48798C4.45285 3.3356 4.65951 3.25 4.875 3.25H11.375C11.5905 3.25 11.7972 3.3356 11.9495 3.48798C12.1019 3.64035 12.1875 3.84701 12.1875 4.0625C12.1875 4.27799 12.1019 4.48465 11.9495 4.63702C11.7972 4.7894 11.5905 4.875 11.375 4.875H5.6875V21.125H11.375C11.5905 21.125 11.7972 21.2106 11.9495 21.363C12.1019 21.5153 12.1875 21.722 12.1875 21.9375ZM23.3248 12.4252L19.2623 8.36266C19.1099 8.2102 18.9031 8.12455 18.6875 8.12455C18.4719 8.12455 18.2651 8.2102 18.1127 8.36266C17.9602 8.51511 17.8745 8.72189 17.8745 8.9375C17.8745 9.15311 17.9602 9.35989 18.1127 9.51234L20.7888 12.1875H11.375C11.1595 12.1875 10.9528 12.2731 10.8005 12.4255C10.6481 12.5778 10.5625 12.7845 10.5625 13C10.5625 13.2155 10.6481 13.4222 10.8005 13.5745C10.9528 13.7269 11.1595 13.8125 11.375 13.8125H20.7888L18.1127 16.4877C17.9602 16.6401 17.8745 16.8469 17.8745 17.0625C17.8745 17.2781 17.9602 17.4849 18.1127 17.6373C18.2651 17.7898 18.4719 17.8755 18.6875 17.8755C18.9031 17.8755 19.1099 17.7898 19.2623 17.6373L23.3248 13.5748C23.4004 13.4994 23.4603 13.4098 23.5012 13.3111C23.5421 13.2125 23.5631 13.1068 23.5631 13C23.5631 12.8932 23.5421 12.7875 23.5012 12.6889C23.4603 12.5902 23.4004 12.5006 23.3248 12.4252Z" fill="#D23423"/>
</svg>
