<svg width="20" height="20" viewBox="0 0 20 20" fill="none" xmlns="http://www.w3.org/2000/svg">
<path d="M17.477 5.16841L10.602 1.40669C10.4183 1.30519 10.2118 1.25195 10.002 1.25195C9.79208 1.25195 9.58565 1.30519 9.40195 1.40669L2.52695 5.16997C2.33062 5.2774 2.16672 5.43557 2.05238 5.62796C1.93805 5.82035 1.87746 6.03992 1.87695 6.26372V13.7356C1.87746 13.9594 1.93805 14.179 2.05238 14.3714C2.16672 14.5638 2.33062 14.7219 2.52695 14.8293L9.40195 18.5926C9.58565 18.6941 9.79208 18.7474 10.002 18.7474C10.2118 18.7474 10.4183 18.6941 10.602 18.5926L17.477 14.8293C17.6733 14.7219 17.8372 14.5638 17.9515 14.3714C18.0659 14.179 18.1264 13.9594 18.127 13.7356V6.2645C18.1269 6.0403 18.0665 5.82025 17.9521 5.62741C17.8378 5.43456 17.6736 5.27603 17.477 5.16841ZM10.002 2.50044L16.2785 5.93794L13.9527 7.21138L7.67539 3.77388L10.002 2.50044ZM10.002 9.37544L3.72539 5.93794L6.37383 4.48794L12.6504 7.92544L10.002 9.37544ZM3.12695 7.03169L9.37695 10.452V17.1543L3.12695 13.7364V7.03169ZM16.877 13.7333L10.627 17.1543V10.4551L13.127 9.08716V11.8754C13.127 12.0412 13.1928 12.2002 13.31 12.3174C13.4272 12.4346 13.5862 12.5004 13.752 12.5004C13.9177 12.5004 14.0767 12.4346 14.1939 12.3174C14.3111 12.2002 14.377 12.0412 14.377 11.8754V8.40278L16.877 7.03169V13.7325V13.7333Z" fill="#141414"/>
</svg>
