<svg width="26" height="26" viewBox="0 0 26 26" fill="none" xmlns="http://www.w3.org/2000/svg">
<path d="M21.9375 4.0625H4.0625C3.63152 4.0625 3.2182 4.2337 2.91345 4.53845C2.6087 4.8432 2.4375 5.25652 2.4375 5.6875V20.3125C2.4375 20.7435 2.6087 21.1568 2.91345 21.4615C3.2182 21.7663 3.63152 21.9375 4.0625 21.9375H21.9375C22.3685 21.9375 22.7818 21.7663 23.0865 21.4615C23.3913 21.1568 23.5625 20.7435 23.5625 20.3125V5.6875C23.5625 5.25652 23.3913 4.8432 23.0865 4.53845C22.7818 4.2337 22.3685 4.0625 21.9375 4.0625ZM21.9375 20.3125H4.0625V5.6875H21.9375V20.3125ZM17.875 8.9375C17.875 10.2304 17.3614 11.4704 16.4471 12.3846C15.5329 13.2989 14.2929 13.8125 13 13.8125C11.7071 13.8125 10.4671 13.2989 9.55285 12.3846C8.63861 11.4704 8.125 10.2304 8.125 8.9375C8.125 8.72201 8.2106 8.51535 8.36298 8.36298C8.51535 8.2106 8.72201 8.125 8.9375 8.125C9.15299 8.125 9.35965 8.2106 9.51202 8.36298C9.6644 8.51535 9.75 8.72201 9.75 8.9375C9.75 9.79945 10.0924 10.6261 10.7019 11.2356C11.3114 11.8451 12.138 12.1875 13 12.1875C13.862 12.1875 14.6886 11.8451 15.2981 11.2356C15.9076 10.6261 16.25 9.79945 16.25 8.9375C16.25 8.72201 16.3356 8.51535 16.488 8.36298C16.6403 8.2106 16.847 8.125 17.0625 8.125C17.278 8.125 17.4847 8.2106 17.637 8.36298C17.7894 8.51535 17.875 8.72201 17.875 8.9375Z" fill="#141414"/>
</svg>
