<svg width="26" height="26" viewBox="0 0 26 26" fill="none" xmlns="http://www.w3.org/2000/svg">
<path d="M23.3736 5.97898C23.2973 5.88772 23.2019 5.81431 23.0942 5.76394C22.9864 5.71357 22.8689 5.68748 22.75 5.6875H6.36594L5.74844 2.29227C5.71443 2.10505 5.61579 1.93572 5.46972 1.81378C5.32365 1.69183 5.13942 1.62503 4.94914 1.625H2.4375C2.22201 1.625 2.01535 1.7106 1.86298 1.86298C1.7106 2.01535 1.625 2.22201 1.625 2.4375C1.625 2.65299 1.7106 2.85965 1.86298 3.01202C2.01535 3.1644 2.22201 3.25 2.4375 3.25H4.26562L6.86156 17.4982C6.93803 17.9208 7.12477 18.3156 7.40289 18.6428C7.01903 19.0013 6.74197 19.4592 6.60243 19.9656C6.4629 20.4719 6.46633 21.0071 6.61236 21.5116C6.75839 22.0162 7.0413 22.4704 7.42973 22.824C7.81816 23.1776 8.29693 23.4167 8.81294 23.5148C9.32896 23.6128 9.86206 23.5661 10.3531 23.3797C10.8442 23.1933 11.2741 22.8746 11.595 22.4588C11.916 22.043 12.1155 21.5465 12.1715 21.0242C12.2275 20.5019 12.1378 19.9744 11.9123 19.5H16.5252C16.3435 19.8805 16.2494 20.297 16.25 20.7187C16.25 21.2812 16.4168 21.831 16.7293 22.2987C17.0417 22.7663 17.4859 23.1308 18.0055 23.346C18.5251 23.5613 19.0969 23.6176 19.6485 23.5079C20.2002 23.3981 20.7069 23.1273 21.1046 22.7296C21.5023 22.3319 21.7731 21.8252 21.8829 21.2735C21.9926 20.7219 21.9363 20.1501 21.721 19.6305C21.5058 19.1109 21.1413 18.6667 20.6737 18.3543C20.206 18.0418 19.6562 17.875 19.0938 17.875H9.25945C9.06918 17.875 8.88494 17.8082 8.73888 17.6862C8.59281 17.5643 8.49417 17.3949 8.46016 17.2077L8.1382 15.4375H19.9195C20.4903 15.4374 21.043 15.237 21.4812 14.8712C21.9194 14.5054 22.2153 13.9973 22.3173 13.4357L23.5523 6.64523C23.5732 6.52787 23.5681 6.40734 23.5372 6.2922C23.5063 6.17706 23.4504 6.07012 23.3736 5.97898ZM10.5625 20.7187C10.5625 20.9598 10.491 21.1954 10.3571 21.3958C10.2232 21.5963 10.0328 21.7525 9.81015 21.8447C9.58745 21.937 9.3424 21.9611 9.10598 21.9141C8.86957 21.8671 8.65241 21.751 8.48196 21.5805C8.31152 21.4101 8.19544 21.1929 8.14842 20.9565C8.10139 20.7201 8.12553 20.4751 8.21777 20.2524C8.31002 20.0297 8.46623 19.8393 8.66665 19.7054C8.86707 19.5715 9.1027 19.5 9.34375 19.5C9.66698 19.5 9.97698 19.6284 10.2055 19.857C10.4341 20.0855 10.5625 20.3955 10.5625 20.7187ZM20.3125 20.7187C20.3125 20.9598 20.241 21.1954 20.1071 21.3958C19.9732 21.5963 19.7828 21.7525 19.5601 21.8447C19.3374 21.937 19.0924 21.9611 18.856 21.9141C18.6196 21.8671 18.4024 21.751 18.232 21.5805C18.0615 21.4101 17.9454 21.1929 17.8984 20.9565C17.8514 20.7201 17.8755 20.4751 17.9678 20.2524C18.06 20.0297 18.2162 19.8393 18.4166 19.7054C18.6171 19.5715 18.8527 19.5 19.0938 19.5C19.417 19.5 19.727 19.6284 19.9555 19.857C20.1841 20.0855 20.3125 20.3955 20.3125 20.7187ZM20.7188 13.1452C20.6846 13.333 20.5856 13.5027 20.4389 13.6247C20.2922 13.7467 20.1072 13.8132 19.9164 13.8125H7.84266L6.66148 7.3125H21.776L20.7188 13.1452Z" fill="#141414"/>
</svg>
