<svg width="26" height="26" viewBox="0 0 26 26" fill="none" xmlns="http://www.w3.org/2000/svg">
<path d="M24.7112 13.8125L14.625 3.72634C14.4747 3.57478 14.2957 3.45463 14.0985 3.37286C13.9013 3.29108 13.6898 3.24933 13.4763 3.25001H4.06251C3.84702 3.25001 3.64036 3.33561 3.48798 3.48798C3.33561 3.64036 3.25001 3.84702 3.25001 4.06251V13.4763C3.24933 13.6898 3.29108 13.9013 3.37286 14.0985C3.45463 14.2957 3.57478 14.4747 3.72634 14.625L13.8125 24.7112C13.9634 24.8621 14.1426 24.9818 14.3397 25.0635C14.5369 25.1452 14.7483 25.1873 14.9617 25.1873C15.1751 25.1873 15.3865 25.1452 15.5836 25.0635C15.7808 24.9818 15.96 24.8621 16.1109 24.7112L24.7112 16.1109C24.8621 15.96 24.9818 15.7808 25.0635 15.5836C25.1452 15.3865 25.1873 15.1751 25.1873 14.9617C25.1873 14.7483 25.1452 14.5369 25.0635 14.3397C24.9818 14.1426 24.8621 13.9634 24.7112 13.8125ZM14.9612 23.5625L4.87501 13.4763V4.87501H13.4763L23.5625 14.9612L14.9612 23.5625ZM9.75001 8.53126C9.75001 8.7723 9.67853 9.00794 9.54461 9.20836C9.41069 9.40878 9.22035 9.56499 8.99765 9.65724C8.77496 9.74948 8.52991 9.77362 8.29349 9.72659C8.05708 9.67956 7.83992 9.56349 7.66947 9.39304C7.49903 9.2226 7.38295 9.00544 7.33593 8.76902C7.2889 8.53261 7.31304 8.28756 7.40528 8.06486C7.49752 7.84216 7.65373 7.65182 7.85416 7.5179C8.05458 7.38399 8.29021 7.31251 8.53126 7.31251C8.85449 7.31251 9.16448 7.44091 9.39304 7.66947C9.6216 7.89803 9.75001 8.20802 9.75001 8.53126Z" fill="#141414"/>
</svg>
