<svg width="25" height="24" viewBox="0 0 25 24" fill="none" xmlns="http://www.w3.org/2000/svg">
<path d="M21.9658 19.875C20.538 17.4065 18.3377 15.6365 15.7698 14.7975C17.04 14.0414 18.0268 12.8892 18.5788 11.5179C19.1307 10.1467 19.2173 8.63211 18.8252 7.20688C18.4331 5.78165 17.584 4.52454 16.4083 3.6286C15.2325 2.73266 13.7952 2.24744 12.317 2.24744C10.8388 2.24744 9.40152 2.73266 8.2258 3.6286C7.05008 4.52454 6.20096 5.78165 5.80885 7.20688C5.41673 8.63211 5.5033 10.1467 6.05526 11.5179C6.60723 12.8892 7.59406 14.0414 8.86421 14.7975C6.2964 15.6356 4.09609 17.4056 2.66828 19.875C2.61592 19.9604 2.58119 20.0554 2.56613 20.1544C2.55108 20.2534 2.55602 20.3544 2.58064 20.4515C2.60527 20.5486 2.64909 20.6397 2.70952 20.7196C2.76995 20.7995 2.84576 20.8664 2.93249 20.9165C3.01921 20.9666 3.11509 20.9988 3.21447 21.0113C3.31385 21.0237 3.41471 21.0161 3.51111 20.989C3.60751 20.9618 3.69748 20.9156 3.77573 20.8531C3.85398 20.7906 3.91892 20.713 3.96671 20.625C5.73296 17.5725 8.85484 15.75 12.317 15.75C15.7792 15.75 18.9011 17.5725 20.6673 20.625C20.7151 20.713 20.7801 20.7906 20.8583 20.8531C20.9366 20.9156 21.0265 20.9618 21.1229 20.989C21.2193 21.0161 21.3202 21.0237 21.4196 21.0113C21.519 20.9988 21.6148 20.9666 21.7016 20.9165C21.7883 20.8664 21.8641 20.7995 21.9245 20.7196C21.985 20.6397 22.0288 20.5486 22.0534 20.4515C22.078 20.3544 22.083 20.2534 22.0679 20.1544C22.0529 20.0554 22.0181 19.9604 21.9658 19.875ZM7.06703 8.99999C7.06703 7.96164 7.37493 6.9466 7.95181 6.08324C8.52869 5.21989 9.34863 4.54698 10.3079 4.14962C11.2673 3.75226 12.3229 3.64829 13.3413 3.85086C14.3597 4.05344 15.2951 4.55345 16.0293 5.28768C16.7636 6.0219 17.2636 6.95736 17.4661 7.97576C17.6687 8.99416 17.5648 10.0498 17.1674 11.0091C16.77 11.9684 16.0971 12.7883 15.2338 13.3652C14.3704 13.9421 13.3554 14.25 12.317 14.25C10.9251 14.2485 9.5906 13.6949 8.60636 12.7107C7.62212 11.7264 7.06852 10.3919 7.06703 8.99999Z" fill="#141414"/>
</svg>
