<svg width="26" height="26" viewBox="0 0 26 26" fill="none" xmlns="http://www.w3.org/2000/svg">
<path d="M21.1252 13C21.1249 11.7244 20.8241 10.4669 20.2471 9.32929C19.6701 8.19169 18.8331 7.20605 17.8041 6.45227L17.1704 2.96055C17.1026 2.58594 16.9054 2.24702 16.6132 2.00294C16.3211 1.75886 15.9525 1.6251 15.5718 1.625H10.4287C10.048 1.6251 9.67938 1.75886 9.38723 2.00294C9.09507 2.24702 8.89788 2.58594 8.83007 2.96055L8.19632 6.45227C7.16703 7.2058 6.32988 8.19138 5.75281 9.32903C5.17574 10.4667 4.875 11.7244 4.875 13C4.875 14.2756 5.17574 15.5333 5.75281 16.671C6.32988 17.8086 7.16703 18.7942 8.19632 19.5477L8.83007 23.0395C8.89788 23.4141 9.09507 23.753 9.38723 23.9971C9.67938 24.2411 10.048 24.3749 10.4287 24.375H15.5718C15.9525 24.3749 16.3211 24.2411 16.6132 23.9971C16.9054 23.753 17.1026 23.4141 17.1704 23.0395L17.8041 19.5477C18.8331 18.7939 19.6701 17.8083 20.2471 16.6707C20.8241 15.5331 21.1249 14.2756 21.1252 13ZM10.4287 3.25H15.5718L15.9689 5.43867C14.0611 4.68714 11.9393 4.68714 10.0316 5.43867L10.4287 3.25ZM6.50023 13C6.50023 11.7144 6.88145 10.4577 7.59567 9.38879C8.3099 8.31987 9.32507 7.48675 10.5128 6.99478C11.7005 6.50281 13.0074 6.37409 14.2683 6.6249C15.5292 6.8757 16.6874 7.49476 17.5964 8.40381C18.5055 9.31285 19.1245 10.471 19.3753 11.7319C19.6261 12.9928 19.4974 14.2997 19.0054 15.4874C18.5135 16.6752 17.6804 17.6903 16.6114 18.4046C15.5425 19.1188 14.2858 19.5 13.0002 19.5C11.2769 19.4981 9.62469 18.8127 8.40611 17.5941C7.18753 16.3755 6.50211 14.7233 6.50023 13ZM15.5718 22.75H10.4287L10.0316 20.5613C11.9393 21.3129 14.0611 21.3129 15.9689 20.5613L15.5718 22.75ZM12.1877 13V8.9375C12.1877 8.72201 12.2733 8.51535 12.4257 8.36298C12.5781 8.2106 12.7847 8.125 13.0002 8.125C13.2157 8.125 13.4224 8.2106 13.5748 8.36298C13.7271 8.51535 13.8127 8.72201 13.8127 8.9375V12.1875H17.0627C17.2782 12.1875 17.4849 12.2731 17.6373 12.4255C17.7896 12.5778 17.8752 12.7845 17.8752 13C17.8752 13.2155 17.7896 13.4222 17.6373 13.5745C17.4849 13.7269 17.2782 13.8125 17.0627 13.8125H13.0002C12.7847 13.8125 12.5781 13.7269 12.4257 13.5745C12.2733 13.4222 12.1877 13.2155 12.1877 13Z" fill="#141414"/>
</svg>
