<svg width="54" height="54" viewBox="0 0 54 54" fill="none" xmlns="http://www.w3.org/2000/svg">
<rect width="54" height="54" fill="#141414"/>
<path d="M17.2402 11.7067L18.4169 7H34.8903L36.067 11.7067C28.7864 8.55765 23.7119 8.76501 17.2402 11.7067Z" fill="#D5A60A"/>
<path d="M11.034 25.1948C12.7723 16.2452 20.7345 10.8731 29.564 12.5881C38.3334 14.2915 43.7055 22.2537 41.9671 31.2033C40.2288 40.1529 32.2666 45.525 23.4972 43.8216C14.6677 42.1066 9.29559 34.1444 11.034 25.1948ZM19.1254 23.65C17.527 31.8788 20.0947 40.4805 25.6206 41.5539C29.3446 42.2772 32.604 39.2952 33.8757 32.7482C35.4741 24.5193 32.9064 15.9176 27.3805 14.8442C23.6565 14.1209 20.3971 17.1029 19.1254 23.65Z" fill="white"/>
</svg>
