<svg width="93" height="24" viewBox="0 0 93 24" fill="none" xmlns="http://www.w3.org/2000/svg">
<path d="M24.8018 5.62852L25.4687 2.96068H34.8062L35.4731 5.62852C31.3464 3.84359 28.47 3.96112 24.8018 5.62852Z" fill="#D5A60A"/>
<path d="M80.5985 15.4623L87.2921 11.3351C86.9453 8.87268 85.8008 7.41604 84.1014 7.41604C81.8817 7.41604 80.3904 9.84378 80.3904 13.2079C80.3904 14.0056 80.4598 14.7686 80.5985 15.4623ZM91.2806 10.5027L80.9453 16.8842C81.8817 19.6935 83.928 21.5316 86.7025 21.5316C88.61 21.5316 90.3788 20.6646 91.3499 19.2426L91.7661 19.5894C90.3788 22.364 87.8817 23.994 84.7603 23.994C79.9395 23.994 76.0898 20.1443 76.0898 14.9767C76.0898 9.8091 79.9395 5.9594 84.9684 5.9594C88.5754 5.9594 91.2806 7.97095 91.2806 10.5027Z" fill="#141414"/>
<path d="M68.9715 21.2194V3.39285C68.9715 2.24835 68.7288 1.62407 68.1045 1.13852V0.965114L73.0293 -0.00598145L73.1334 0.0633835V21.2194C73.1334 22.3639 73.3762 22.9882 74.0004 23.4737V23.6471H68.1045V23.4737C68.7288 22.9882 68.9715 22.3639 68.9715 21.2194Z" fill="#141414"/>
<path d="M60.3274 2.87267C60.3274 1.52008 61.2985 0.548981 62.6511 0.548981C64.0037 0.548981 64.9748 1.52008 64.9748 2.87267C64.9748 4.22527 64.0037 5.23105 62.6511 5.23105C61.2985 5.23105 60.3274 4.22527 60.3274 2.87267ZM60.6395 21.2194V9.63566C60.6395 8.49116 60.3967 7.86688 59.7725 7.38133V7.20792L64.6973 6.23683L64.8014 6.30619V21.2194C64.8014 22.364 65.0441 22.9882 65.6684 23.4738V23.6472H59.7725V23.4738C60.3967 22.9882 60.6395 22.364 60.6395 21.2194Z" fill="#141414"/>
<path d="M41.9432 21.2194V3.39285C41.9432 2.24835 41.7004 1.62407 41.0762 1.13852V0.965114L46.001 -0.00598145L46.1051 0.0633835V8.00556C47.1108 6.75701 48.7062 5.95932 50.5097 5.95932C54.5675 5.95932 57.6888 9.8437 57.6888 14.8726C57.6888 19.9015 54.5675 23.994 50.6831 23.994C48.7062 23.994 47.1108 22.9535 46.1051 21.0807C46.0357 22.6414 45.0993 23.6471 43.6773 23.6471H41.0762V23.4737C41.7004 22.9882 41.9432 22.3639 41.9432 21.2194ZM46.1051 17.6125C46.4519 20.3523 48.2207 22.4679 50.1975 22.4679C52.2091 22.4679 53.3883 20.3177 53.3883 16.7454C53.3883 11.7512 51.0993 8.21365 48.5328 8.21365C47.0068 8.21365 46.1051 9.42752 46.1051 11.5778V17.6125Z" fill="#141414"/>
<path d="M21.2835 13.2738C22.2689 8.20104 26.782 5.15602 31.7867 6.12814C36.7574 7.09365 39.8024 11.6068 38.8171 16.6796C37.8317 21.7524 33.3186 24.7974 28.3479 23.8319C23.3432 22.8598 20.2982 18.3466 21.2835 13.2738ZM25.8699 12.3982C24.9639 17.0625 26.4193 21.9381 29.5515 22.5465C31.6623 22.9565 33.5099 21.2662 34.2307 17.5552C35.1367 12.891 33.6813 8.01534 30.5491 7.40694C28.4382 6.99693 26.5907 8.68721 25.8699 12.3982Z" fill="#141414"/>
<path d="M3.27107 19.3813C3.27107 21.6356 3.61789 22.8842 4.48494 23.4737V23.6472H0.669922V23.4737C1.53697 22.8842 1.88379 21.6356 1.88379 19.3813V4.32928C1.88379 2.07495 1.53697 0.826403 0.669922 0.23681V0.0634003H5.38667L16.4502 17.9593V4.32928C16.4502 2.07495 16.1034 0.826403 15.2364 0.23681V0.0634003H19.0514V0.23681C18.1843 0.826403 17.8375 2.07495 17.8375 4.32928V23.6472H15.0629L3.27107 4.53738V19.3813Z" fill="#141414"/>
</svg>
