<svg width="123" height="33" viewBox="0 0 123 33" fill="none" xmlns="http://www.w3.org/2000/svg">
<path d="M32.7344 7.50439L33.6237 3.94727H46.0736L46.9629 7.50439C41.4605 5.12448 37.6254 5.28119 32.7344 7.50439Z" fill="#D5A60A"/>
<path d="M107.131 20.6168L116.056 15.1139C115.593 11.8307 114.067 9.88848 111.801 9.88848C108.842 9.88848 106.853 13.1255 106.853 17.611C106.853 18.6746 106.946 19.6919 107.131 20.6168ZM121.373 14.0041L107.593 22.5127C108.842 26.2584 111.57 28.7092 115.269 28.7092C117.813 28.7092 120.171 27.5532 121.466 25.6572L122.021 26.1197C120.171 29.8191 116.842 31.9925 112.68 31.9925C106.252 31.9925 101.119 26.8595 101.119 19.9694C101.119 13.0792 106.252 7.94629 112.957 7.94629C117.766 7.94629 121.373 10.6284 121.373 14.0041Z" fill="#141414"/>
<path d="M91.6287 28.2927V4.52397C91.6287 2.99796 91.305 2.16559 90.4727 1.51819V1.28698L97.0391 -0.0078125L97.1778 0.0846742V28.2927C97.1778 29.8187 97.5015 30.6511 98.3339 31.2985V31.5297H90.4727V31.2985C91.305 30.6511 91.6287 29.8187 91.6287 28.2927Z" fill="#141414"/>
<path d="M80.1032 3.83068C80.1032 2.02722 81.398 0.732422 83.2014 0.732422C85.0049 0.732422 86.2997 2.02722 86.2997 3.83068C86.2997 5.63414 85.0049 6.97518 83.2014 6.97518C81.398 6.97518 80.1032 5.63414 80.1032 3.83068ZM80.5194 28.293V12.848C80.5194 11.322 80.1956 10.4896 79.3633 9.84223V9.61101L85.9297 8.31622L86.0685 8.4087V28.293C86.0685 29.8191 86.3922 30.6514 87.2245 31.2988V31.53H79.3633V31.2988C80.1956 30.6514 80.5194 29.8191 80.5194 28.293Z" fill="#141414"/>
<path d="M55.5916 28.2927V4.52397C55.5916 2.99796 55.2679 2.16559 54.4355 1.51819V1.28698L61.002 -0.0078125L61.1407 0.0846742V10.6742C62.4818 9.00951 64.6089 7.94592 67.0135 7.94592C72.4239 7.94592 76.5858 13.1251 76.5858 19.8303C76.5858 26.5355 72.4239 31.9921 67.2448 31.9921C64.6089 31.9921 62.4818 30.6048 61.1407 28.1077C61.0482 30.1886 59.7997 31.5297 57.9037 31.5297H54.4355V31.2985C55.2679 30.6511 55.5916 29.8187 55.5916 28.2927ZM61.1407 23.4835C61.6032 27.1366 63.9615 29.9574 66.5974 29.9574C69.2794 29.9574 70.8517 27.0904 70.8517 22.3274C70.8517 15.6684 67.7997 10.9517 64.3777 10.9517C62.343 10.9517 61.1407 12.5702 61.1407 15.4372V23.4835Z" fill="#141414"/>
<path d="M28.0434 17.699C29.3572 10.9352 35.3747 6.87522 42.0477 8.17138C48.6752 9.45872 52.7352 15.4762 51.4214 22.24C50.1076 29.0037 44.0901 33.0637 37.4626 31.7764C30.7896 30.4802 26.7296 24.4627 28.0434 17.699ZM34.1586 16.5315C32.9506 22.7505 34.8911 29.2513 39.0674 30.0625C41.8818 30.6092 44.3452 28.3555 45.3063 23.4075C46.5143 17.1885 44.5737 10.6876 40.3975 9.87645C37.583 9.32977 35.1197 11.5835 34.1586 16.5315Z" fill="#141414"/>
<path d="M4.02875 25.8421C4.02875 28.8479 4.49117 30.5126 5.64724 31.2988V31.53H0.560547V31.2988C1.71661 30.5126 2.17904 28.8479 2.17904 25.8421V5.77281C2.17904 2.76703 1.71661 1.1023 0.560547 0.316174V0.0849609H6.84955L21.601 23.9462V5.77281C21.601 2.76703 21.1385 1.1023 19.9825 0.316174V0.0849609H25.0692V0.316174C23.9131 1.1023 23.4507 2.76703 23.4507 5.77281V31.53H19.7512L4.02875 6.05026V25.8421Z" fill="#141414"/>
</svg>
