<svg width="92" height="25" viewBox="0 0 92 25" fill="none" xmlns="http://www.w3.org/2000/svg">
<path d="M24.1299 5.63415L24.7968 2.96631H34.1343L34.8013 5.63415C30.6745 3.84922 27.7982 3.96675 24.1299 5.63415Z" fill="#D5A60A"/>
<path d="M79.9276 15.4687L86.6212 11.3415C86.2744 8.87911 85.1299 7.42247 83.4305 7.42247C81.2108 7.42247 79.7195 9.8502 79.7195 13.2144C79.7195 14.012 79.7889 14.775 79.9276 15.4687ZM90.6097 10.5092L80.2744 16.8906C81.2108 19.6999 83.2571 21.538 86.0316 21.538C87.9391 21.538 89.7079 20.671 90.679 19.249L91.0952 19.5958C89.7079 22.3704 87.2108 24.0005 84.0894 24.0005C79.2686 24.0005 75.4189 20.1508 75.4189 14.9831C75.4189 9.81552 79.2686 5.96582 84.2975 5.96582C87.9045 5.96582 90.6097 7.97738 90.6097 10.5092Z" fill="white"/>
<path d="M68.3011 21.2254V3.39883C68.3011 2.25433 68.0584 1.63005 67.4341 1.14451V0.971096L72.3589 0L72.463 0.069365V21.2254C72.463 22.3699 72.7057 22.9942 73.33 23.4797V23.6531H67.4341V23.4797C68.0584 22.9942 68.3011 22.3699 68.3011 21.2254Z" fill="white"/>
<path d="M59.657 2.87887C59.657 1.52627 60.6281 0.555176 61.9807 0.555176C63.3333 0.555176 64.3044 1.52627 64.3044 2.87887C64.3044 4.23147 63.3333 5.23724 61.9807 5.23724C60.6281 5.23724 59.657 4.23147 59.657 2.87887ZM59.9691 21.2256V9.64186C59.9691 8.49735 59.7263 7.87308 59.1021 7.38753V7.21412L64.0269 6.24302L64.1309 6.31239V21.2256C64.1309 22.3702 64.3737 22.9944 64.998 23.48V23.6534H59.1021V23.48C59.7263 22.9944 59.9691 22.3702 59.9691 21.2256Z" fill="white"/>
<path d="M41.2733 21.2254V3.39883C41.2733 2.25433 41.0305 1.63005 40.4062 1.14451V0.971096L45.3311 0L45.4351 0.069365V8.01154C46.4409 6.76299 48.0363 5.9653 49.8397 5.9653C53.8975 5.9653 57.0189 9.84969 57.0189 14.8786C57.0189 19.9075 53.8975 23.9999 50.0132 23.9999C48.0363 23.9999 46.4409 22.9595 45.4351 21.0867C45.3658 22.6473 44.4294 23.6531 43.0074 23.6531H40.4062V23.4797C41.0305 22.9942 41.2733 22.3699 41.2733 21.2254ZM45.4351 17.6185C45.782 20.3583 47.5507 22.4739 49.5276 22.4739C51.5392 22.4739 52.7184 20.3236 52.7184 16.7514C52.7184 11.7572 50.4293 8.21963 47.8629 8.21963C46.3369 8.21963 45.4351 9.4335 45.4351 11.5838V17.6185Z" fill="white"/>
<path d="M20.6121 13.2801C21.5975 8.20729 26.1106 5.16227 31.1153 6.13439C36.086 7.0999 39.131 11.613 38.1457 16.6858C37.1603 21.7586 32.6472 24.8037 27.6765 23.8381C22.6718 22.866 19.6268 18.3529 20.6121 13.2801ZM25.1985 12.4044C24.2925 17.0687 25.7479 21.9443 28.8801 22.5527C30.991 22.9627 32.8385 21.2725 33.5593 17.5615C34.4653 12.8972 33.0099 8.0216 29.8777 7.41319C27.7669 7.00318 25.9193 8.69347 25.1985 12.4044Z" fill="white"/>
<path d="M2.60115 19.3872C2.60115 21.6415 2.94797 22.8901 3.81502 23.4797V23.6531H0V23.4797C0.86705 22.8901 1.21387 21.6415 1.21387 19.3872V4.33522C1.21387 2.08089 0.86705 0.832339 0 0.242746V0.0693359H4.71675L15.7803 17.9652V4.33522C15.7803 2.08089 15.4335 0.832339 14.5664 0.242746V0.0693359H18.3815V0.242746C17.5144 0.832339 17.1676 2.08089 17.1676 4.33522V23.6531H14.393L2.60115 4.54331V19.3872Z" fill="white"/>
</svg>
