<svg width="596" height="96" viewBox="0 0 596 96" fill="none" xmlns="http://www.w3.org/2000/svg">
<rect width="596" height="96" fill="#EFEFEF"/>
<path d="M79.7354 39.5044L80.6246 35.9473H93.0746L93.9639 39.5044C88.4615 37.1245 84.6264 37.2812 79.7354 39.5044Z" fill="#D5A60A"/>
<path d="M154.131 52.6168L163.056 47.1139C162.593 43.8307 161.067 41.8885 158.801 41.8885C155.842 41.8885 153.853 45.1255 153.853 49.611C153.853 50.6746 153.946 51.6919 154.131 52.6168ZM168.373 46.0041L154.593 54.5127C155.842 58.2584 158.57 60.7092 162.269 60.7092C164.813 60.7092 167.171 59.5532 168.466 57.6572L169.021 58.1197C167.171 61.8191 163.842 63.9925 159.68 63.9925C153.252 63.9925 148.119 58.8595 148.119 51.9694C148.119 45.0792 153.252 39.9463 159.957 39.9463C164.766 39.9463 168.373 42.6284 168.373 46.0041Z" fill="#141414"/>
<path d="M138.629 60.2927V36.524C138.629 34.998 138.305 34.1656 137.473 33.5182V33.287L144.039 31.9922L144.178 32.0847V60.2927C144.178 61.8187 144.502 62.6511 145.334 63.2985V63.5297H137.473V63.2985C138.305 62.6511 138.629 61.8187 138.629 60.2927Z" fill="#141414"/>
<path d="M127.103 35.8307C127.103 34.0272 128.398 32.7324 130.201 32.7324C132.005 32.7324 133.3 34.0272 133.3 35.8307C133.3 37.6341 132.005 38.9752 130.201 38.9752C128.398 38.9752 127.103 37.6341 127.103 35.8307ZM127.519 60.293V44.848C127.519 43.322 127.196 42.4896 126.363 41.8422V41.611L132.93 40.3162L133.068 40.4087V60.293C133.068 61.8191 133.392 62.6514 134.225 63.2988V63.53H126.363V63.2988C127.196 62.6514 127.519 61.8191 127.519 60.293Z" fill="#141414"/>
<path d="M102.592 60.2927V36.524C102.592 34.998 102.268 34.1656 101.436 33.5182V33.287L108.002 31.9922L108.141 32.0847V42.6742C109.482 41.0095 111.609 39.9459 114.014 39.9459C119.424 39.9459 123.586 45.1251 123.586 51.8303C123.586 58.5355 119.424 63.9921 114.245 63.9921C111.609 63.9921 109.482 62.6048 108.141 60.1077C108.048 62.1886 106.8 63.5297 104.904 63.5297H101.436V63.2985C102.268 62.6511 102.592 61.8187 102.592 60.2927ZM108.141 55.4835C108.603 59.1366 110.962 61.9574 113.597 61.9574C116.279 61.9574 117.852 59.0904 117.852 54.3274C117.852 47.6684 114.8 42.9517 111.378 42.9517C109.343 42.9517 108.141 44.5702 108.141 47.4372V55.4835Z" fill="#141414"/>
<path d="M75.0444 49.699C76.3582 42.9352 82.3757 38.8752 89.0486 40.1714C95.6762 41.4587 99.7362 47.4762 98.4224 54.24C97.1086 61.0037 91.0911 65.0637 84.4636 63.7764C77.7906 62.4802 73.7306 56.4627 75.0444 49.699ZM81.1595 48.5315C79.9515 54.7505 81.8921 61.2513 86.0684 62.0625C88.8828 62.6092 91.3462 60.3555 92.3073 55.4075C93.5153 49.1885 91.5747 42.6876 87.3984 41.8764C84.584 41.3298 82.1206 43.5835 81.1595 48.5315Z" fill="#141414"/>
<path d="M51.0287 57.8421C51.0287 60.8479 51.4912 62.5126 52.6472 63.2988V63.53H47.5605V63.2988C48.7166 62.5126 49.179 60.8479 49.179 57.8421V37.7728C49.179 34.767 48.7166 33.1023 47.5605 32.3162V32.085H53.8495L68.601 55.9462V37.7728C68.601 34.767 68.1385 33.1023 66.9825 32.3162V32.085H72.0692V32.3162C70.9131 33.1023 70.4507 34.767 70.4507 37.7728V63.53H66.7512L51.0287 38.0503V57.8421Z" fill="#141414"/>
</svg>
