<svg width="46" height="46" viewBox="0 0 46 46" fill="none" xmlns="http://www.w3.org/2000/svg">
<rect width="46" height="46" rx="23" fill="black" fill-opacity="0.01"/>
<path d="M32.7506 23.0005C32.7506 23.2159 32.665 23.4226 32.5127 23.575C32.3603 23.7274 32.1536 23.813 31.9381 23.813H16.0243L21.9505 29.7381C22.026 29.8136 22.0859 29.9032 22.1267 30.0019C22.1676 30.1005 22.1886 30.2062 22.1886 30.313C22.1886 30.4197 22.1676 30.5254 22.1267 30.6241C22.0859 30.7227 22.026 30.8123 21.9505 30.8878C21.875 30.9633 21.7854 31.0232 21.6867 31.064C21.5881 31.1049 21.4824 31.1259 21.3756 31.1259C21.2689 31.1259 21.1632 31.1049 21.0645 31.064C20.9659 31.0232 20.8763 30.9633 20.8008 30.8878L13.4883 23.5753C13.4128 23.4998 13.3528 23.4102 13.3119 23.3116C13.271 23.213 13.25 23.1072 13.25 23.0005C13.25 22.8937 13.271 22.7879 13.3119 22.6893C13.3528 22.5907 13.4128 22.5011 13.4883 22.4256L20.8008 15.1131C20.9533 14.9606 21.16 14.875 21.3756 14.875C21.5912 14.875 21.798 14.9606 21.9505 15.1131C22.1029 15.2656 22.1886 15.4723 22.1886 15.688C22.1886 15.9036 22.1029 16.1103 21.9505 16.2628L16.0243 22.188H31.9381C32.1536 22.188 32.3603 22.2736 32.5127 22.4259C32.665 22.5783 32.7506 22.785 32.7506 23.0005Z" fill="white"/>
<rect width="46" height="46" rx="23" fill="black" fill-opacity="0.01"/>
<path d="M32.7506 23.0005C32.7506 23.2159 32.665 23.4226 32.5127 23.575C32.3603 23.7274 32.1536 23.813 31.9381 23.813H16.0243L21.9505 29.7381C22.026 29.8136 22.0859 29.9032 22.1267 30.0019C22.1676 30.1005 22.1886 30.2062 22.1886 30.313C22.1886 30.4197 22.1676 30.5254 22.1267 30.6241C22.0859 30.7227 22.026 30.8123 21.9505 30.8878C21.875 30.9633 21.7854 31.0232 21.6867 31.064C21.5881 31.1049 21.4824 31.1259 21.3756 31.1259C21.2689 31.1259 21.1632 31.1049 21.0645 31.064C20.9659 31.0232 20.8763 30.9633 20.8008 30.8878L13.4883 23.5753C13.4128 23.4998 13.3528 23.4102 13.3119 23.3116C13.271 23.213 13.25 23.1072 13.25 23.0005C13.25 22.8937 13.271 22.7879 13.3119 22.6893C13.3528 22.5907 13.4128 22.5011 13.4883 22.4256L20.8008 15.1131C20.9533 14.9606 21.16 14.875 21.3756 14.875C21.5912 14.875 21.798 14.9606 21.9505 15.1131C22.1029 15.2656 22.1886 15.4723 22.1886 15.688C22.1886 15.9036 22.1029 16.1103 21.9505 16.2628L16.0243 22.188H31.9381C32.1536 22.188 32.3603 22.2736 32.5127 22.4259C32.665 22.5783 32.7506 22.785 32.7506 23.0005Z" fill="white"/>
</svg>
