<svg width="27" height="26" viewBox="0 0 27 26" fill="none" xmlns="http://www.w3.org/2000/svg">
<path d="M18.4111 4.0625C16.3139 4.0625 14.4776 4.96437 13.333 6.48883C12.1884 4.96437 10.3521 4.0625 8.25488 4.0625C6.58543 4.06438 4.98488 4.7284 3.8044 5.90889C2.62391 7.08938 1.95989 8.68992 1.95801 10.3594C1.95801 17.4688 12.4992 23.2233 12.9481 23.4609C13.0664 23.5246 13.1987 23.5579 13.333 23.5579C13.4674 23.5579 13.5996 23.5246 13.7179 23.4609C14.1668 23.2233 24.708 17.4688 24.708 10.3594C24.7061 8.68992 24.0421 7.08938 22.8616 5.90889C21.6811 4.7284 20.0806 4.06438 18.4111 4.0625ZM13.333 21.8156C11.4785 20.735 3.58301 15.8123 3.58301 10.3594C3.58462 9.12081 4.07735 7.93344 4.95315 7.05764C5.82895 6.18184 7.01632 5.68911 8.25488 5.6875C10.2303 5.6875 11.8888 6.73969 12.5814 8.42969C12.6427 8.57871 12.7468 8.70617 12.8806 8.79587C13.0144 8.88557 13.1719 8.93346 13.333 8.93346C13.4941 8.93346 13.6516 8.88557 13.7854 8.79587C13.9192 8.70617 14.0234 8.57871 14.0846 8.42969C14.7772 6.73664 16.4357 5.6875 18.4111 5.6875C19.6497 5.68911 20.8371 6.18184 21.7129 7.05764C22.5887 7.93344 23.0814 9.12081 23.083 10.3594C23.083 15.8041 15.1855 20.734 13.333 21.8156Z" fill="#141414"/>
</svg>
