<svg width="27" height="26" viewBox="0 0 27 26" fill="none" xmlns="http://www.w3.org/2000/svg">
<path d="M25.0442 13.8125L14.958 3.72632C14.8077 3.57477 14.6287 3.45461 14.4315 3.37284C14.2343 3.29107 14.0228 3.24931 13.8093 3.24999H4.39552C4.18003 3.24999 3.97337 3.3356 3.82099 3.48797C3.66862 3.64034 3.58302 3.847 3.58302 4.06249V13.4763C3.58233 13.6898 3.62409 13.9013 3.70587 14.0985C3.78764 14.2957 3.90779 14.4746 4.05934 14.625L14.1455 24.7112C14.2964 24.8621 14.4756 24.9818 14.6727 25.0635C14.8699 25.1452 15.0813 25.1872 15.2947 25.1872C15.5081 25.1872 15.7195 25.1452 15.9166 25.0635C16.1138 24.9818 16.293 24.8621 16.4439 24.7112L25.0442 16.1109C25.1951 15.96 25.3148 15.7808 25.3965 15.5836C25.4782 15.3864 25.5203 15.1751 25.5203 14.9617C25.5203 14.7482 25.4782 14.5369 25.3965 14.3397C25.3148 14.1425 25.1951 13.9634 25.0442 13.8125ZM15.2942 23.5625L5.20802 13.4763V4.87499H13.8093L23.8955 14.9612L15.2942 23.5625ZM10.083 8.53124C10.083 8.77229 10.0115 9.00792 9.87762 9.20834C9.7437 9.40877 9.55336 9.56498 9.33066 9.65722C9.10796 9.74946 8.86291 9.7736 8.6265 9.72657C8.39008 9.67955 8.17292 9.56347 8.00248 9.39303C7.83203 9.22258 7.71596 9.00542 7.66893 8.76901C7.62191 8.53259 7.64604 8.28754 7.73829 8.06485C7.83053 7.84215 7.98674 7.65181 8.18716 7.51789C8.38759 7.38397 8.62322 7.31249 8.86427 7.31249C9.1875 7.31249 9.49749 7.4409 9.72605 7.66946C9.95461 7.89802 10.083 8.20801 10.083 8.53124Z" fill="#141414"/>
</svg>
