<svg width="23" height="22" viewBox="0 0 23 22" fill="none" xmlns="http://www.w3.org/2000/svg">
<rect width="12.375" height="12.375" transform="translate(5.3125 4.8125)" fill="white"/>
<path fill-rule="evenodd" clip-rule="evenodd" d="M20.2633 9.84328L19.0258 8.39495C18.7966 8.11995 18.6041 7.60661 18.6041 7.23995V5.68161C18.6041 4.70995 17.8066 3.91245 16.835 3.91245H15.2766C14.91 3.91245 14.3875 3.71995 14.1125 3.49078L12.6641 2.25328C12.0316 1.71245 10.9958 1.71245 10.3633 2.25328L8.89664 3.49078C8.62164 3.71995 8.10831 3.91245 7.74164 3.91245H6.15581C5.18414 3.91245 4.38664 4.70995 4.38664 5.68161V7.23995C4.38664 7.59745 4.20331 8.11078 3.97414 8.38578L2.73664 9.84328C2.20497 10.4849 2.20497 11.5116 2.73664 12.1349L3.97414 13.5924C4.20331 13.8583 4.38664 14.3808 4.38664 14.7383V16.3058C4.38664 17.2774 5.18414 18.0749 6.15581 18.0749H7.75081C8.10831 18.0749 8.63081 18.2674 8.90581 18.4966L10.3541 19.7341C10.9866 20.2749 12.0225 20.2749 12.655 19.7341L14.1033 18.4966C14.3783 18.2674 14.8916 18.0749 15.2583 18.0749H16.8166C17.7883 18.0749 18.5858 17.2774 18.5858 16.3058V14.7474C18.5858 14.3808 18.7783 13.8674 19.0075 13.5924L20.245 12.1441C20.8041 11.5208 20.8041 10.4849 20.2633 9.84328ZM10.6848 14.0892L15.8823 8.89174C16.1482 8.61674 16.1482 8.1859 15.8823 7.92007C15.6165 7.65424 15.1765 7.65424 14.9107 7.92007L10.199 12.6317L8.09066 10.5234C7.82483 10.2576 7.38483 10.2576 7.11899 10.5234C6.99114 10.6528 6.91943 10.8273 6.91943 11.0092C6.91943 11.1911 6.99114 11.3657 7.11899 11.4951L9.71316 14.0892C9.84207 14.218 10.0168 14.2903 10.199 14.2903C10.3812 14.2903 10.5559 14.218 10.6848 14.0892Z" fill="#2951A3"/>
</svg>
