<svg width="248" height="33" viewBox="0 0 248 33" fill="none" xmlns="http://www.w3.org/2000/svg">
<path d="M32.7354 7.5047L33.6246 3.94757H46.0746L46.9639 7.5047C41.4615 5.12478 37.6264 5.28149 32.7354 7.5047Z" fill="#D5A60A"/>
<path d="M107.131 20.6164L116.056 15.1135C115.593 11.8303 114.067 9.88812 111.801 9.88812C108.842 9.88812 106.853 13.1251 106.853 17.6106C106.853 18.6742 106.946 19.6916 107.131 20.6164ZM121.373 14.0037L107.593 22.5124C108.842 26.258 111.57 28.7089 115.269 28.7089C117.813 28.7089 120.171 27.5528 121.466 25.6569L122.021 26.1193C120.171 29.8187 116.842 31.9921 112.68 31.9921C106.252 31.9921 101.119 26.8592 101.119 19.969C101.119 13.0789 106.252 7.94592 112.957 7.94592C117.766 7.94592 121.373 10.628 121.373 14.0037Z" fill="#141414"/>
<path d="M91.6287 28.2926V4.52384C91.6287 2.99784 91.305 2.16547 90.4727 1.51807V1.28686L97.0391 -0.00793457L97.1778 0.0845521V28.2926C97.1778 29.8186 97.5015 30.6509 98.3339 31.2983V31.5296H90.4727V31.2983C91.305 30.6509 91.6287 29.8186 91.6287 28.2926Z" fill="#141414"/>
<path d="M80.1032 3.83025C80.1032 2.02679 81.398 0.731995 83.2014 0.731995C85.0049 0.731995 86.2997 2.02679 86.2997 3.83025C86.2997 5.63372 85.0049 6.97475 83.2014 6.97475C81.398 6.97475 80.1032 5.63372 80.1032 3.83025ZM80.5194 28.2926V12.8476C80.5194 11.3216 80.1956 10.4892 79.3633 9.8418V9.61058L85.9297 8.31579L86.0685 8.40828V28.2926C86.0685 29.8186 86.3922 30.651 87.2245 31.2984V31.5296H79.3633V31.2984C80.1956 30.651 80.5194 29.8186 80.5194 28.2926Z" fill="#141414"/>
<path d="M55.5916 28.2926V4.52384C55.5916 2.99784 55.2679 2.16547 54.4355 1.51807V1.28686L61.002 -0.00793457L61.1407 0.0845521V10.6741C62.4818 9.00939 64.6089 7.9458 67.0135 7.9458C72.4239 7.9458 76.5858 13.125 76.5858 19.8302C76.5858 26.5354 72.4239 31.992 67.2448 31.992C64.6089 31.992 62.4818 30.6047 61.1407 28.1076C61.0482 30.1885 59.7997 31.5296 57.9037 31.5296H54.4355V31.2983C55.2679 30.6509 55.5916 29.8186 55.5916 28.2926ZM61.1407 23.4833C61.6032 27.1365 63.9615 29.9573 66.5974 29.9573C69.2794 29.9573 70.8517 27.0903 70.8517 22.3273C70.8517 15.6683 67.7997 10.9516 64.3777 10.9516C62.343 10.9516 61.1407 12.5701 61.1407 15.4371V23.4833Z" fill="#141414"/>
<path d="M28.0444 17.6985C29.3582 10.9348 35.3757 6.87473 42.0486 8.17089C48.6762 9.45824 52.7362 15.4757 51.4224 22.2395C50.1086 29.0032 44.0911 33.0632 37.4636 31.7759C30.7906 30.4797 26.7306 24.4622 28.0444 17.6985ZM34.1595 16.531C32.9515 22.75 34.8921 29.2508 39.0684 30.062C41.8828 30.6087 44.3462 28.355 45.3073 23.407C46.5153 17.188 44.5747 10.6872 40.3984 9.87596C37.584 9.32928 35.1206 11.583 34.1595 16.531Z" fill="#141414"/>
<path d="M4.02875 25.8418C4.02875 28.8475 4.49117 30.5123 5.64724 31.2984V31.5296H0.560547V31.2984C1.71661 30.5123 2.17904 28.8475 2.17904 25.8418V5.77244C2.17904 2.76667 1.71661 1.10193 0.560547 0.315808V0.0845947H6.84955L21.601 23.9458V5.77244C21.601 2.76667 21.1385 1.10193 19.9825 0.315808V0.0845947H25.0692V0.315808C23.9131 1.10193 23.4507 2.76667 23.4507 5.77244V31.5296H19.7512L4.02875 6.0499V25.8418Z" fill="#141414"/>
</svg>
