<svg width="33" height="33" viewBox="0 0 33 33" fill="none" xmlns="http://www.w3.org/2000/svg">
<path d="M26.6207 5.98692C20.5242 1.09615 10.7788 1.34452 5.09318 6.76817C1.76492 9.88418 0.604328 14.9601 2.01782 19.2593C3.03391 22.6462 5.44994 25.4506 8.27692 27.4919C6.50216 27.4919 4.72739 27.4828 2.95262 27.5009C2.17588 26.6429 1.82363 24.8771 0.301758 25.2655C1.04689 26.7512 1.85073 28.2054 2.60489 29.6821C6.24926 29.6866 9.89363 29.7905 13.538 29.6234C12.26 28.3138 10.7968 27.1893 9.62719 25.7758C7.18406 22.9759 5.608 19.3361 5.59897 15.5878C5.52671 12.2189 6.81827 8.72809 9.39687 6.4927C13.4025 2.77156 20.4474 3.11929 24.0285 7.27396C27.7903 11.4377 27.7587 17.9677 25.1214 22.7049C23.6537 25.4687 21.3145 27.5731 19.0113 29.6234C22.6557 29.8085 26.3091 29.6505 29.958 29.7137C30.7331 28.315 31.4709 26.8913 32.2072 25.4706L32.3018 25.2881C30.825 24.9494 30.4141 26.5932 29.7051 27.4783C27.8987 27.5144 26.0968 27.5235 24.295 27.4512C27.8265 25.0397 30.5947 21.2463 31.096 16.9291C31.6469 12.8241 29.8722 8.53843 26.6207 5.98692Z" fill="#141414"/>
</svg>
