<svg width="33" height="33" viewBox="0 0 33 33" fill="none" xmlns="http://www.w3.org/2000/svg">
<path fill-rule="evenodd" clip-rule="evenodd" d="M29.303 17.0585C27.9923 16.3425 25.9252 15.785 23.4994 15.389C25.4485 14.7119 25.8865 14.5131 27.118 13.5596C28.3898 12.6448 29.2238 10.8154 29.2238 8.98752C29.2238 4.21832 24.057 2.70725 20.0813 2.50846C17.3277 2.48968 15.0037 2.50547 12.3225 2.5237C9.23626 2.54467 5.67667 2.56886 0.443723 2.54724L0.40332 3.46197C0.476049 3.46197 0.545371 3.46177 0.611627 3.46157C1.45232 3.45906 1.79959 3.45802 2.35237 3.89995C2.90994 4.37671 2.98913 4.89225 2.98913 6.64252V25.3654C2.98913 25.6927 2.99421 26.0218 2.99914 26.3419C3.01817 27.5753 3.03513 28.6746 2.75156 29.0211C2.2344 29.6174 1.87561 29.737 0.60372 29.6966V30.6534H15.7065C19.8405 30.6534 26.638 30.5338 29.4209 28.3455C30.4957 27.7492 32.4431 25.9213 32.4027 22.8216C32.4027 19.0447 30.7736 17.8924 29.303 17.0585ZM7.71793 14.6327H14.2778C17.0204 14.6327 20.7165 14.5535 22.7851 12.884C23.6594 12.2085 24.495 10.4194 24.495 9.38509C24.495 7.71563 24.0974 6.9205 22.3875 5.8086C20.8671 4.84038 17.9035 4.86434 15.0906 4.88707C14.6685 4.89048 14.2498 4.89387 13.8398 4.89387H7.71793V14.6327ZM15.6289 27.5504H7.71793V17.136C8.43036 17.136 9.15153 17.1401 9.87569 17.1443C11.3331 17.1525 12.8025 17.1609 14.2374 17.136L14.3337 17.1353C19.2896 17.0952 22.6787 17.0678 24.9701 18.7651C26.0432 19.5602 27.0776 20.9534 27.0776 22.6228C27.0776 27.2353 21.3144 27.5504 15.6289 27.5504Z" fill="#141414"/>
</svg>
