<svg width="32" height="33" viewBox="0 0 32 33" fill="none" xmlns="http://www.w3.org/2000/svg">
<path fill-rule="evenodd" clip-rule="evenodd" d="M15.3302 31.2256L10.0465 25.7186H14.214L17.1535 18.7605H21.3953L23.3302 14.0349H18.0093L13.507 24.714H0L6.77209 8.82558H13.7302L13.9163 8.19302H9.89767L19.0512 2.5L24.4465 8.19302H20.2791L20.0186 8.82558H32L25.5628 24.714H20.8744L20.4279 25.7186H24.4465L15.3302 31.2256ZM13.1349 26.9837L15.5907 29.5512L19.6837 26.9837H18.4186L20.0186 23.4488H24.6698L29.9907 10.2395H7.62791L2.12093 23.4488H12.5767L16.4093 14.0349H13.1349L10.4186 19.9884H6.77209L10.2326 12.7326H25.3023L22.3256 19.9884H18.0093L14.9209 26.9837H13.1349ZM11.6093 14.0349H11.1256L8.85581 18.7605H9.6L11.6093 14.0349ZM18.5674 8.82558H15.107L16.0372 6.8907H14.586L18.8279 4.21163C19.6837 5.05504 21.3209 6.8907 21.3209 6.8907C21.3209 6.8907 20.1054 6.94031 19.4605 6.8907L18.5674 8.82558Z" fill="#141414"/>
</svg>
