<svg width="27" height="26" viewBox="0 0 27 26" fill="none" xmlns="http://www.w3.org/2000/svg">
<path d="M21.7917 13C21.7914 11.7244 21.4906 10.4669 20.9136 9.32929C20.3366 8.19169 19.4997 7.20605 18.4706 6.45227L17.8369 2.96055C17.7691 2.58594 17.5719 2.24702 17.2797 2.00294C16.9876 1.75886 16.619 1.6251 16.2383 1.625H11.0952C10.7145 1.6251 10.3459 1.75886 10.0537 2.00294C9.76157 2.24702 9.56439 2.58594 9.49658 2.96055L8.86282 6.45227C7.83353 7.2058 6.99638 8.19138 6.41931 9.32903C5.84224 10.4667 5.5415 11.7244 5.5415 13C5.5415 14.2756 5.84224 15.5333 6.41931 16.671C6.99638 17.8086 7.83353 18.7942 8.86282 19.5477L9.49658 23.0395C9.56439 23.4141 9.76157 23.753 10.0537 23.9971C10.3459 24.2411 10.7145 24.3749 11.0952 24.375H16.2383C16.619 24.3749 16.9876 24.2411 17.2797 23.9971C17.5719 23.753 17.7691 23.4141 17.8369 23.0395L18.4706 19.5477C19.4997 18.7939 20.3366 17.8083 20.9136 16.6707C21.4906 15.5331 21.7914 14.2756 21.7917 13ZM11.0952 3.25H16.2383L16.6354 5.43867C14.7276 4.68714 12.6058 4.68714 10.6981 5.43867L11.0952 3.25ZM7.16673 13C7.16673 11.7144 7.54795 10.4577 8.26218 9.38879C8.97641 8.31987 9.99157 7.48675 11.1793 6.99478C12.367 6.50281 13.6739 6.37409 14.9348 6.6249C16.1957 6.8757 17.3539 7.49476 18.2629 8.40381C19.172 9.31285 19.791 10.471 20.0418 11.7319C20.2926 12.9928 20.1639 14.2997 19.6719 15.4874C19.18 16.6752 18.3469 17.6903 17.2779 18.4046C16.209 19.1188 14.9523 19.5 13.6667 19.5C11.9434 19.4981 10.2912 18.8127 9.07262 17.5941C7.85404 16.3755 7.16861 14.7233 7.16673 13ZM16.2383 22.75H11.0952L10.6981 20.5613C12.6058 21.3129 14.7276 21.3129 16.6354 20.5613L16.2383 22.75ZM12.8542 13V8.9375C12.8542 8.72201 12.9398 8.51535 13.0922 8.36298C13.2446 8.2106 13.4512 8.125 13.6667 8.125C13.8822 8.125 14.0889 8.2106 14.2413 8.36298C14.3936 8.51535 14.4792 8.72201 14.4792 8.9375V12.1875H17.7292C17.9447 12.1875 18.1514 12.2731 18.3038 12.4255C18.4561 12.5778 18.5417 12.7845 18.5417 13C18.5417 13.2155 18.4561 13.4222 18.3038 13.5745C18.1514 13.7269 17.9447 13.8125 17.7292 13.8125H13.6667C13.4512 13.8125 13.2446 13.7269 13.0922 13.5745C12.9398 13.4222 12.8542 13.2155 12.8542 13Z" fill="#141414"/>
</svg>
