<svg width="27" height="26" viewBox="0 0 27 26" fill="none" xmlns="http://www.w3.org/2000/svg">
<path d="M12.854 21.9375C12.854 22.153 12.7684 22.3597 12.616 22.512C12.4637 22.6644 12.257 22.75 12.0415 22.75H5.5415C5.32602 22.75 5.11935 22.6644 4.96698 22.512C4.81461 22.3597 4.729 22.153 4.729 21.9375V4.0625C4.729 3.84701 4.81461 3.64035 4.96698 3.48798C5.11935 3.3356 5.32602 3.25 5.5415 3.25H12.0415C12.257 3.25 12.4637 3.3356 12.616 3.48798C12.7684 3.64035 12.854 3.84701 12.854 4.0625C12.854 4.27799 12.7684 4.48465 12.616 4.63702C12.4637 4.7894 12.257 4.875 12.0415 4.875H6.354V21.125H12.0415C12.257 21.125 12.4637 21.2106 12.616 21.363C12.7684 21.5153 12.854 21.722 12.854 21.9375ZM23.9913 12.4252L19.9288 8.36266C19.7764 8.2102 19.5696 8.12455 19.354 8.12455C19.1384 8.12455 18.9316 8.2102 18.7792 8.36266C18.6267 8.51511 18.5411 8.72189 18.5411 8.9375C18.5411 9.15311 18.6267 9.35989 18.7792 9.51234L21.4553 12.1875H12.0415C11.826 12.1875 11.6194 12.2731 11.467 12.4255C11.3146 12.5778 11.229 12.7845 11.229 13C11.229 13.2155 11.3146 13.4222 11.467 13.5745C11.6194 13.7269 11.826 13.8125 12.0415 13.8125H21.4553L18.7792 16.4877C18.6267 16.6401 18.5411 16.8469 18.5411 17.0625C18.5411 17.2781 18.6267 17.4849 18.7792 17.6373C18.9316 17.7898 19.1384 17.8755 19.354 17.8755C19.5696 17.8755 19.7764 17.7898 19.9288 17.6373L23.9913 13.5748C24.0669 13.4994 24.1268 13.4098 24.1677 13.3111C24.2086 13.2125 24.2296 13.1068 24.2296 13C24.2296 12.8932 24.2086 12.7875 24.1677 12.6889C24.1268 12.5902 24.0669 12.5006 23.9913 12.4252Z" fill="#D23423"/>
</svg>
