<svg width="131" height="36" viewBox="0 0 131 36" fill="none" xmlns="http://www.w3.org/2000/svg">
<path d="M2.19375 8.74721H15.8444V12.7982H7.61964V15.6953H14.6905V19.5744H7.61964V25.6387H2.19375V8.74721ZM18.1521 11.1533V7.83881H23.0378V11.1533H18.1521ZM18.1521 25.6387V12.6755H23.0378V25.6387H18.1521ZM32.073 12.3808C33.8079 12.3808 35.2729 12.7246 36.4677 13.412C37.6789 14.0831 38.2845 15.1306 38.2845 16.5546H33.7425C33.7425 16.0799 33.5297 15.7444 33.1041 15.548C32.8095 15.3843 32.4412 15.3025 31.9993 15.3025C30.8208 15.3025 30.2316 15.5807 30.2316 16.1372C30.2316 16.4482 30.4362 16.6692 30.8454 16.8001C31.2546 16.9311 31.9257 17.0702 32.8586 17.2175C34.0044 17.3812 34.9619 17.5776 35.7311 17.8067C36.5004 18.0195 37.1715 18.4123 37.7444 18.9852C38.3172 19.5417 38.6037 20.3274 38.6037 21.3422C38.6037 22.9953 37.9817 24.1738 36.7378 24.8776C35.5102 25.5814 33.898 25.9333 31.9011 25.9333C30.7554 25.9333 29.6751 25.7778 28.6603 25.4668C27.6455 25.1395 26.8189 24.6402 26.1806 23.9692C25.5423 23.2981 25.2231 22.447 25.2231 21.4158H29.7651V21.514C29.7815 22.0705 30.0106 22.4633 30.4526 22.6925C30.9109 22.9053 31.3937 23.0117 31.9011 23.0117C33.2596 23.0117 33.9389 22.6925 33.9389 22.0541C33.9389 21.7268 33.7261 21.4895 33.3005 21.3422C32.875 21.1948 32.1794 21.0394 31.2137 20.8757C30.0516 20.6793 29.094 20.4665 28.3411 20.2373C27.6046 20.0082 26.9581 19.6235 26.4016 19.0834C25.8451 18.5269 25.5668 17.7576 25.5668 16.7756C25.5668 15.1879 26.1642 14.0585 27.3591 13.3875C28.5703 12.7164 30.1416 12.3808 32.073 12.3808ZM49.3162 12.6755V15.9899H46.5664V20.9248C46.5664 21.514 46.6646 21.9478 46.8611 22.226C47.0575 22.4879 47.4176 22.6188 47.9413 22.6188H49.3162V25.4914C48.9234 25.6223 48.416 25.7287 47.794 25.8105C47.172 25.8924 46.6319 25.9333 46.1736 25.9333C44.7333 25.9333 43.6203 25.6714 42.8346 25.1476C42.0653 24.6239 41.6807 23.7318 41.6807 22.4715V15.9899H39.8639V12.6755H41.8771L42.9328 8.74721H46.5664V12.6755H49.3162ZM72.3049 25.6387L70.1198 15.3516H70.0216L67.8365 25.6387H61.8705L57.9177 8.74721H63.5645L65.5041 18.3223H65.6023L67.5173 8.74721H72.8696L74.9073 18.3223H75.0056L76.8224 8.74721H82.2237L78.2709 25.6387H72.3049ZM89.6293 12.3808C92.0026 12.3808 93.8112 12.9373 95.0552 14.0503C96.3155 15.1633 96.9456 16.8656 96.9456 19.1571V19.9918H87.2232C87.2232 20.9248 87.4278 21.6286 87.837 22.1033C88.2626 22.5779 88.9254 22.8152 89.8257 22.8152C90.6441 22.8152 91.2415 22.6434 91.6179 22.2997C92.0108 21.9559 92.2072 21.4976 92.2072 20.9248H96.9456C96.9456 22.4961 96.3482 23.7237 95.1534 24.6075C93.9585 25.4914 92.2154 25.9333 89.9239 25.9333C87.5178 25.9333 85.6519 25.3768 84.3261 24.2638C83.0003 23.1344 82.3375 21.4322 82.3375 19.1571C82.3375 16.9311 82.984 15.2452 84.277 14.0994C85.5701 12.9537 87.3542 12.3808 89.6293 12.3808ZM89.8257 15.4989C88.2871 15.4989 87.4278 16.2272 87.2478 17.684H92.0108C92.0108 17.0129 91.8143 16.4809 91.4215 16.0881C91.0451 15.6953 90.5131 15.4989 89.8257 15.4989ZM105.465 12.3808C107.445 12.3808 109.058 12.7164 110.301 13.3875C111.545 14.0422 112.167 15.1142 112.167 16.6037V21.6613C112.167 21.9396 112.233 22.1687 112.364 22.3488C112.495 22.5288 112.691 22.6188 112.953 22.6188H113.837V25.4423C113.788 25.475 113.657 25.5323 113.444 25.6141C113.248 25.6796 112.961 25.7451 112.585 25.8105C112.208 25.8924 111.775 25.9333 111.284 25.9333C110.334 25.9333 109.549 25.7942 108.927 25.5159C108.321 25.2213 107.904 24.8203 107.674 24.3129C107.052 24.8039 106.357 25.1967 105.588 25.4914C104.818 25.786 103.918 25.9333 102.887 25.9333C99.8425 25.9333 98.3203 24.7221 98.3203 22.2997C98.3203 21.0394 98.6559 20.0818 99.3269 19.4271C100.014 18.7561 100.996 18.2978 102.273 18.0522C103.55 17.8067 105.219 17.684 107.282 17.684V17.0456C107.282 16.5382 107.102 16.1536 106.741 15.8917C106.398 15.6298 105.948 15.4989 105.391 15.4989C104.884 15.4989 104.442 15.5889 104.065 15.769C103.705 15.949 103.525 16.2354 103.525 16.6283V16.7265H98.7131C98.6968 16.6446 98.6886 16.5301 98.6886 16.3827C98.6886 15.1552 99.2696 14.1813 100.432 13.4611C101.61 12.7409 103.288 12.3808 105.465 12.3808ZM107.282 19.9918C105.89 19.9918 104.859 20.1473 104.188 20.4583C103.533 20.7529 103.206 21.1539 103.206 21.6613C103.206 22.4797 103.763 22.8889 104.876 22.8889C105.514 22.8889 106.07 22.717 106.545 22.3733C107.036 22.0296 107.282 21.604 107.282 21.0966V19.9918ZM123.068 12.3563C123.445 12.3563 123.78 12.4054 124.075 12.5036C124.369 12.5854 124.517 12.6345 124.517 12.6509V16.751H122.945C121.931 16.751 121.194 17.0129 120.736 17.5367C120.294 18.0604 120.073 18.8379 120.073 19.8691V25.6387H115.187V12.6755H119.189L119.508 14.6396C119.803 13.8867 120.269 13.322 120.908 12.9455C121.546 12.5527 122.266 12.3563 123.068 12.3563Z" fill="#40933B"/>
<path d="M122.117 26.1562V25.2106H123.124V26.1562H122.117ZM125.596 23.7233V26.1562H124.545V23.7233H123.471V22.8869H126.665V23.7233H125.596ZM129.904 26.1562V24.9778C129.904 24.8321 129.909 24.6832 129.918 24.5311C129.931 24.3759 129.944 24.246 129.956 24.1414C129.969 24.0369 129.977 23.9704 129.98 23.9419H129.961L129.358 26.1562H128.535L127.927 23.9466H127.908C127.911 23.9751 127.919 24.0416 127.932 24.1462C127.948 24.2476 127.962 24.3759 127.975 24.5311C127.987 24.6832 127.994 24.8321 127.994 24.9778V26.1562H127.029V22.8869H128.512L129.006 24.7734H129.025L129.514 22.8869H130.945V26.1562H129.904Z" fill="#40933B"/>
</svg>
