<svg width="320" height="126" viewBox="0 0 320 126" fill="none" xmlns="http://www.w3.org/2000/svg">
<rect width="320" height="126" rx="14" fill="#601111"/>
<path d="M121.645 54.5179L121.904 61.0253H121.411C120.651 58.7265 119.977 57.1623 119.389 56.3327C118.802 55.4858 117.955 55.0623 116.848 55.0623H116.537V72.1216H118.741V72.666H109.278V72.1216H111.482V55.0623H111.145C110.039 55.0623 109.183 55.5031 108.578 56.3845C107.973 57.2487 107.308 58.7956 106.582 61.0253H106.089L106.348 54.5179H121.645ZM136.802 54.5179H143.724V55.0105H142.298V72.1734H143.724V72.666H135.816V72.1734H137.242V55.9697H137.139L133.25 72.666H130.009L125.446 55.8919H125.342V72.1734H126.768V72.666H123.242V72.1734H124.668V55.0105H123.242V54.5179H130.242L133.69 67.8697L136.802 54.5179ZM154.22 72.4068C155.067 72.4068 155.602 72.2512 155.827 71.9401C156.069 71.629 156.19 71.1018 156.19 70.3586V65.329H154.531V64.7586H161.997V65.329H160.986V72.6401H160.597C160.286 72.208 159.846 71.9919 159.275 71.9919C159.033 71.9919 158.307 72.1475 157.097 72.4586C155.905 72.7697 154.885 72.9253 154.038 72.9253C151.221 72.9253 149.035 72.1648 147.479 70.6438C145.941 69.1228 145.172 66.8413 145.172 63.7993C145.172 60.7401 145.975 58.3808 147.583 56.7216C149.207 55.0623 151.385 54.2327 154.116 54.2327C155.17 54.2327 156.225 54.371 157.279 54.6475C158.351 54.9068 158.973 55.0364 159.146 55.0364C159.318 55.0364 159.448 55.0018 159.535 54.9327C159.621 54.8463 159.716 54.708 159.82 54.5179H160.105L160.312 60.1438H159.846C158.999 58.4673 158.143 57.1537 157.279 56.2031C156.432 55.2352 155.481 54.7512 154.427 54.7512C151.783 54.7512 150.46 57.3352 150.46 62.5031V64.5512C150.46 67.1438 150.78 69.1055 151.42 70.4364C152.076 71.75 153.01 72.4068 154.22 72.4068Z" fill="white"/>
<path d="M212.928 72.0502C212.492 72.0502 212.083 71.9865 211.7 71.859C211.324 71.7315 211.032 71.5704 210.824 71.3758L211.056 70.9731C211.257 71.1476 211.526 71.2986 211.861 71.4261C212.197 71.5469 212.559 71.6073 212.948 71.6073C213.499 71.6073 213.895 71.5167 214.136 71.3355C214.378 71.1543 214.499 70.916 214.499 70.6208C214.499 70.406 214.435 70.2382 214.307 70.1174C214.187 69.9899 214.022 69.8926 213.814 69.8255C213.606 69.7584 213.378 69.7047 213.13 69.6644C212.881 69.6174 212.633 69.5671 212.385 69.5134C212.136 69.4597 211.908 69.3825 211.7 69.2819C211.492 69.1812 211.324 69.0436 211.197 68.8691C211.076 68.6879 211.015 68.4497 211.015 68.1544C211.015 67.8859 211.089 67.6443 211.237 67.4296C211.385 67.2148 211.606 67.0437 211.901 66.9162C212.197 66.782 212.566 66.7148 213.009 66.7148C213.338 66.7148 213.666 66.7618 213.995 66.8558C214.331 66.9497 214.603 67.0739 214.811 67.2282L214.579 67.6309C214.358 67.4631 214.109 67.3423 213.834 67.2685C213.559 67.1947 213.281 67.1578 212.999 67.1578C212.489 67.1578 212.113 67.2517 211.871 67.4397C211.636 67.6276 211.519 67.8625 211.519 68.1443C211.519 68.3658 211.579 68.5436 211.7 68.6779C211.828 68.8054 211.995 68.906 212.203 68.9799C212.411 69.047 212.64 69.104 212.888 69.151C213.136 69.1913 213.385 69.2382 213.633 69.2919C213.881 69.3456 214.109 69.4228 214.317 69.5235C214.525 69.6174 214.69 69.7517 214.811 69.9261C214.938 70.0939 215.002 70.3221 215.002 70.6107C215.002 70.8993 214.921 71.1509 214.76 71.3657C214.606 71.5805 214.374 71.7482 214.066 71.869C213.757 71.9898 213.378 72.0502 212.928 72.0502Z" fill="white"/>
<path d="M206.32 74.002C206.078 74.002 205.85 73.9617 205.635 73.8812C205.427 73.8007 205.249 73.6832 205.102 73.5288L205.353 73.1463C205.487 73.2872 205.632 73.3913 205.786 73.4584C205.947 73.5255 206.128 73.559 206.33 73.559C206.571 73.559 206.783 73.4919 206.964 73.3577C207.152 73.2235 207.326 72.9785 207.487 72.6228L207.85 71.8175L207.92 71.7269L210.145 66.7539H210.658L207.961 72.7235C207.82 73.0456 207.665 73.2973 207.497 73.4785C207.336 73.6664 207.159 73.8007 206.964 73.8812C206.769 73.9617 206.555 74.002 206.32 74.002ZM207.84 72.1396L205.404 66.7539H205.937L208.152 71.6967L207.84 72.1396Z" fill="white"/>
<path d="M204.078 72.01V70.812L204.058 70.6308V68.6577C204.058 68.1678 203.924 67.7953 203.655 67.5403C203.394 67.2853 203.008 67.1578 202.498 67.1578C202.135 67.1578 201.796 67.2215 201.481 67.3491C201.172 67.4699 200.907 67.6276 200.686 67.8222L200.434 67.4598C200.696 67.2249 201.011 67.0437 201.38 66.9162C201.749 66.782 202.135 66.7148 202.538 66.7148C203.189 66.7148 203.689 66.8793 204.038 67.2081C204.387 67.537 204.561 68.0269 204.561 68.6779V72.01H204.078ZM202.186 72.0502C201.796 72.0502 201.457 71.9898 201.169 71.869C200.887 71.7415 200.669 71.5637 200.514 71.3355C200.367 71.1073 200.293 70.8456 200.293 70.5503C200.293 70.2818 200.353 70.0402 200.474 69.8255C200.602 69.604 200.81 69.4262 201.098 69.2919C201.387 69.151 201.773 69.0805 202.256 69.0805H204.189V69.4731H202.266C201.722 69.4731 201.34 69.5738 201.118 69.7751C200.904 69.9765 200.796 70.2281 200.796 70.5302C200.796 70.8657 200.924 71.1342 201.179 71.3355C201.434 71.5368 201.793 71.6375 202.256 71.6375C202.699 71.6375 203.071 71.5368 203.373 71.3355C203.682 71.1342 203.91 70.8422 204.058 70.4597L204.199 70.802C204.058 71.1845 203.816 71.4899 203.474 71.718C203.139 71.9395 202.709 72.0502 202.186 72.0502Z" fill="white"/>
<path d="M193.374 72.0088L191.381 66.7539H191.864L193.716 71.7269H193.505L195.408 66.7539H195.84L197.733 71.7269H197.512L199.394 66.7539H199.857L197.864 72.0088H197.391L195.538 67.2371H195.7L193.837 72.0088H193.374Z" fill="white"/>
<path d="M188.671 72.0502C188.141 72.0502 187.671 71.9361 187.262 71.708C186.859 71.4798 186.54 71.1644 186.305 70.7617C186.077 70.359 185.963 69.8993 185.963 69.3825C185.963 68.8591 186.07 68.3994 186.285 68.0034C186.506 67.6007 186.808 67.2853 187.191 67.0571C187.574 66.8289 188.003 66.7148 188.48 66.7148C188.956 66.7148 189.382 66.8256 189.758 67.047C190.141 67.2685 190.439 67.5806 190.654 67.9833C190.875 68.3792 190.986 68.8389 190.986 69.3624C190.986 69.3825 190.983 69.406 190.976 69.4329C190.976 69.453 190.976 69.4765 190.976 69.5033H186.335V69.1107H190.704L190.503 69.302C190.51 68.8926 190.422 68.5269 190.241 68.2047C190.067 67.8759 189.829 67.6209 189.527 67.4397C189.225 67.2517 188.876 67.1578 188.48 67.1578C188.09 67.1578 187.741 67.2517 187.433 67.4397C187.131 67.6209 186.892 67.8759 186.718 68.2047C186.543 68.5269 186.456 68.896 186.456 69.3121V69.4027C186.456 69.8322 186.55 70.2147 186.738 70.5503C186.933 70.8791 187.198 71.1375 187.533 71.3254C187.869 71.5066 188.251 71.5972 188.681 71.5972C189.016 71.5972 189.329 71.5368 189.617 71.416C189.912 71.2952 190.161 71.1107 190.362 70.8624L190.654 71.1946C190.426 71.4764 190.137 71.6912 189.788 71.8388C189.446 71.9798 189.074 72.0502 188.671 72.0502Z" fill="white"/>
<path d="M184.343 72.0502C183.88 72.0502 183.524 71.9226 183.276 71.6676C183.034 71.4126 182.914 71.0636 182.914 70.6207V65.6074H183.417V70.5703C183.417 70.9059 183.501 71.1643 183.669 71.3455C183.836 71.5267 184.078 71.6173 184.393 71.6173C184.722 71.6173 184.994 71.52 185.209 71.3254L185.42 71.6777C185.286 71.8052 185.122 71.8992 184.927 71.9596C184.739 72.02 184.544 72.0502 184.343 72.0502ZM181.947 67.1879V66.755H185.088V67.1879H181.947Z" fill="white"/>
<path d="M180.357 72.01V70.812L180.337 70.6308V68.6577C180.337 68.1678 180.203 67.7953 179.935 67.5403C179.673 67.2853 179.287 67.1578 178.777 67.1578C178.414 67.1578 178.076 67.2215 177.76 67.3491C177.451 67.4699 177.186 67.6276 176.965 67.8222L176.713 67.4598C176.975 67.2249 177.29 67.0437 177.659 66.9162C178.029 66.782 178.414 66.7148 178.817 66.7148C179.468 66.7148 179.968 66.8793 180.317 67.2081C180.666 67.537 180.841 68.0269 180.841 68.6779V72.01H180.357ZM178.465 72.0502C178.076 72.0502 177.737 71.9898 177.448 71.869C177.166 71.7415 176.948 71.5637 176.794 71.3355C176.646 71.1073 176.572 70.8456 176.572 70.5503C176.572 70.2818 176.633 70.0402 176.753 69.8255C176.881 69.604 177.089 69.4262 177.378 69.2919C177.666 69.151 178.052 69.0805 178.535 69.0805H180.468V69.4731H178.545C178.002 69.4731 177.619 69.5738 177.398 69.7751C177.183 69.9765 177.076 70.2281 177.076 70.5302C177.076 70.8657 177.203 71.1342 177.458 71.3355C177.713 71.5368 178.072 71.6375 178.535 71.6375C178.978 71.6375 179.351 71.5368 179.653 71.3355C179.961 71.1342 180.19 70.8422 180.337 70.4597L180.478 70.802C180.337 71.1845 180.096 71.4899 179.753 71.718C179.418 71.9395 178.988 72.0502 178.465 72.0502Z" fill="white"/>
<path d="M172.532 72.0576C172.002 72.0576 171.512 71.9703 171.062 71.7958C170.613 71.6146 170.22 71.363 169.885 71.0408C169.556 70.7187 169.301 70.3429 169.119 69.9133C168.938 69.4771 168.848 69.0006 168.848 68.4839C168.848 67.9671 168.938 67.494 169.119 67.0644C169.301 66.6282 169.559 66.249 169.895 65.9269C170.23 65.6048 170.619 65.3565 171.062 65.182C171.512 65.0008 172.005 64.9102 172.542 64.9102C173.052 64.9102 173.525 64.9907 173.962 65.1518C174.398 65.3128 174.77 65.5544 175.079 65.8766L174.757 66.2188C174.448 65.9168 174.109 65.7021 173.74 65.5746C173.378 65.4471 172.982 65.3833 172.552 65.3833C172.096 65.3833 171.673 65.4605 171.284 65.6148C170.895 65.7692 170.556 65.9873 170.267 66.2692C169.978 66.551 169.754 66.8799 169.593 67.2557C169.438 67.6315 169.361 68.0409 169.361 68.4839C169.361 68.9268 169.438 69.3362 169.593 69.712C169.754 70.0878 169.978 70.4167 170.267 70.6986C170.556 70.9804 170.895 71.1985 171.284 71.3529C171.673 71.5073 172.096 71.5844 172.552 71.5844C172.968 71.5844 173.361 71.5207 173.73 71.3932C174.106 71.2656 174.448 71.0542 174.757 70.759L175.049 71.1516C174.733 71.4536 174.354 71.6817 173.911 71.8361C173.475 71.9837 173.015 72.0576 172.532 72.0576ZM174.556 71.1012V68.5141H175.049V71.1516L174.556 71.1012Z" fill="white"/>
<path d="M190.204 62.3432C189.674 62.3432 189.204 62.2291 188.795 62.0009C188.392 61.7728 188.073 61.4573 187.838 61.0547C187.61 60.652 187.496 60.1923 187.496 59.6755C187.496 59.152 187.603 58.6923 187.818 58.2964C188.04 57.8937 188.342 57.5783 188.724 57.3501C189.107 57.1219 189.536 57.0078 190.013 57.0078C190.489 57.0078 190.915 57.1185 191.291 57.34C191.674 57.5615 191.972 57.8736 192.187 58.2762C192.409 58.6722 192.519 59.1319 192.519 59.6554C192.519 59.6755 192.516 59.699 192.509 59.7258C192.509 59.746 192.509 59.7695 192.509 59.7963H187.869V59.4037H192.238L192.036 59.595C192.043 59.1856 191.956 58.8198 191.774 58.4977C191.6 58.1688 191.362 57.9138 191.06 57.7326C190.758 57.5447 190.409 57.4508 190.013 57.4508C189.624 57.4508 189.275 57.5447 188.966 57.7326C188.664 57.9138 188.426 58.1688 188.251 58.4977C188.077 58.8198 187.989 59.1889 187.989 59.605V59.6956C187.989 60.1252 188.083 60.5077 188.271 60.8433C188.466 61.1721 188.731 61.4305 189.067 61.6184C189.402 61.7996 189.785 61.8902 190.214 61.8902C190.55 61.8902 190.862 61.8298 191.15 61.709C191.446 61.5882 191.694 61.4036 191.895 61.1553L192.187 61.4875C191.959 61.7694 191.67 61.9842 191.321 62.1318C190.979 62.2727 190.607 62.3432 190.204 62.3432Z" fill="white"/>
<path d="M184 57.0078C184.423 57.0078 184.789 57.0917 185.098 57.2595C185.413 57.4206 185.658 57.6689 185.833 58.0044C186.007 58.3333 186.094 58.7427 186.094 59.2326V62.3029H185.591V59.2728C185.591 58.6823 185.447 58.2326 185.158 57.9239C184.87 57.6152 184.467 57.4608 183.95 57.4608C183.554 57.4608 183.212 57.5447 182.923 57.7125C182.635 57.8803 182.413 58.1152 182.259 58.4172C182.105 58.7192 182.027 59.0816 182.027 59.5044V62.3029H181.524V59.2728C181.524 58.6823 181.38 58.2326 181.091 57.9239C180.803 57.6152 180.4 57.4608 179.883 57.4608C179.487 57.4608 179.145 57.5447 178.856 57.7125C178.568 57.8803 178.346 58.1152 178.192 58.4172C178.038 58.7192 177.96 59.0816 177.96 59.5044V62.3029H177.457V57.0481H177.94V58.4977L177.87 58.3366C178.024 57.9272 178.283 57.6051 178.645 57.3702C179.007 57.1286 179.444 57.0078 179.954 57.0078C180.477 57.0078 180.917 57.142 181.272 57.4105C181.635 57.6722 181.863 58.0648 181.957 58.5883L181.786 58.5178C181.927 58.0682 182.192 57.7058 182.581 57.4306C182.97 57.1487 183.443 57.0078 184 57.0078Z" fill="white"/>
<path d="M174.931 62.3019V57.047H175.434V62.3019H174.931ZM175.182 55.7685C175.068 55.7685 174.971 55.7283 174.89 55.6477C174.81 55.5672 174.77 55.4732 174.77 55.3659C174.77 55.2518 174.81 55.1545 174.89 55.0739C174.971 54.9934 175.068 54.9531 175.182 54.9531C175.303 54.9531 175.4 54.9934 175.474 55.0739C175.555 55.1477 175.595 55.2417 175.595 55.3558C175.595 55.4699 175.555 55.5672 175.474 55.6477C175.4 55.7283 175.303 55.7685 175.182 55.7685Z" fill="white"/>
<path d="M170.871 62.3026V55.7189H168.334V55.2559H173.921V55.7189H171.384V62.3026H170.871Z" fill="white"/>
<rect width="11.25" height="11.25" transform="translate(296.375 12.375)" fill="white"/>
<path fill-rule="evenodd" clip-rule="evenodd" d="M309.966 16.9484L308.841 15.6318C308.632 15.3818 308.457 14.9151 308.457 14.5818V13.1651C308.457 12.2818 307.732 11.5568 306.849 11.5568H305.432C305.099 11.5568 304.624 11.3818 304.374 11.1734L303.057 10.0484C302.482 9.55677 301.541 9.55677 300.966 10.0484L299.632 11.1734C299.382 11.3818 298.916 11.5568 298.582 11.5568H297.141C296.257 11.5568 295.532 12.2818 295.532 13.1651V14.5818C295.532 14.9068 295.366 15.3734 295.157 15.6234L294.032 16.9484C293.549 17.5318 293.549 18.4651 294.032 19.0318L295.157 20.3568C295.366 20.5984 295.532 21.0734 295.532 21.3984V22.8234C295.532 23.7068 296.257 24.4318 297.141 24.4318H298.591C298.916 24.4318 299.391 24.6068 299.641 24.8151L300.957 25.9401C301.532 26.4318 302.474 26.4318 303.049 25.9401L304.366 24.8151C304.616 24.6068 305.082 24.4318 305.416 24.4318H306.832C307.716 24.4318 308.441 23.7068 308.441 22.8234V21.4068C308.441 21.0734 308.616 20.6068 308.824 20.3568L309.949 19.0401C310.457 18.4734 310.457 17.5318 309.966 16.9484ZM301.258 20.8084L305.983 16.0834C306.225 15.8334 306.225 15.4417 305.983 15.2001C305.741 14.9584 305.341 14.9584 305.1 15.2001L300.816 19.4834L298.9 17.5667C298.658 17.3251 298.258 17.3251 298.016 17.5667C297.9 17.6843 297.835 17.843 297.835 18.0084C297.835 18.1738 297.9 18.3324 298.016 18.4501L300.375 20.8084C300.492 20.9254 300.651 20.9912 300.816 20.9912C300.982 20.9912 301.141 20.9254 301.258 20.8084Z" fill="#2951A3"/>
</svg>
