<svg width="153" height="54" viewBox="0 0 153 54" fill="none" xmlns="http://www.w3.org/2000/svg">
<path d="M31.3666 32.5195H15.1351V9.91472H21.3671V29.6468H31.3666V32.5195ZM39.2236 10.0089C39.2236 10.4066 39.1452 10.7833 38.9882 11.1391C38.8417 11.495 38.6376 11.8037 38.376 12.0653C38.1143 12.3269 37.8056 12.5362 37.4498 12.6932C37.094 12.8397 36.7172 12.913 36.3196 12.913C35.9219 12.913 35.5451 12.8397 35.1893 12.6932C34.844 12.5362 34.5405 12.3269 34.2788 12.0653C34.0172 11.8037 33.8079 11.495 33.6509 11.1391C33.5044 10.7833 33.4312 10.4066 33.4312 10.0089C33.4312 9.61123 33.5044 9.23971 33.6509 8.89436C33.8079 8.53854 34.0172 8.22982 34.2788 7.96819C34.5405 7.70656 34.844 7.50249 35.1893 7.35598C35.5451 7.199 35.9219 7.12051 36.3196 7.12051C36.7172 7.12051 37.094 7.199 37.4498 7.35598C37.8056 7.50249 38.1143 7.70656 38.376 7.96819C38.6376 8.22982 38.8417 8.53854 38.9882 8.89436C39.1452 9.23971 39.2236 9.61123 39.2236 10.0089ZM38.9882 32.5195H33.6666V14.4043H38.9882V32.5195ZM61.664 22.1276C61.664 23.352 61.5122 24.6288 61.2087 25.9579C60.9157 27.2869 60.5023 28.5899 59.9686 29.8666C59.4349 31.1434 58.7965 32.3416 58.0535 33.4614C57.3104 34.5916 56.4941 35.5649 55.6046 36.3812L53.611 35.298C53.8935 34.7748 54.1604 34.1887 54.4116 33.5399C54.6627 32.891 54.8877 32.2056 55.0866 31.4835C55.2959 30.7509 55.479 29.9974 55.636 29.223C55.8034 28.4486 55.9395 27.6846 56.0441 26.9311C56.1593 26.1672 56.243 25.4294 56.2953 24.7177C56.3581 23.9956 56.3895 23.3259 56.3895 22.7084C56.3895 22.3003 56.3738 21.866 56.3424 21.4055C56.311 20.9346 56.243 20.4689 56.1383 20.0084C56.0441 19.5375 55.9133 19.0875 55.7459 18.6584C55.5784 18.2293 55.3534 17.8526 55.0709 17.5281C54.7988 17.2037 54.4639 16.9421 54.0662 16.7433C53.679 16.5444 53.2185 16.445 52.6848 16.445C52.1616 16.445 51.6959 16.5653 51.2877 16.806C50.8796 17.0363 50.5185 17.345 50.2046 17.7322C49.8906 18.109 49.6185 18.5433 49.3883 19.0351C49.1685 19.527 48.9854 20.0346 48.8389 20.5578C48.7028 21.0706 48.6034 21.5782 48.5406 22.0805C48.4778 22.5828 48.4464 23.0328 48.4464 23.4305V32.5195H43.1249V14.3886H45.1656L47.5987 18.6113C47.8918 17.9101 48.258 17.2717 48.6976 16.6962C49.1371 16.1206 49.6342 15.6287 50.1889 15.2206C50.7435 14.8124 51.3557 14.4985 52.0255 14.2787C52.7057 14.0589 53.4383 13.949 54.2232 13.949C55.479 13.949 56.5726 14.1531 57.504 14.5613C58.4354 14.9694 59.2099 15.5398 59.8273 16.2723C60.4448 16.9944 60.9052 17.8578 61.2087 18.8625C61.5122 19.8566 61.664 20.945 61.664 22.1276ZM70.1489 32.5195H64.8431V7.71703H70.1489V23.9956C71.0175 23.3677 71.8704 22.677 72.7077 21.9235C73.5553 21.17 74.3612 20.3799 75.1251 19.5532C75.8891 18.7159 76.5955 17.863 77.2443 16.9944C77.9036 16.1258 78.4792 15.2572 78.9711 14.3886H82.5816C81.849 15.6235 80.9804 16.8584 79.9757 18.0933C78.9711 19.3177 77.8775 20.4898 76.6949 21.6096L82.6444 32.5195H76.7891L72.5664 24.9532C71.7815 25.4869 70.9757 25.9788 70.1489 26.4288V32.5195ZM100.532 26.727C100.532 27.5224 100.417 28.2288 100.187 28.8462C99.9567 29.4637 99.6428 30.0027 99.2451 30.4631C98.8474 30.9131 98.3765 31.2951 97.8323 31.6091C97.2881 31.9126 96.702 32.1585 96.0741 32.3469C95.4567 32.5352 94.8078 32.6713 94.1276 32.755C93.4474 32.8387 92.7724 32.8806 92.1026 32.8806C91.2026 32.8806 90.4072 32.823 89.7165 32.7079C89.0258 32.5928 88.3665 32.4096 87.7386 32.1585C87.1107 31.8969 86.4828 31.562 85.8549 31.1538C85.2374 30.7457 84.5467 30.2486 83.7828 29.6625L86.8752 27.1352C87.1578 27.6689 87.5293 28.1555 87.9898 28.5951C88.4607 29.0242 88.9473 29.3957 89.4497 29.7096C89.952 30.0236 90.4386 30.2643 90.9096 30.4317C91.3805 30.5992 91.7625 30.6829 92.0555 30.6829C92.2962 30.6829 92.5683 30.6777 92.8718 30.6672C93.1753 30.6463 93.484 30.6149 93.798 30.573C94.1119 30.5207 94.4206 30.4474 94.7241 30.3532C95.0276 30.259 95.2945 30.1335 95.5247 29.9765C95.7654 29.809 95.9538 29.605 96.0898 29.3643C96.2363 29.1131 96.3096 28.8149 96.3096 28.4695C96.3096 28.1137 96.2154 27.805 96.027 27.5433C95.8491 27.2712 95.6137 27.0358 95.3206 26.8369C95.0276 26.6381 94.6927 26.4707 94.316 26.3346C93.9392 26.1986 93.5573 26.0782 93.17 25.9736C92.7933 25.8689 92.427 25.7799 92.0712 25.7067C91.7154 25.623 91.4067 25.5445 91.145 25.4712C90.6636 25.3352 90.1561 25.1991 89.6223 25.0631C89.0886 24.9166 88.5601 24.7544 88.0369 24.5765C87.5136 24.3881 87.0113 24.1683 86.5299 23.9171C86.0589 23.666 85.6403 23.3677 85.2741 23.0224C84.9182 22.6666 84.6304 22.2532 84.4107 21.7822C84.2014 21.3008 84.0967 20.741 84.0967 20.1026C84.0967 18.9305 84.327 17.952 84.7874 17.1671C85.2584 16.3717 85.8758 15.7386 86.6398 15.2677C87.4037 14.7863 88.2723 14.4461 89.2456 14.2473C90.2189 14.0485 91.2078 13.949 92.2125 13.949C92.9032 13.949 93.6305 14.0223 94.3945 14.1688C95.1584 14.3049 95.9015 14.5142 96.6236 14.7967C97.3457 15.0688 98.0207 15.4037 98.6486 15.8014C99.2765 16.1991 99.7997 16.6543 100.218 17.1671L97.1259 19.7101C96.8957 19.0822 96.5922 18.5433 96.2154 18.0933C95.8491 17.6433 95.4462 17.277 95.0067 16.9944C94.5776 16.7014 94.1328 16.4869 93.6724 16.3508C93.2224 16.2148 92.8038 16.1467 92.4166 16.1467C92.0398 16.1467 91.616 16.1624 91.145 16.1938C90.6741 16.2252 90.2293 16.3142 89.8107 16.4607C89.4026 16.6072 89.052 16.8322 88.759 17.1357C88.4764 17.4287 88.3351 17.8369 88.3351 18.3601C88.3351 18.7369 88.4188 19.0613 88.5863 19.3334C88.7642 19.595 88.9944 19.8253 89.277 20.0241C89.5596 20.2125 89.8787 20.3747 90.2346 20.5107C90.6008 20.6363 90.9724 20.7514 91.3491 20.8561C91.7258 20.9503 92.0921 21.034 92.4479 21.1072C92.8038 21.1805 93.123 21.259 93.4055 21.3427C93.8869 21.4788 94.3945 21.62 94.9282 21.7665C95.4724 21.9026 96.0061 22.0648 96.5294 22.2532C97.0526 22.4311 97.555 22.6456 98.0364 22.8968C98.5282 23.1375 98.9573 23.4357 99.3236 23.7916C99.6899 24.1474 99.9829 24.566 100.203 25.0474C100.422 25.5183 100.532 26.0782 100.532 26.727ZM122.721 23.4148C122.721 24.3567 122.596 25.241 122.345 26.0677C122.094 26.8945 121.743 27.6584 121.293 28.3596C120.853 29.0608 120.32 29.6939 119.692 30.259C119.064 30.8137 118.373 31.2846 117.62 31.6719C116.877 32.0591 116.076 32.3573 115.218 32.5666C114.37 32.7759 113.496 32.8806 112.596 32.8806C111.696 32.8806 110.823 32.7759 109.975 32.5666C109.127 32.3573 108.327 32.0591 107.573 31.6719C106.83 31.2846 106.145 30.8137 105.517 30.259C104.889 29.6939 104.35 29.0608 103.9 28.3596C103.46 27.6584 103.115 26.8945 102.864 26.0677C102.613 25.2305 102.487 24.3462 102.487 23.4148C102.487 22.4834 102.613 21.6043 102.864 20.7776C103.115 19.9404 103.46 19.1712 103.9 18.47C104.35 17.7688 104.889 17.1409 105.517 16.5863C106.145 16.0212 106.83 15.545 107.573 15.1578C108.327 14.7706 109.127 14.4723 109.975 14.263C110.823 14.0537 111.696 13.949 112.596 13.949C113.496 13.949 114.37 14.0537 115.218 14.263C116.076 14.4723 116.877 14.7706 117.62 15.1578C118.373 15.545 119.064 16.0212 119.692 16.5863C120.32 17.1409 120.853 17.7688 121.293 18.47C121.743 19.1712 122.094 19.9404 122.345 20.7776C122.596 21.6043 122.721 22.4834 122.721 23.4148ZM117.321 23.4148C117.321 22.9125 117.29 22.384 117.227 21.8293C117.175 21.2642 117.081 20.7148 116.945 20.1811C116.809 19.6369 116.62 19.1189 116.38 18.627C116.149 18.1247 115.862 17.6904 115.516 17.3241C115.171 16.9473 114.757 16.6491 114.276 16.4293C113.795 16.1991 113.235 16.0839 112.596 16.0839C111.989 16.0839 111.45 16.1991 110.979 16.4293C110.509 16.6595 110.095 16.9683 109.739 17.3555C109.394 17.7322 109.101 18.1718 108.86 18.6741C108.63 19.1764 108.442 19.6997 108.295 20.2439C108.149 20.7776 108.044 21.3218 107.981 21.8764C107.918 22.4206 107.887 22.9334 107.887 23.4148C107.887 23.8962 107.918 24.4142 107.981 24.9689C108.044 25.5131 108.149 26.0573 108.295 26.6015C108.442 27.1457 108.63 27.6689 108.86 28.1712C109.101 28.6631 109.394 29.1026 109.739 29.4899C110.095 29.8666 110.509 30.1701 110.979 30.4003C111.45 30.6306 111.989 30.7457 112.596 30.7457C113.224 30.7457 113.779 30.6358 114.26 30.416C114.742 30.1858 115.155 29.8823 115.5 29.5056C115.856 29.1288 116.149 28.6945 116.38 28.2026C116.61 27.7108 116.793 27.1927 116.929 26.6486C117.075 26.1044 117.175 25.5549 117.227 25.0003C117.29 24.4456 117.321 23.9171 117.321 23.4148ZM141.175 15.9898L138.192 20.9346C138.066 20.516 137.904 20.045 137.705 19.5218C137.506 18.9985 137.261 18.5119 136.967 18.0619C136.674 17.6014 136.324 17.2194 135.916 16.9159C135.508 16.602 135.037 16.445 134.503 16.445C134.011 16.445 133.582 16.5706 133.216 16.8217C132.86 17.0729 132.556 17.4026 132.305 17.8107C132.054 18.2084 131.845 18.6636 131.677 19.1764C131.52 19.6787 131.395 20.1915 131.301 20.7148C131.217 21.2276 131.159 21.7247 131.128 22.2061C131.097 22.677 131.081 23.0852 131.081 23.4305V32.5195H125.759V14.3886H127.8L129.951 18.6113C130.244 17.9311 130.579 17.3084 130.955 16.7433C131.332 16.1677 131.766 15.6758 132.258 15.2677C132.75 14.8491 133.305 14.5246 133.922 14.2944C134.55 14.0642 135.256 13.949 136.041 13.949C136.449 13.949 136.905 13.9857 137.407 14.0589C137.909 14.1217 138.401 14.2368 138.883 14.4043C139.364 14.5613 139.809 14.7706 140.217 15.0322C140.625 15.2938 140.944 15.613 141.175 15.9898Z" fill="white"/>
<path d="M63.0112 48.7789V41.5397H63.7828V48.7108C63.7828 49.664 63.6504 50.4053 63.3857 50.9348C63.1209 51.4643 62.7162 51.8501 62.1716 52.0922L62.1375 52.0354C62.4401 51.8236 62.6595 51.4643 62.7956 50.9575C62.9394 50.4582 63.0112 49.732 63.0112 48.7789ZM66.0536 45.5111C66.0536 44.9286 66.1557 44.3877 66.3599 43.8885C66.5717 43.3817 66.863 42.9429 67.2336 42.5723C67.6119 42.194 68.0506 41.9028 68.5498 41.6986C69.0567 41.4868 69.6013 41.3809 70.1838 41.3809C70.7662 41.3809 71.3071 41.4868 71.8064 41.6986C72.3132 41.9028 72.7519 42.194 73.1226 42.5723C73.5008 42.9429 73.792 43.3817 73.9963 43.8885C74.2081 44.3877 74.314 44.9286 74.314 45.5111C74.314 46.0935 74.2081 46.6382 73.9963 47.145C73.792 47.6443 73.5008 48.083 73.1226 48.4612C72.7519 48.8319 72.3132 49.1231 71.8064 49.3349C71.3071 49.5392 70.7662 49.6413 70.1838 49.6413C69.6013 49.6413 69.0567 49.5392 68.5498 49.3349C68.0506 49.1231 67.6119 48.8319 67.2336 48.4612C66.863 48.083 66.5717 47.6443 66.3599 47.145C66.1557 46.6382 66.0536 46.0935 66.0536 45.5111ZM66.9159 45.5111C66.9159 46.2826 67.0521 46.9597 67.3244 47.5421C67.5967 48.117 67.9787 48.5671 68.4704 48.8924C68.9621 49.2101 69.5332 49.369 70.1838 49.369C70.8343 49.369 71.4054 49.2101 71.8971 48.8924C72.3888 48.5671 72.7708 48.1132 73.0432 47.5308C73.3155 46.9483 73.4516 46.2751 73.4516 45.5111C73.4516 44.7471 73.3155 44.0776 73.0432 43.5027C72.7708 42.9202 72.3888 42.4664 71.8971 42.1411C71.4054 41.8158 70.8343 41.6532 70.1838 41.6532C69.5332 41.6532 68.9621 41.8158 68.4704 42.1411C67.9863 42.4588 67.6043 42.9089 67.3244 43.4913C67.0521 44.0662 66.9159 44.7395 66.9159 45.5111ZM76.5799 49.4824V41.5397H77.3515V49.4824H76.5799ZM79.0095 49.4824L82.0618 41.5397H82.7653L85.8175 49.4824H84.9892L83.5822 45.7607H81.0065L79.8378 49.4824H79.0095ZM82.1412 42.1297L81.0859 45.4884H83.4801L82.2093 42.1297H82.1412ZM86.8524 49.2328L86.9205 48.552H86.9886C87.2836 48.8092 87.6164 49.0096 87.9871 49.1534C88.3577 49.2971 88.7246 49.369 89.0877 49.369C89.6021 49.369 90.0181 49.229 90.3358 48.9491C90.6535 48.6617 90.8124 48.2797 90.8124 47.8031C90.8124 47.5383 90.7519 47.2925 90.6309 47.0656C90.5174 46.8386 90.3245 46.6079 90.0522 46.3734C89.7874 46.1389 89.4205 45.8855 88.9515 45.6132C88.6263 45.4241 88.3161 45.2274 88.0211 45.0232C87.7261 44.8114 87.484 44.5693 87.2949 44.297C87.1058 44.0171 87.0112 43.6842 87.0112 43.2985C87.0112 42.7236 87.2193 42.2621 87.6353 41.9142C88.0514 41.5586 88.5998 41.3809 89.2806 41.3809C89.5832 41.3809 89.9084 41.4149 90.2564 41.483C90.6044 41.5435 90.8729 41.6229 91.062 41.7213L91.0053 42.3567H90.9372C90.506 41.8877 89.9538 41.6532 89.2806 41.6532C88.7965 41.6532 88.4069 41.778 88.1119 42.0276C87.8169 42.2697 87.6694 42.5987 87.6694 43.0148C87.6694 43.3249 87.7488 43.5935 87.9076 43.8204C88.0741 44.0398 88.2859 44.2402 88.5431 44.4218C88.8002 44.5958 89.0763 44.766 89.3714 44.9324C89.7118 45.1291 90.0408 45.3371 90.3585 45.5565C90.6838 45.7758 90.9486 46.0406 91.1528 46.3507C91.3646 46.6533 91.4705 47.0353 91.4705 47.4967C91.4705 47.9204 91.3722 48.2948 91.1755 48.6201C90.9788 48.9378 90.6989 49.1874 90.3358 49.369C89.9803 49.5505 89.5643 49.6413 89.0877 49.6413C88.7851 49.6413 88.4296 49.6035 88.0211 49.5278C87.6126 49.4522 87.2231 49.3538 86.8524 49.2328Z" fill="white"/>
</svg>
