<svg width="120" height="58" viewBox="0 0 120 58" fill="none" xmlns="http://www.w3.org/2000/svg">
<g clip-path="url(#clip0_556_5529)">
<path d="M61.1859 10.2316C61.6037 9.79692 62.1711 9.55273 62.762 9.55273C65.4205 9.55273 67.9257 9.55274 70.3929 9.55274C75.3551 9.55275 77.8399 15.794 74.3312 19.4442L66.6882 27.3953C66.3373 27.7603 65.7373 27.5018 65.7373 26.9855V19.9826L66.6206 19.0637C67.3224 18.3337 66.8254 17.0854 65.8329 17.0854H54.5977L61.1859 10.2316Z" fill="white"/>
<path d="M59.1491 26.8346C58.7314 27.2692 58.1639 27.5134 57.573 27.5134C54.9146 27.5134 52.4093 27.5134 49.9421 27.5134C44.98 27.5134 42.4951 21.2721 46.0039 17.6219L53.6469 9.67087C53.9978 9.30585 54.5977 9.56438 54.5977 10.0806L54.5978 17.0835L53.7145 18.0024C53.0127 18.7325 53.5097 19.9808 54.5022 19.9808L65.7375 19.9807L59.1491 26.8346Z" fill="white"/>
</g>
<path d="M9.61523 48.2441C8.50195 48.8535 7.35938 49.1641 6.1875 49.1758C4.52344 49.1758 3.18164 48.6309 2.16211 47.541C1.21289 46.498 0.738281 45.2207 0.738281 43.709C0.738281 42.4434 1.08984 41.3242 1.79297 40.3516C2.80078 38.9688 4.25391 38.2773 6.15234 38.2773C7.46484 38.2773 8.5957 38.5879 9.54492 39.209C9.54492 38.9629 9.55664 38.7754 9.58008 38.6465C9.62695 38.459 9.79102 38.3652 10.0723 38.3652L10.125 41.6875H9.63281C9.05859 39.7773 7.95117 38.8105 6.31055 38.7871C5.7832 38.7871 5.30859 38.8926 4.88672 39.1035C3.57422 39.7715 2.91797 41.3008 2.91797 43.6914C2.91797 43.9141 2.92383 44.1367 2.93555 44.3594C3.08789 47.2305 4.18359 48.666 6.22266 48.666C7.96875 48.6543 9.12891 47.6699 9.70312 45.7129H10.1777V49.0879C10.0488 49.0879 9.94336 49.0762 9.86133 49.0527C9.68555 48.9941 9.60352 48.7246 9.61523 48.2441ZM13.1091 45.2207C13.1091 45.6074 13.1266 45.959 13.1618 46.2754C13.3259 47.916 13.9938 48.7363 15.1657 48.7363C16.4899 48.7129 17.1637 47.5176 17.1872 45.1504C17.1872 44.6934 17.1637 44.2773 17.1169 43.9023C16.9177 42.4492 16.2614 41.7227 15.1481 41.7227C13.9059 41.8164 13.2262 42.9824 13.1091 45.2207ZM15.2009 41.2832C16.068 41.2832 16.8356 41.5117 17.5036 41.9688C18.5348 42.6953 19.0505 43.7676 19.0505 45.1855C19.0505 46.2402 18.7282 47.1367 18.0837 47.875C17.322 48.7422 16.3317 49.1758 15.113 49.1758C14.2223 49.1758 13.4372 48.918 12.7575 48.4023C11.7497 47.6523 11.2458 46.5684 11.2458 45.1504C11.2458 44.1309 11.5563 43.2695 12.1774 42.5664C12.9391 41.7109 13.947 41.2832 15.2009 41.2832ZM24.1439 48.5605C24.2259 48.5605 24.2962 48.5664 24.3548 48.5781C24.5072 48.6016 24.5834 48.7422 24.5834 49H19.9779V48.5605C20.2826 48.5605 20.5111 48.5371 20.6634 48.4902C21.0033 48.3965 21.1732 48.0859 21.1732 47.5586V41.9336H19.9779V41.4941H22.7377L22.8255 43.1992C22.9662 42.8477 23.1654 42.5312 23.4232 42.25C23.9857 41.6641 24.6185 41.3711 25.3216 41.3711C25.4505 41.3711 25.5795 41.3828 25.7084 41.4062C26.2591 41.5469 26.5345 41.8926 26.5345 42.4434C26.5345 42.5488 26.517 42.6543 26.4818 42.7598C26.3412 43.1465 26.0658 43.3398 25.6556 43.3398C25.5619 43.3398 25.474 43.3281 25.392 43.3047C25.1927 43.2344 24.9935 43.0234 24.7943 42.6719C24.6302 42.3906 24.4662 42.25 24.3021 42.25C24.1498 42.2617 23.9798 42.3496 23.7923 42.5137C23.1712 43.0645 22.8607 43.9492 22.8607 45.168V48.5605H24.1439ZM33.1045 49L32.9112 47.2246C32.8877 47.2832 32.8643 47.3418 32.8409 47.4004C32.3018 48.584 31.4229 49.1758 30.2041 49.1758C29.5596 49.1758 28.9795 48.9824 28.4639 48.5957C27.5381 47.9043 27.0752 46.8438 27.0752 45.4141C27.0752 44.418 27.3155 43.5449 27.7959 42.7949C28.4756 41.7754 29.4248 41.2656 30.6436 41.2656C31.5694 41.2656 32.3194 41.5586 32.8936 42.1445V38.0137H31.2412V37.5742H34.5811L34.5987 48.543H35.46C35.5303 48.543 35.5948 48.5488 35.6534 48.5605C35.8057 48.584 35.8819 48.7305 35.8819 49H33.1045ZM28.9385 45.2031C28.9385 45.7656 28.9912 46.2695 29.0967 46.7148C29.378 47.8633 29.9522 48.4375 30.8194 48.4375C31.2061 48.4375 31.5518 48.3086 31.8565 48.0508C32.5713 47.4531 32.9287 46.3926 32.9287 44.8691C32.9287 44.2598 32.8584 43.7266 32.7178 43.2695C32.4131 42.2734 31.8448 41.7754 31.0127 41.7754C30.6963 41.7754 30.4034 41.8574 30.1338 42.0215C29.337 42.5137 28.9385 43.5742 28.9385 45.2031ZM40.2722 48.5605C40.3542 48.5605 40.4245 48.5664 40.4831 48.5781C40.6355 48.6016 40.7116 48.7422 40.7116 49H36.5456V48.5605C36.8386 48.5605 37.0671 48.543 37.2312 48.5078C37.6062 48.4023 37.7937 48.0859 37.7937 47.5586V41.9336H36.5456V41.4941H39.4812V48.5605H40.2722ZM39.6745 39.0332C39.6745 39.209 39.6394 39.373 39.5691 39.5254C39.3698 39.9238 39.0359 40.123 38.5671 40.123C38.403 40.123 38.2448 40.0879 38.0925 40.0176C37.6823 39.8301 37.4773 39.502 37.4773 39.0332C37.4773 38.8574 37.5183 38.6875 37.6003 38.5234C37.7995 38.125 38.1218 37.9258 38.5671 37.9258C38.7429 37.9258 38.9128 37.9668 39.0769 38.0488C39.4753 38.2598 39.6745 38.5879 39.6745 39.0332ZM47.8266 49.1758C46.9477 49.1641 46.4203 48.6367 46.2445 47.5938C46.1508 47.8281 46.016 48.0508 45.8402 48.2617C45.3012 48.8711 44.5863 49.1758 43.6957 49.1758C43.3324 49.1758 42.9984 49.1172 42.6937 49C41.8852 48.6836 41.4809 48.0566 41.4809 47.1191C41.4809 46.9434 41.4984 46.7734 41.5336 46.6094C41.8266 45.3672 43.3793 44.7285 46.1918 44.6934V43.5684C46.1801 42.3613 45.6996 41.7461 44.7504 41.7227C44.516 41.7227 44.3168 41.7637 44.1527 41.8457C43.9301 41.9746 43.7426 42.2734 43.5902 42.7422C43.5551 42.8594 43.5258 42.9473 43.5023 43.0059C43.3617 43.3926 43.1098 43.5859 42.7465 43.5859C42.6527 43.5859 42.559 43.5742 42.4652 43.5508C42.1137 43.4453 41.9379 43.2051 41.9379 42.8301C41.9379 42.6309 42.0023 42.4316 42.1312 42.2324C42.5648 41.5996 43.4906 41.2832 44.9086 41.2832C46.8656 41.2949 47.8559 42.2031 47.8793 44.0078V47.6992C47.891 48.2734 48.0375 48.5723 48.3187 48.5957C48.682 48.584 48.9047 48.1621 48.9867 47.3301L49.4437 47.3477C49.432 47.6172 49.3969 47.8574 49.3383 48.0684C49.1508 48.8066 48.6469 49.1758 47.8266 49.1758ZM44.4164 48.4551C44.5922 48.4551 44.7738 48.4141 44.9613 48.332C45.5824 48.0625 45.9926 47.5176 46.1918 46.6973V45.168C45.5004 45.1797 44.9379 45.2383 44.5043 45.3438C43.6605 45.5547 43.2387 46.0586 43.2387 46.8555C43.2387 47.0195 43.2504 47.1719 43.2738 47.3125C43.391 48.0742 43.7719 48.4551 44.4164 48.4551ZM53.7637 48.5605C53.8341 48.5605 53.8985 48.5664 53.9571 48.5781C54.1095 48.6133 54.1856 48.7539 54.1856 49H49.8087V48.5605C50.1837 48.5605 50.4649 48.5312 50.6524 48.4727C50.9805 48.3672 51.1446 48.0566 51.1446 47.541V38.0137H49.8087V37.5742H52.8321V48.5605H53.7637ZM68.3979 49H68.1694C68.0288 49 67.9116 48.9766 67.8178 48.9297C67.6538 48.8359 67.4545 48.4668 67.2202 47.8223L65.3217 42.6719L63.019 49.0527H62.808C62.6791 49.0527 62.5678 49.0293 62.4741 48.9824C62.2748 48.8887 62.0522 48.502 61.8061 47.8223L58.519 38.9102H57.5346V38.4531H61.7709V38.9102H60.3471L63.2475 46.9434L65.0405 41.8809L63.7748 38.4531H67.2202V38.9102H65.8139L68.5913 46.8906L71.2455 38.9102H69.8393V38.4531H72.7045V38.9102H71.8256L68.3979 49ZM79.38 49.1758C78.5011 49.1641 77.9737 48.6367 77.798 47.5938C77.7042 47.8281 77.5695 48.0508 77.3937 48.2617C76.8546 48.8711 76.1398 49.1758 75.2491 49.1758C74.8859 49.1758 74.5519 49.1172 74.2472 49C73.4386 48.6836 73.0343 48.0566 73.0343 47.1191C73.0343 46.9434 73.0519 46.7734 73.087 46.6094C73.38 45.3672 74.9327 44.7285 77.7452 44.6934V43.5684C77.7335 42.3613 77.253 41.7461 76.3038 41.7227C76.0695 41.7227 75.8702 41.7637 75.7062 41.8457C75.4835 41.9746 75.296 42.2734 75.1437 42.7422C75.1085 42.8594 75.0792 42.9473 75.0558 43.0059C74.9152 43.3926 74.6632 43.5859 74.2999 43.5859C74.2062 43.5859 74.1124 43.5742 74.0187 43.5508C73.6671 43.4453 73.4913 43.2051 73.4913 42.8301C73.4913 42.6309 73.5558 42.4316 73.6847 42.2324C74.1183 41.5996 75.0441 41.2832 76.462 41.2832C78.4191 41.2949 79.4093 42.2031 79.4327 44.0078V47.6992C79.4445 48.2734 79.5909 48.5723 79.8722 48.5957C80.2355 48.584 80.4581 48.1621 80.5402 47.3301L80.9972 47.3477C80.9855 47.6172 80.9503 47.8574 80.8917 48.0684C80.7042 48.8066 80.2003 49.1758 79.38 49.1758ZM75.9698 48.4551C76.1456 48.4551 76.3273 48.4141 76.5148 48.332C77.1359 48.0625 77.546 47.5176 77.7452 46.6973V45.168C77.0538 45.1797 76.4913 45.2383 76.0577 45.3438C75.214 45.5547 74.7921 46.0586 74.7921 46.8555C74.7921 47.0195 74.8038 47.1719 74.8273 47.3125C74.9445 48.0742 75.3253 48.4551 75.9698 48.4551ZM81.2215 41.9688V41.5293H82.452V39.8594L84.1395 39.4902V41.5293H86.6883V41.9688H84.1395V47.3125C84.1512 48.1914 84.4559 48.6426 85.0535 48.666C85.6395 48.6543 86.0613 48.127 86.3191 47.084L86.7937 47.1719C86.7586 47.3594 86.7117 47.541 86.6531 47.7168C86.325 48.7012 85.6629 49.1934 84.6668 49.1934C84.573 49.1934 84.4734 49.1875 84.368 49.1758C83.0906 49.0586 82.452 48.2324 82.452 46.6973V41.9688H81.2215ZM87.3344 45.291C87.3344 44.3535 87.563 43.5449 88.02 42.8652C88.7231 41.8105 89.7837 41.2832 91.2016 41.2832C91.9516 41.2832 92.6137 41.4414 93.188 41.7578C93.8794 42.1445 94.2251 42.6133 94.2251 43.1641C94.2251 43.2344 94.2134 43.3105 94.1899 43.3926C94.0962 43.8027 93.7973 44.002 93.2934 43.9902C93.0942 43.9785 92.9243 43.9316 92.7837 43.8496C92.5962 43.7207 92.4614 43.4043 92.3794 42.9004C92.3559 42.7012 92.3325 42.5605 92.3091 42.4785C92.1802 41.9746 91.8227 41.7227 91.2368 41.7227C89.8891 41.7344 89.2094 42.9004 89.1977 45.2207C89.1977 45.9004 89.2739 46.4922 89.4262 46.9961C89.7778 48.1211 90.4516 48.6836 91.4477 48.6836C91.6352 48.6836 91.8227 48.666 92.0102 48.6309C92.9126 48.4668 93.5571 47.9629 93.9438 47.1191L94.4009 47.2598C94.2954 47.5176 94.1548 47.7578 93.979 47.9805C93.3462 48.7773 92.4204 49.1758 91.2016 49.1758C90.393 49.1758 89.6723 48.9883 89.0395 48.6133C87.9028 47.9336 87.3344 46.8262 87.3344 45.291ZM98.3869 48.5605C98.4572 48.5605 98.5216 48.5664 98.5802 48.5781C98.7326 48.6133 98.8087 48.7539 98.8087 49H94.7834V48.5605C95.0763 48.5605 95.3048 48.5371 95.4689 48.4902C95.8205 48.3965 95.9962 48.0859 95.9962 47.5586V38.0137H94.7834V37.5742H97.6837V43.0234C97.7892 42.7656 97.9357 42.5195 98.1232 42.2852C98.6974 41.6172 99.4416 41.2832 100.356 41.2832C100.707 41.2832 101.035 41.3535 101.34 41.4941C102.254 41.9043 102.711 42.7832 102.711 44.1309V48.5605H103.467C103.549 48.5605 103.619 48.5664 103.678 48.5781C103.83 48.6016 103.906 48.7422 103.906 49H100.004V48.5605C100.32 48.5605 100.549 48.5312 100.69 48.4727C100.901 48.3672 101.006 48.0625 101.006 47.5586V44.0078C101.006 43.7148 100.971 43.4395 100.901 43.1816C100.678 42.4785 100.221 42.127 99.5294 42.127C99.2599 42.127 98.9962 42.2031 98.7384 42.3555C98.0353 42.7773 97.6837 43.5215 97.6837 44.5879V48.5605H98.3869ZM108.508 41.7227C108.285 41.7227 108.08 41.7637 107.892 41.8457C107.072 42.209 106.639 43.1406 106.592 44.6406L108.156 44.6758C108.648 44.6992 109.029 44.6758 109.299 44.6055C109.779 44.4766 110.019 44.125 110.019 43.5508C110.019 43.3164 109.99 43.0879 109.931 42.8652C109.732 42.1035 109.258 41.7227 108.508 41.7227ZM111.654 47.2598C111.584 47.4238 111.502 47.5879 111.408 47.752C110.822 48.7012 109.867 49.1758 108.543 49.1758C107.758 49.1758 107.055 48.9883 106.433 48.6133C105.297 47.9336 104.728 46.8145 104.728 45.2559C104.728 44.3535 104.945 43.5625 105.379 42.8828C106.058 41.8164 107.096 41.2832 108.49 41.2832C109.228 41.2832 109.89 41.4355 110.476 41.7402C111.355 42.1973 111.795 42.8652 111.795 43.7441C111.795 44.084 111.701 44.3652 111.514 44.5879C111.115 45.0098 110.113 45.2031 108.508 45.168L106.592 45.1328C106.592 45.1445 106.592 45.1562 106.592 45.168C106.65 47.5117 107.412 48.6836 108.877 48.6836C109.064 48.6836 109.252 48.6602 109.439 48.6133C110.248 48.4258 110.846 47.9277 111.232 47.1191L111.654 47.2598ZM115.535 48.7012C116.332 48.7012 116.841 48.4492 117.064 47.9453C117.134 47.793 117.169 47.6348 117.169 47.4707C117.169 46.9434 116.8 46.4922 116.062 46.1172C115.91 46.0352 115.658 45.918 115.306 45.7656C114.38 45.3672 113.765 44.998 113.46 44.6582C113.132 44.2832 112.968 43.8438 112.968 43.3398C112.968 42.4609 113.449 41.8516 114.41 41.5117C114.843 41.3594 115.318 41.2832 115.834 41.2832C116.677 41.2832 117.369 41.4473 117.908 41.7754C117.908 41.4355 117.996 41.2422 118.171 41.1953C118.23 41.1836 118.294 41.1777 118.365 41.1777V43.375H117.873C117.826 42.2969 117.234 41.752 116.097 41.7402C115.277 41.7402 114.767 41.9922 114.568 42.4961C114.521 42.625 114.498 42.7598 114.498 42.9004C114.498 43.4043 114.855 43.8379 115.57 44.2012C115.722 44.2715 115.968 44.377 116.308 44.5176C117.246 44.916 117.867 45.2852 118.171 45.625C118.523 46.0234 118.699 46.4863 118.699 47.0137C118.699 47.9746 118.195 48.625 117.187 48.9648C116.777 49.1055 116.32 49.1758 115.816 49.1758C114.89 49.1641 114.099 48.9648 113.443 48.5781C113.443 48.8828 113.367 49.0586 113.214 49.1055C113.144 49.1172 113.062 49.123 112.968 49.123V46.4512H113.513C113.537 47.9395 114.21 48.6895 115.535 48.7012Z" fill="white"/>
<defs>
<clipPath id="clip0_556_5529">
<rect width="31.6125" height="18.0643" fill="white" transform="translate(44.3613 9.5)"/>
</clipPath>
</defs>
</svg>
