<svg width="320" height="126" viewBox="0 0 320 126" fill="none" xmlns="http://www.w3.org/2000/svg">
<rect width="320" height="126" rx="14" fill="#0E1E33"/>
<rect width="11.25" height="11.25" transform="translate(296.375 12.375)" fill="white"/>
<path fill-rule="evenodd" clip-rule="evenodd" d="M309.966 16.9484L308.841 15.6318C308.632 15.3818 308.457 14.9151 308.457 14.5818V13.1651C308.457 12.2818 307.732 11.5568 306.849 11.5568H305.432C305.099 11.5568 304.624 11.3818 304.374 11.1734L303.057 10.0484C302.482 9.55677 301.541 9.55677 300.966 10.0484L299.632 11.1734C299.382 11.3818 298.916 11.5568 298.582 11.5568H297.141C296.257 11.5568 295.532 12.2818 295.532 13.1651V14.5818C295.532 14.9068 295.366 15.3734 295.157 15.6234L294.032 16.9484C293.549 17.5318 293.549 18.4651 294.032 19.0318L295.157 20.3568C295.366 20.5984 295.532 21.0734 295.532 21.3984V22.8234C295.532 23.7068 296.257 24.4318 297.141 24.4318H298.591C298.916 24.4318 299.391 24.6068 299.641 24.8151L300.957 25.9401C301.532 26.4318 302.474 26.4318 303.049 25.9401L304.366 24.8151C304.616 24.6068 305.082 24.4318 305.416 24.4318H306.832C307.716 24.4318 308.441 23.7068 308.441 22.8234V21.4068C308.441 21.0734 308.616 20.6068 308.824 20.3568L309.949 19.0401C310.457 18.4734 310.457 17.5318 309.966 16.9484ZM301.258 20.8084L305.983 16.0834C306.225 15.8334 306.225 15.4417 305.983 15.2001C305.741 14.9584 305.341 14.9584 305.1 15.2001L300.816 19.4834L298.9 17.5667C298.658 17.3251 298.258 17.3251 298.016 17.5667C297.9 17.6843 297.835 17.843 297.835 18.0084C297.835 18.1738 297.9 18.3324 298.016 18.4501L300.375 20.8084C300.492 20.9254 300.651 20.9912 300.816 20.9912C300.982 20.9912 301.141 20.9254 301.258 20.8084Z" fill="#2951A3"/>
<path d="M114.367 68.5195H98.1351V45.9147H104.367V65.6468H114.367V68.5195ZM122.224 46.0089C122.224 46.4066 122.145 46.7833 121.988 47.1391C121.842 47.495 121.638 47.8037 121.376 48.0653C121.114 48.3269 120.806 48.5362 120.45 48.6932C120.094 48.8397 119.717 48.913 119.32 48.913C118.922 48.913 118.545 48.8397 118.189 48.6932C117.844 48.5362 117.54 48.3269 117.279 48.0653C117.017 47.8037 116.808 47.495 116.651 47.1391C116.504 46.7833 116.431 46.4066 116.431 46.0089C116.431 45.6112 116.504 45.2397 116.651 44.8944C116.808 44.5385 117.017 44.2298 117.279 43.9682C117.54 43.7066 117.844 43.5025 118.189 43.356C118.545 43.199 118.922 43.1205 119.32 43.1205C119.717 43.1205 120.094 43.199 120.45 43.356C120.806 43.5025 121.114 43.7066 121.376 43.9682C121.638 44.2298 121.842 44.5385 121.988 44.8944C122.145 45.2397 122.224 45.6112 122.224 46.0089ZM121.988 68.5195H116.667V50.4043H121.988V68.5195ZM144.664 58.1276C144.664 59.352 144.512 60.6288 144.209 61.9579C143.916 63.2869 143.502 64.5899 142.969 65.8666C142.435 67.1434 141.796 68.3416 141.053 69.4614C140.31 70.5916 139.494 71.5649 138.605 72.3812L136.611 71.298C136.894 70.7748 137.16 70.1887 137.412 69.5399C137.663 68.891 137.888 68.2056 138.087 67.4835C138.296 66.7509 138.479 65.9974 138.636 65.223C138.803 64.4486 138.939 63.6846 139.044 62.9311C139.159 62.1672 139.243 61.4294 139.295 60.7177C139.358 59.9956 139.389 59.3259 139.389 58.7084C139.389 58.3003 139.374 57.866 139.342 57.4055C139.311 56.9346 139.243 56.4689 139.138 56.0084C139.044 55.5375 138.913 55.0875 138.746 54.6584C138.578 54.2293 138.353 53.8526 138.071 53.5281C137.799 53.2037 137.464 52.9421 137.066 52.7433C136.679 52.5444 136.219 52.445 135.685 52.445C135.162 52.445 134.696 52.5653 134.288 52.806C133.88 53.0363 133.519 53.345 133.205 53.7322C132.891 54.109 132.619 54.5433 132.388 55.0351C132.169 55.527 131.985 56.0346 131.839 56.5578C131.703 57.0706 131.603 57.5782 131.541 58.0805C131.478 58.5828 131.446 59.0328 131.446 59.4305V68.5195H126.125V50.3886H128.166L130.599 54.6113C130.892 53.9101 131.258 53.2717 131.698 52.6962C132.137 52.1206 132.634 51.6287 133.189 51.2206C133.744 50.8124 134.356 50.4985 135.026 50.2787C135.706 50.0589 136.438 49.949 137.223 49.949C138.479 49.949 139.573 50.1531 140.504 50.5613C141.435 50.9694 142.21 51.5398 142.827 52.2723C143.445 52.9944 143.905 53.8578 144.209 54.8625C144.512 55.8566 144.664 56.945 144.664 58.1276ZM153.149 68.5195H147.843V43.717H153.149V59.9956C154.018 59.3677 154.87 58.677 155.708 57.9235C156.555 57.17 157.361 56.3799 158.125 55.5532C158.889 54.7159 159.595 53.863 160.244 52.9944C160.904 52.1258 161.479 51.2572 161.971 50.3886H165.582C164.849 51.6235 163.98 52.8584 162.976 54.0933C161.971 55.3177 160.877 56.4898 159.695 57.6096L165.644 68.5195H159.789L155.566 60.9532C154.781 61.4869 153.976 61.9788 153.149 62.4288V68.5195ZM183.532 62.727C183.532 63.5224 183.417 64.2288 183.187 64.8462C182.957 65.4637 182.643 66.0027 182.245 66.4631C181.847 66.9131 181.376 67.2951 180.832 67.6091C180.288 67.9126 179.702 68.1585 179.074 68.3469C178.457 68.5352 177.808 68.6713 177.128 68.755C176.447 68.8387 175.772 68.8806 175.103 68.8806C174.203 68.8806 173.407 68.823 172.717 68.7079C172.026 68.5928 171.367 68.4096 170.739 68.1585C170.111 67.8969 169.483 67.562 168.855 67.1538C168.237 66.7457 167.547 66.2486 166.783 65.6625L169.875 63.1352C170.158 63.6689 170.529 64.1555 170.99 64.5951C171.461 65.0242 171.947 65.3957 172.45 65.7096C172.952 66.0236 173.439 66.2643 173.91 66.4317C174.38 66.5992 174.762 66.6829 175.056 66.6829C175.296 66.6829 175.568 66.6777 175.872 66.6672C176.175 66.6463 176.484 66.6149 176.798 66.573C177.112 66.5207 177.421 66.4474 177.724 66.3532C178.028 66.259 178.294 66.1335 178.525 65.9765C178.765 65.809 178.954 65.605 179.09 65.3643C179.236 65.1131 179.31 64.8149 179.31 64.4695C179.31 64.1137 179.215 63.805 179.027 63.5433C178.849 63.2712 178.614 63.0358 178.321 62.8369C178.028 62.6381 177.693 62.4707 177.316 62.3346C176.939 62.1986 176.557 62.0782 176.17 61.9736C175.793 61.8689 175.427 61.7799 175.071 61.7067C174.715 61.623 174.407 61.5445 174.145 61.4712C173.664 61.3352 173.156 61.1991 172.622 61.0631C172.089 60.9166 171.56 60.7544 171.037 60.5765C170.514 60.3881 170.011 60.1683 169.53 59.9171C169.059 59.666 168.64 59.3677 168.274 59.0224C167.918 58.6666 167.63 58.2532 167.411 57.7822C167.201 57.3008 167.097 56.741 167.097 56.1026C167.097 54.9305 167.327 53.952 167.787 53.1671C168.258 52.3717 168.876 51.7386 169.64 51.2677C170.404 50.7863 171.272 50.4461 172.246 50.2473C173.219 50.0485 174.208 49.949 175.212 49.949C175.903 49.949 176.631 50.0223 177.394 50.1688C178.158 50.3049 178.901 50.5142 179.624 50.7967C180.346 51.0688 181.021 51.4037 181.649 51.8014C182.276 52.1991 182.8 52.6543 183.218 53.1671L180.126 55.7101C179.896 55.0822 179.592 54.5433 179.215 54.0933C178.849 53.6433 178.446 53.277 178.007 52.9944C177.578 52.7014 177.133 52.4869 176.672 52.3508C176.222 52.2148 175.804 52.1467 175.417 52.1467C175.04 52.1467 174.616 52.1624 174.145 52.1938C173.674 52.2252 173.229 52.3142 172.811 52.4607C172.403 52.6072 172.052 52.8322 171.759 53.1357C171.476 53.4287 171.335 53.8369 171.335 54.3601C171.335 54.7369 171.419 55.0613 171.586 55.3334C171.764 55.595 171.994 55.8253 172.277 56.0241C172.56 56.2125 172.879 56.3747 173.235 56.5107C173.601 56.6363 173.972 56.7514 174.349 56.8561C174.726 56.9503 175.092 57.034 175.448 57.1072C175.804 57.1805 176.123 57.259 176.406 57.3427C176.887 57.4788 177.394 57.62 177.928 57.7665C178.472 57.9026 179.006 58.0648 179.529 58.2532C180.053 58.4311 180.555 58.6456 181.036 58.8968C181.528 59.1375 181.957 59.4357 182.324 59.7916C182.69 60.1474 182.983 60.566 183.203 61.0474C183.422 61.5183 183.532 62.0782 183.532 62.727ZM205.721 59.4148C205.721 60.3567 205.596 61.241 205.345 62.0677C205.094 62.8945 204.743 63.6584 204.293 64.3596C203.853 65.0608 203.32 65.6939 202.692 66.259C202.064 66.8137 201.373 67.2846 200.62 67.6719C199.877 68.0591 199.076 68.3573 198.218 68.5666C197.37 68.7759 196.496 68.8806 195.596 68.8806C194.696 68.8806 193.823 68.7759 192.975 68.5666C192.127 68.3573 191.327 68.0591 190.573 67.6719C189.83 67.2846 189.145 66.8137 188.517 66.259C187.889 65.6939 187.35 65.0608 186.9 64.3596C186.46 63.6584 186.115 62.8945 185.864 62.0677C185.613 61.2305 185.487 60.3462 185.487 59.4148C185.487 58.4834 185.613 57.6043 185.864 56.7776C186.115 55.9404 186.46 55.1712 186.9 54.47C187.35 53.7688 187.889 53.1409 188.517 52.5863C189.145 52.0212 189.83 51.545 190.573 51.1578C191.327 50.7706 192.127 50.4723 192.975 50.263C193.823 50.0537 194.696 49.949 195.596 49.949C196.496 49.949 197.37 50.0537 198.218 50.263C199.076 50.4723 199.877 50.7706 200.62 51.1578C201.373 51.545 202.064 52.0212 202.692 52.5863C203.32 53.1409 203.853 53.7688 204.293 54.47C204.743 55.1712 205.094 55.9404 205.345 56.7776C205.596 57.6043 205.721 58.4834 205.721 59.4148ZM200.321 59.4148C200.321 58.9125 200.29 58.384 200.227 57.8293C200.175 57.2642 200.081 56.7148 199.945 56.1811C199.809 55.6369 199.62 55.1189 199.38 54.627C199.149 54.1247 198.862 53.6904 198.516 53.3241C198.171 52.9473 197.757 52.6491 197.276 52.4293C196.795 52.1991 196.235 52.0839 195.596 52.0839C194.989 52.0839 194.45 52.1991 193.979 52.4293C193.509 52.6595 193.095 52.9683 192.739 53.3555C192.394 53.7322 192.101 54.1718 191.86 54.6741C191.63 55.1764 191.442 55.6997 191.295 56.2439C191.149 56.7776 191.044 57.3218 190.981 57.8764C190.918 58.4206 190.887 58.9334 190.887 59.4148C190.887 59.8962 190.918 60.4142 190.981 60.9689C191.044 61.5131 191.149 62.0573 191.295 62.6015C191.442 63.1457 191.63 63.6689 191.86 64.1712C192.101 64.6631 192.394 65.1026 192.739 65.4899C193.095 65.8666 193.509 66.1701 193.979 66.4003C194.45 66.6306 194.989 66.7457 195.596 66.7457C196.224 66.7457 196.779 66.6358 197.26 66.416C197.742 66.1858 198.155 65.8823 198.5 65.5056C198.856 65.1288 199.149 64.6945 199.38 64.2026C199.61 63.7108 199.793 63.1927 199.929 62.6486C200.075 62.1044 200.175 61.5549 200.227 61.0003C200.29 60.4456 200.321 59.9171 200.321 59.4148ZM224.175 51.9898L221.192 56.9346C221.066 56.516 220.904 56.045 220.705 55.5218C220.506 54.9985 220.261 54.5119 219.967 54.0619C219.674 53.6014 219.324 53.2194 218.916 52.9159C218.508 52.602 218.037 52.445 217.503 52.445C217.011 52.445 216.582 52.5706 216.216 52.8217C215.86 53.0729 215.556 53.4026 215.305 53.8107C215.054 54.2084 214.845 54.6636 214.677 55.1764C214.52 55.6787 214.395 56.1915 214.301 56.7148C214.217 57.2276 214.159 57.7247 214.128 58.2061C214.097 58.677 214.081 59.0852 214.081 59.4305V68.5195H208.759V50.3886H210.8L212.951 54.6113C213.244 53.9311 213.579 53.3084 213.955 52.7433C214.332 52.1677 214.766 51.6758 215.258 51.2677C215.75 50.8491 216.305 50.5246 216.922 50.2944C217.55 50.0642 218.256 49.949 219.041 49.949C219.449 49.949 219.905 49.9857 220.407 50.0589C220.909 50.1217 221.401 50.2368 221.883 50.4043C222.364 50.5613 222.809 50.7706 223.217 51.0322C223.625 51.2938 223.944 51.613 224.175 51.9898Z" fill="white"/>
<path d="M146.011 84.7789V77.5397H146.783V84.7108C146.783 85.664 146.65 86.4053 146.386 86.9348C146.121 87.4643 145.716 87.8501 145.172 88.0922L145.138 88.0354C145.44 87.8236 145.659 87.4643 145.796 86.9575C145.939 86.4582 146.011 85.732 146.011 84.7789ZM149.054 81.5111C149.054 80.9286 149.156 80.3877 149.36 79.8885C149.572 79.3817 149.863 78.9429 150.234 78.5723C150.612 78.194 151.051 77.9028 151.55 77.6986C152.057 77.4868 152.601 77.3809 153.184 77.3809C153.766 77.3809 154.307 77.4868 154.806 77.6986C155.313 77.9028 155.752 78.194 156.123 78.5723C156.501 78.9429 156.792 79.3817 156.996 79.8885C157.208 80.3877 157.314 80.9286 157.314 81.5111C157.314 82.0935 157.208 82.6382 156.996 83.145C156.792 83.6443 156.501 84.083 156.123 84.4612C155.752 84.8319 155.313 85.1231 154.806 85.3349C154.307 85.5392 153.766 85.6413 153.184 85.6413C152.601 85.6413 152.057 85.5392 151.55 85.3349C151.051 85.1231 150.612 84.8319 150.234 84.4612C149.863 84.083 149.572 83.6443 149.36 83.145C149.156 82.6382 149.054 82.0935 149.054 81.5111ZM149.916 81.5111C149.916 82.2826 150.052 82.9597 150.324 83.5421C150.597 84.117 150.979 84.5671 151.47 84.8924C151.962 85.2101 152.533 85.369 153.184 85.369C153.834 85.369 154.405 85.2101 154.897 84.8924C155.389 84.5671 155.771 84.1132 156.043 83.5308C156.315 82.9483 156.452 82.2751 156.452 81.5111C156.452 80.7471 156.315 80.0776 156.043 79.5027C155.771 78.9202 155.389 78.4664 154.897 78.1411C154.405 77.8158 153.834 77.6532 153.184 77.6532C152.533 77.6532 151.962 77.8158 151.47 78.1411C150.986 78.4588 150.604 78.9089 150.324 79.4913C150.052 80.0662 149.916 80.7395 149.916 81.5111ZM159.58 85.4824V77.5397H160.351V85.4824H159.58ZM162.009 85.4824L165.062 77.5397H165.765L168.818 85.4824H167.989L166.582 81.7607H164.007L162.838 85.4824H162.009ZM165.141 78.1297L164.086 81.4884H166.48L165.209 78.1297H165.141ZM169.852 85.2328L169.92 84.552H169.989C170.284 84.8092 170.616 85.0096 170.987 85.1534C171.358 85.2971 171.725 85.369 172.088 85.369C172.602 85.369 173.018 85.229 173.336 84.9491C173.654 84.6617 173.812 84.2797 173.812 83.8031C173.812 83.5383 173.752 83.2925 173.631 83.0656C173.517 82.8386 173.324 82.6079 173.052 82.3734C172.787 82.1389 172.421 81.8855 171.952 81.6132C171.626 81.4241 171.316 81.2274 171.021 81.0232C170.726 80.8114 170.484 80.5693 170.295 80.297C170.106 80.0171 170.011 79.6842 170.011 79.2985C170.011 78.7236 170.219 78.2621 170.635 77.9142C171.051 77.5586 171.6 77.3809 172.281 77.3809C172.583 77.3809 172.908 77.4149 173.256 77.483C173.604 77.5435 173.873 77.6229 174.062 77.7213L174.005 78.3567H173.937C173.506 77.8877 172.954 77.6532 172.281 77.6532C171.796 77.6532 171.407 77.778 171.112 78.0276C170.817 78.2697 170.669 78.5987 170.669 79.0148C170.669 79.3249 170.749 79.5935 170.908 79.8204C171.074 80.0398 171.286 80.2402 171.543 80.4218C171.8 80.5958 172.076 80.766 172.371 80.9324C172.712 81.1291 173.041 81.3371 173.359 81.5565C173.684 81.7758 173.949 82.0406 174.153 82.3507C174.365 82.6533 174.471 83.0353 174.471 83.4967C174.471 83.9204 174.372 84.2948 174.175 84.6201C173.979 84.9378 173.699 85.1874 173.336 85.369C172.98 85.5505 172.564 85.6413 172.088 85.6413C171.785 85.6413 171.43 85.6035 171.021 85.5278C170.613 85.4522 170.223 85.3538 169.852 85.2328Z" fill="white"/>
</svg>
